ply
format ascii 1.0
element vertex 1290
property float x
property float y
property float z
element face 2520
property list uchar int vertex_indices
end_header
-195.701011 -21.531105 245.978625
-194.552961 -21.531105 245.750264
-194.706770 -20.957080 245.750264
-195.126986 -20.536864 245.750264
-195.701011 -20.383055 245.750264
-196.275036 -20.536864 245.750264
-196.695252 -20.957080 245.750264
-196.849061 -21.531105 245.750264
-196.695252 -22.105130 245.750264
-196.275036 -22.525346 245.750264
-195.701011 -22.679155 245.750264
-195.126986 -22.525346 245.750264
-194.706770 -22.105130 245.750264
-193.579691 -21.531105 245.099946
-193.863894 -20.470445 245.099946
-194.640351 -19.693988 245.099946
-195.701011 -19.409785 245.099946
-196.761671 -19.693988 245.099946
-197.538128 -20.470445 245.099946
-197.822332 -21.531105 245.099946
-197.538128 -22.591765 245.099946
-196.761671 -23.368222 245.099946
-195.701011 -23.652425 245.099946
-194.640351 -23.368222 245.099946
-193.863894 -22.591765 245.099946
-192.929373 -21.531105 244.126676
-193.300702 -20.145286 244.126676
-194.315192 -19.130795 244.126676
-195.701011 -18.759466 244.126676
-197.086830 -19.130795 244.126676
-198.101321 -20.145286 244.126676
-198.472650 -21.531105 244.126676
-198.101321 -22.916924 244.126676
-197.086830 -23.931414 244.126676
-195.701011 -24.302744 244.126676
-194.315192 -23.931414 244.126676
-193.300702 -22.916924 244.126676
-192.701011 -21.531105 242.978625
-193.102935 -20.031105 242.978625
-194.201011 -18.933029 242.978625
-195.701011 -18.531105 242.978625
-197.201011 -18.933029 242.978625
-198.299087 -20.031105 242.978625
-198.701011 -21.531105 242.978625
-198.299087 -23.031105 242.978625
-197.201011 -24.129181 242.978625
-195.701011 -24.531105 242.978625
-194.201011 -24.129181 242.978625
-193.102935 -23.031105 242.978625
-192.929373 -21.531105 241.830575
-193.300702 -20.145286 241.830575
-194.315192 -19.130795 241.830575
-195.701011 -18.759466 241.830575
-197.086830 -19.130795 241.830575
-198.101321 -20.145286 241.830575
-198.472650 -21.531105 241.830575
-198.101321 -22.916924 241.830575
-197.086830 -23.931414 241.830575
-195.701011 -24.302744 241.830575
-194.315192 -23.931414 241.830575
-193.300702 -22.916924 241.830575
-193.579691 -21.531105 240.857305
-193.863894 -20.470445 240.857305
-194.640351 -19.693988 240.857305
-195.701011 -19.409785 240.857305
-196.761671 -19.693988 240.857305
-197.538128 -20.470445 240.857305
-197.822332 -21.531105 240.857305
-197.538128 -22.591765 240.857305
-196.761671 -23.368222 240.857305
-195.701011 -23.652425 240.857305
-194.640351 -23.368222 240.857305
-193.863894 -22.591765 240.857305
-194.552961 -21.531105 240.206987
-194.706770 -20.957080 240.206987
-195.126986 -20.536864 240.206987
-195.701011 -20.383055 240.206987
-196.275036 -20.536864 240.206987
-196.695252 -20.957080 240.206987
-196.849061 -21.531105 240.206987
-196.695252 -22.105130 240.206987
-196.275036 -22.525346 240.206987
-195.701011 -22.679155 240.206987
-195.126986 -22.525346 240.206987
-194.706770 -22.105130 240.206987
-195.701011 -21.531105 239.978625
14.654590 -5.679895 9.227473
15.802640 -5.679895 8.999112
15.648831 -5.105870 8.999112
15.228615 -4.685654 8.999112
14.654590 -4.531845 8.999112
14.080565 -4.685654 8.999112
13.660349 -5.105870 8.999112
13.506540 -5.679895 8.999112
13.660349 -6.253920 8.999112
14.080565 -6.674136 8.999112
14.654590 -6.827945 8.999112
15.228615 -6.674136 8.999112
15.648831 -6.253920 8.999112
16.775911 -5.679895 8.348794
16.491707 -4.619235 8.348794
15.715250 -3.842778 8.348794
14.654590 -3.558575 8.348794
13.593930 -3.842778 8.348794
12.817473 -4.619235 8.348794
12.533270 -5.679895 8.348794
12.817473 -6.740555 8.348794
13.593930 -7.517012 8.348794
14.654590 -7.801215 8.348794
15.715250 -7.517012 8.348794
16.491707 -6.740555 8.348794
17.426229 -5.679895 7.375524
17.054900 -4.294076 7.375524
16.040409 -3.279586 7.375524
14.654590 -2.908256 7.375524
13.268771 -3.279586 7.375524
12.254281 -4.294076 7.375524
11.882952 -5.679895 7.375524
12.254281 -7.065714 7.375524
13.268771 -8.080204 7.375524
14.654590 -8.451534 7.375524
16.040409 -8.080204 7.375524
17.054900 -7.065714 7.375524
17.654590 -5.679895 6.227473
17.252666 -4.179895 6.227473
16.154590 -3.081819 6.227473
14.654590 -2.679895 6.227473
13.154590 -3.081819 6.227473
12.056514 -4.179895 6.227473
11.654590 -5.679895 6.227473
12.056514 -7.179895 6.227473
13.154590 -8.277971 6.227473
14.654590 -8.679895 6.227473
16.154590 -8.277971 6.227473
17.252666 -7.179895 6.227473
17.426229 -5.679895 5.079423
17.054900 -4.294076 5.079423
16.040409 -3.279586 5.079423
14.654590 -2.908256 5.079423
13.268771 -3.279586 5.079423
12.254281 -4.294076 5.079423
11.882952 -5.679895 5.079423
12.254281 -7.065714 5.079423
13.268771 -8.080204 5.079423
14.654590 -8.451534 5.079423
16.040409 -8.080204 5.079423
17.054900 -7.065714 5.079423
16.775911 -5.679895 4.106153
16.491707 -4.619235 4.106153
15.715250 -3.842778 4.106153
14.654590 -3.558575 4.106153
13.593930 -3.842778 4.106153
12.817473 -4.619235 4.106153
12.533270 -5.679895 4.106153
12.817473 -6.740555 4.106153
13.593930 -7.517012 4.106153
14.654590 -7.801215 4.106153
15.715250 -7.517012 4.106153
16.491707 -6.740555 4.106153
15.802640 -5.679895 3.455835
15.648831 -5.105870 3.455835
15.228615 -4.685654 3.455835
14.654590 -4.531845 3.455835
14.080565 -4.685654 3.455835
13.660349 -5.105870 3.455835
13.506540 -5.679895 3.455835
13.660349 -6.253920 3.455835
14.080565 -6.674136 3.455835
14.654590 -6.827945 3.455835
15.228615 -6.674136 3.455835
15.648831 -6.253920 3.455835
14.654590 -5.679895 3.227473
-1.644711 -35.806095 13.051739
-0.496660 -35.806095 12.823377
-0.650470 -35.232070 12.823377
-1.070686 -34.811854 12.823377
-1.644711 -34.658045 12.823377
-2.218736 -34.811854 12.823377
-2.638951 -35.232070 12.823377
-2.792761 -35.806095 12.823377
-2.638951 -36.380120 12.823377
-2.218736 -36.800336 12.823377
-1.644711 -36.954145 12.823377
-1.070686 -36.800336 12.823377
-0.650470 -36.380120 12.823377
0.476610 -35.806095 12.173059
0.192407 -34.745435 12.173059
-0.584051 -33.968978 12.173059
-1.644711 -33.684775 12.173059
-2.705371 -33.968978 12.173059
-3.481828 -34.745435 12.173059
-3.766031 -35.806095 12.173059
-3.481828 -36.866755 12.173059
-2.705371 -37.643212 12.173059
-1.644711 -37.927415 12.173059
-0.584051 -37.643212 12.173059
0.192407 -36.866755 12.173059
1.126928 -35.806095 11.199789
0.755599 -34.420276 11.199789
-0.258891 -33.405786 11.199789
-1.644711 -33.034457 11.199789
-3.030530 -33.405786 11.199789
-4.045020 -34.420276 11.199789
-4.416349 -35.806095 11.199789
-4.045020 -37.191914 11.199789
-3.030530 -38.206405 11.199789
-1.644711 -38.577734 11.199789
-0.258891 -38.206405 11.199789
0.755599 -37.191914 11.199789
1.355289 -35.806095 10.051739
0.953366 -34.306095 10.051739
-0.144711 -33.208019 10.051739
-1.644711 -32.806095 10.051739
-3.144711 -33.208019 10.051739
-4.242787 -34.306095 10.051739
-4.644711 -35.806095 10.051739
-4.242787 -37.306095 10.051739
-3.144711 -38.404171 10.051739
-1.644711 -38.806095 10.051739
-0.144711 -38.404171 10.051739
0.953366 -37.306095 10.051739
1.126928 -35.806095 8.903688
0.755599 -34.420276 8.903688
-0.258891 -33.405786 8.903688
-1.644711 -33.034457 8.903688
-3.030530 -33.405786 8.903688
-4.045020 -34.420276 8.903688
-4.416349 -35.806095 8.903688
-4.045020 -37.191914 8.903688
-3.030530 -38.206405 8.903688
-1.644711 -38.577734 8.903688
-0.258891 -38.206405 8.903688
0.755599 -37.191914 8.903688
0.476610 -35.806095 7.930418
0.192407 -34.745435 7.930418
-0.584051 -33.968978 7.930418
-1.644711 -33.684775 7.930418
-2.705371 -33.968978 7.930418
-3.481828 -34.745435 7.930418
-3.766031 -35.806095 7.930418
-3.481828 -36.866755 7.930418
-2.705371 -37.643212 7.930418
-1.644711 -37.927415 7.930418
-0.584051 -37.643212 7.930418
0.192407 -36.866755 7.930418
-0.496660 -35.806095 7.280100
-0.650470 -35.232070 7.280100
-1.070686 -34.811854 7.280100
-1.644711 -34.658045 7.280100
-2.218736 -34.811854 7.280100
-2.638951 -35.232070 7.280100
-2.792761 -35.806095 7.280100
-2.638951 -36.380120 7.280100
-2.218736 -36.800336 7.280100
-1.644711 -36.954145 7.280100
-1.070686 -36.800336 7.280100
-0.650470 -36.380120 7.280100
-1.644711 -35.806095 7.051739
9.728510 22.233293 22.968586
10.876561 22.233293 22.740225
10.722751 22.807318 22.740225
10.302536 23.227533 22.740225
9.728510 23.381343 22.740225
9.154485 23.227533 22.740225
8.734270 22.807318 22.740225
8.580460 22.233293 22.740225
8.734270 21.659268 22.740225
9.154485 21.239052 22.740225
9.728510 21.085242 22.740225
10.302536 21.239052 22.740225
10.722751 21.659268 22.740225
11.849831 22.233293 22.089907
11.565628 23.293953 22.089907
10.789171 24.070410 22.089907
9.728510 24.354613 22.089907
8.667850 24.070410 22.089907
7.891393 23.293953 22.089907
7.607190 22.233293 22.089907
7.891393 21.172633 22.089907
8.667850 20.396175 22.089907
9.728510 20.111972 22.089907
10.789171 20.396175 22.089907
11.565628 21.172633 22.089907
12.500149 22.233293 21.116637
12.128820 23.619112 21.116637
11.114330 24.633602 21.116637
9.728510 25.004931 21.116637
8.342691 24.633602 21.116637
7.328201 23.619112 21.116637
6.956872 22.233293 21.116637
7.328201 20.847473 21.116637
8.342691 19.832983 21.116637
9.728510 19.461654 21.116637
11.114330 19.832983 21.116637
12.128820 20.847473 21.116637
12.728510 22.233293 19.968586
12.326587 23.733293 19.968586
11.228510 24.831369 19.968586
9.728510 25.233293 19.968586
8.228510 24.831369 19.968586
7.130434 23.733293 19.968586
6.728510 22.233293 19.968586
7.130434 20.733293 19.968586
8.228510 19.635217 19.968586
9.728510 19.233293 19.968586
11.228510 19.635217 19.968586
12.326587 20.733293 19.968586
12.500149 22.233293 18.820536
12.128820 23.619112 18.820536
11.114330 24.633602 18.820536
9.728510 25.004931 18.820536
8.342691 24.633602 18.820536
7.328201 23.619112 18.820536
6.956872 22.233293 18.820536
7.328201 20.847473 18.820536
8.342691 19.832983 18.820536
9.728510 19.461654 18.820536
11.114330 19.832983 18.820536
12.128820 20.847473 18.820536
11.849831 22.233293 17.847266
11.565628 23.293953 17.847266
10.789171 24.070410 17.847266
9.728510 24.354613 17.847266
8.667850 24.070410 17.847266
7.891393 23.293953 17.847266
7.607190 22.233293 17.847266
7.891393 21.172633 17.847266
8.667850 20.396175 17.847266
9.728510 20.111972 17.847266
10.789171 20.396175 17.847266
11.565628 21.172633 17.847266
10.876561 22.233293 17.196948
10.722751 22.807318 17.196948
10.302536 23.227533 17.196948
9.728510 23.381343 17.196948
9.154485 23.227533 17.196948
8.734270 22.807318 17.196948
8.580460 22.233293 17.196948
8.734270 21.659268 17.196948
9.154485 21.239052 17.196948
9.728510 21.085242 17.196948
10.302536 21.239052 17.196948
10.722751 21.659268 17.196948
9.728510 22.233293 16.968586
16.766400 -20.336681 0.391103
17.914450 -20.336681 0.162742
17.760640 -19.762655 0.162742
17.340425 -19.342440 0.162742
16.766400 -19.188630 0.162742
16.192375 -19.342440 0.162742
15.772159 -19.762655 0.162742
15.618349 -20.336681 0.162742
15.772159 -20.910706 0.162742
16.192375 -21.330921 0.162742
16.766400 -21.484731 0.162742
17.340425 -21.330921 0.162742
17.760640 -20.910706 0.162742
18.887720 -20.336681 -0.487576
18.603517 -19.276020 -0.487576
17.827060 -18.499563 -0.487576
16.766400 -18.215360 -0.487576
15.705739 -18.499563 -0.487576
14.929282 -19.276020 -0.487576
14.645079 -20.336681 -0.487576
14.929282 -21.397341 -0.487576
15.705739 -22.173798 -0.487576
16.766400 -22.458001 -0.487576
17.827060 -22.173798 -0.487576
18.603517 -21.397341 -0.487576
19.538038 -20.336681 -1.460846
19.166709 -18.950861 -1.460846
18.152219 -17.936371 -1.460846
16.766400 -17.565042 -1.460846
15.380580 -17.936371 -1.460846
14.366090 -18.950861 -1.460846
13.994761 -20.336681 -1.460846
14.366090 -21.722500 -1.460846
15.380580 -22.736990 -1.460846
16.766400 -23.108319 -1.460846
18.152219 -22.736990 -1.460846
19.166709 -21.722500 -1.460846
19.766400 -20.336681 -2.608897
19.364476 -18.836681 -2.608897
18.266400 -17.738604 -2.608897
16.766400 -17.336681 -2.608897
15.266400 -17.738604 -2.608897
14.168323 -18.836681 -2.608897
13.766400 -20.336681 -2.608897
14.168323 -21.836681 -2.608897
15.266400 -22.934757 -2.608897
16.766400 -23.336681 -2.608897
18.266400 -22.934757 -2.608897
19.364476 -21.836681 -2.608897
19.538038 -20.336681 -3.756947
19.166709 -18.950861 -3.756947
18.152219 -17.936371 -3.756947
16.766400 -17.565042 -3.756947
15.380580 -17.936371 -3.756947
14.366090 -18.950861 -3.756947
13.994761 -20.336681 -3.756947
14.366090 -21.722500 -3.756947
15.380580 -22.736990 -3.756947
16.766400 -23.108319 -3.756947
18.152219 -22.736990 -3.756947
19.166709 -21.722500 -3.756947
18.887720 -20.336681 -4.730217
18.603517 -19.276020 -4.730217
17.827060 -18.499563 -4.730217
16.766400 -18.215360 -4.730217
15.705739 -18.499563 -4.730217
14.929282 -19.276020 -4.730217
14.645079 -20.336681 -4.730217
14.929282 -21.397341 -4.730217
15.705739 -22.173798 -4.730217
16.766400 -22.458001 -4.730217
17.827060 -22.173798 -4.730217
18.603517 -21.397341 -4.730217
17.914450 -20.336681 -5.380535
17.760640 -19.762655 -5.380535
17.340425 -19.342440 -5.380535
16.766400 -19.188630 -5.380535
16.192375 -19.342440 -5.380535
15.772159 -19.762655 -5.380535
15.618349 -20.336681 -5.380535
15.772159 -20.910706 -5.380535
16.192375 -21.330921 -5.380535
16.766400 -21.484731 -5.380535
17.340425 -21.330921 -5.380535
17.760640 -20.910706 -5.380535
16.766400 -20.336681 -5.608897
20.882887 9.032137 9.592935
22.030938 9.032137 9.364573
21.877128 9.606162 9.364573
21.456912 10.026377 9.364573
20.882887 10.180187 9.364573
20.308862 10.026377 9.364573
19.888647 9.606162 9.364573
19.734837 9.032137 9.364573
19.888647 8.458111 9.364573
20.308862 8.037896 9.364573
20.882887 7.884086 9.364573
21.456912 8.037896 9.364573
21.877128 8.458111 9.364573
23.004208 9.032137 8.714255
22.720005 10.092797 8.714255
21.943547 10.869254 8.714255
20.882887 11.153457 8.714255
19.822227 10.869254 8.714255
19.045770 10.092797 8.714255
18.761567 9.032137 8.714255
19.045770 7.971476 8.714255
19.822227 7.195019 8.714255
20.882887 6.910816 8.714255
21.943547 7.195019 8.714255
22.720005 7.971476 8.714255
23.654526 9.032137 7.740985
23.283197 10.417956 7.740985
22.268707 11.432446 7.740985
20.882887 11.803775 7.740985
19.497068 11.432446 7.740985
18.482578 10.417956 7.740985
18.111249 9.032137 7.740985
18.482578 7.646317 7.740985
19.497068 6.631827 7.740985
20.882887 6.260498 7.740985
22.268707 6.631827 7.740985
23.283197 7.646317 7.740985
23.882887 9.032137 6.592935
23.480963 10.532137 6.592935
22.382887 11.630213 6.592935
20.882887 12.032137 6.592935
19.382887 11.630213 6.592935
18.284811 10.532137 6.592935
17.882887 9.032137 6.592935
18.284811 7.532137 6.592935
19.382887 6.434060 6.592935
20.882887 6.032137 6.592935
22.382887 6.434060 6.592935
23.480963 7.532137 6.592935
23.654526 9.032137 5.444884
23.283197 10.417956 5.444884
22.268707 11.432446 5.444884
20.882887 11.803775 5.444884
19.497068 11.432446 5.444884
18.482578 10.417956 5.444884
18.111249 9.032137 5.444884
18.482578 7.646317 5.444884
19.497068 6.631827 5.444884
20.882887 6.260498 5.444884
22.268707 6.631827 5.444884
23.283197 7.646317 5.444884
23.004208 9.032137 4.471614
22.720005 10.092797 4.471614
21.943547 10.869254 4.471614
20.882887 11.153457 4.471614
19.822227 10.869254 4.471614
19.045770 10.092797 4.471614
18.761567 9.032137 4.471614
19.045770 7.971476 4.471614
19.822227 7.195019 4.471614
20.882887 6.910816 4.471614
21.943547 7.195019 4.471614
22.720005 7.971476 4.471614
22.030938 9.032137 3.821296
21.877128 9.606162 3.821296
21.456912 10.026377 3.821296
20.882887 10.180187 3.821296
20.308862 10.026377 3.821296
19.888647 9.606162 3.821296
19.734837 9.032137 3.821296
19.888647 8.458111 3.821296
20.308862 8.037896 3.821296
20.882887 7.884086 3.821296
21.456912 8.037896 3.821296
21.877128 8.458111 3.821296
20.882887 9.032137 3.592935
-7.700847 -16.452118 -7.250113
-6.552797 -16.452118 -7.478475
-6.706607 -15.878093 -7.478475
-7.126822 -15.457878 -7.478475
-7.700847 -15.304068 -7.478475
-8.274872 -15.457878 -7.478475
-8.695088 -15.878093 -7.478475
-8.848898 -16.452118 -7.478475
-8.695088 -17.026144 -7.478475
-8.274872 -17.446359 -7.478475
-7.700847 -17.600169 -7.478475
-7.126822 -17.446359 -7.478475
-6.706607 -17.026144 -7.478475
-5.579527 -16.452118 -8.128793
-5.863730 -15.391458 -8.128793
-6.640187 -14.615001 -8.128793
-7.700847 -14.330798 -8.128793
-8.761507 -14.615001 -8.128793
-9.537965 -15.391458 -8.128793
-9.822168 -16.452118 -8.128793
-9.537965 -17.512779 -8.128793
-8.761507 -18.289236 -8.128793
-7.700847 -18.573439 -8.128793
-6.640187 -18.289236 -8.128793
-5.863730 -17.512779 -8.128793
-4.929209 -16.452118 -9.102063
-5.300538 -15.066299 -9.102063
-6.315028 -14.051809 -9.102063
-7.700847 -13.680480 -9.102063
-9.086667 -14.051809 -9.102063
-10.101157 -15.066299 -9.102063
-10.472486 -16.452118 -9.102063
-10.101157 -17.837938 -9.102063
-9.086667 -18.852428 -9.102063
-7.700847 -19.223757 -9.102063
-6.315028 -18.852428 -9.102063
-5.300538 -17.837938 -9.102063
-4.700847 -16.452118 -10.250113
-5.102771 -14.952118 -10.250113
-6.200847 -13.854042 -10.250113
-7.700847 -13.452118 -10.250113
-9.200847 -13.854042 -10.250113
-10.298924 -14.952118 -10.250113
-10.700847 -16.452118 -10.250113
-10.298924 -17.952118 -10.250113
-9.200847 -19.050195 -10.250113
-7.700847 -19.452118 -10.250113
-6.200847 -19.050195 -10.250113
-5.102771 -17.952118 -10.250113
-4.929209 -16.452118 -11.398164
-5.300538 -15.066299 -11.398164
-6.315028 -14.051809 -11.398164
-7.700847 -13.680480 -11.398164
-9.086667 -14.051809 -11.398164
-10.101157 -15.066299 -11.398164
-10.472486 -16.452118 -11.398164
-10.101157 -17.837938 -11.398164
-9.086667 -18.852428 -11.398164
-7.700847 -19.223757 -11.398164
-6.315028 -18.852428 -11.398164
-5.300538 -17.837938 -11.398164
-5.579527 -16.452118 -12.371434
-5.863730 -15.391458 -12.371434
-6.640187 -14.615001 -12.371434
-7.700847 -14.330798 -12.371434
-8.761507 -14.615001 -12.371434
-9.537965 -15.391458 -12.371434
-9.822168 -16.452118 -12.371434
-9.537965 -17.512779 -12.371434
-8.761507 -18.289236 -12.371434
-7.700847 -18.573439 -12.371434
-6.640187 -18.289236 -12.371434
-5.863730 -17.512779 -12.371434
-6.552797 -16.452118 -13.021752
-6.706607 -15.878093 -13.021752
-7.126822 -15.457878 -13.021752
-7.700847 -15.304068 -13.021752
-8.274872 -15.457878 -13.021752
-8.695088 -15.878093 -13.021752
-8.848898 -16.452118 -13.021752
-8.695088 -17.026144 -13.021752
-8.274872 -17.446359 -13.021752
-7.700847 -17.600169 -13.021752
-7.126822 -17.446359 -13.021752
-6.706607 -17.026144 -13.021752
-7.700847 -16.452118 -13.250113
0.314293 18.364456 1.335575
1.462343 18.364456 1.107214
1.308534 18.938482 1.107214
0.888318 19.358697 1.107214
0.314293 19.512507 1.107214
-0.259732 19.358697 1.107214
-0.679948 18.938482 1.107214
-0.833758 18.364456 1.107214
-0.679948 17.790431 1.107214
-0.259732 17.370216 1.107214
0.314293 17.216406 1.107214
0.888318 17.370216 1.107214
1.308534 17.790431 1.107214
2.435613 18.364456 0.456896
2.151410 19.425117 0.456896
1.374953 20.201574 0.456896
0.314293 20.485777 0.456896
-0.746367 20.201574 0.456896
-1.522825 19.425117 0.456896
-1.807028 18.364456 0.456896
-1.522825 17.303796 0.456896
-0.746367 16.527339 0.456896
0.314293 16.243136 0.456896
1.374953 16.527339 0.456896
2.151410 17.303796 0.456896
3.085931 18.364456 -0.516374
2.714602 19.750276 -0.516374
1.700112 20.764766 -0.516374
0.314293 21.136095 -0.516374
-1.071527 20.764766 -0.516374
-2.086017 19.750276 -0.516374
-2.457346 18.364456 -0.516374
-2.086017 16.978637 -0.516374
-1.071527 15.964147 -0.516374
0.314293 15.592818 -0.516374
1.700112 15.964147 -0.516374
2.714602 16.978637 -0.516374
3.314293 18.364456 -1.664425
2.912369 19.864456 -1.664425
1.814293 20.962533 -1.664425
0.314293 21.364456 -1.664425
-1.185707 20.962533 -1.664425
-2.283783 19.864456 -1.664425
-2.685707 18.364456 -1.664425
-2.283783 16.864456 -1.664425
-1.185707 15.766380 -1.664425
0.314293 15.364456 -1.664425
1.814293 15.766380 -1.664425
2.912369 16.864456 -1.664425
3.085931 18.364456 -2.812475
2.714602 19.750276 -2.812475
1.700112 20.764766 -2.812475
0.314293 21.136095 -2.812475
-1.071527 20.764766 -2.812475
-2.086017 19.750276 -2.812475
-2.457346 18.364456 -2.812475
-2.086017 16.978637 -2.812475
-1.071527 15.964147 -2.812475
0.314293 15.592818 -2.812475
1.700112 15.964147 -2.812475
2.714602 16.978637 -2.812475
2.435613 18.364456 -3.785745
2.151410 19.425117 -3.785745
1.374953 20.201574 -3.785745
0.314293 20.485777 -3.785745
-0.746367 20.201574 -3.785745
-1.522825 19.425117 -3.785745
-1.807028 18.364456 -3.785745
-1.522825 17.303796 -3.785745
-0.746367 16.527339 -3.785745
0.314293 16.243136 -3.785745
1.374953 16.527339 -3.785745
2.151410 17.303796 -3.785745
1.462343 18.364456 -4.436063
1.308534 18.938482 -4.436063
0.888318 19.358697 -4.436063
0.314293 19.512507 -4.436063
-0.259732 19.358697 -4.436063
-0.679948 18.938482 -4.436063
-0.833758 18.364456 -4.436063
-0.679948 17.790431 -4.436063
-0.259732 17.370216 -4.436063
0.314293 17.216406 -4.436063
0.888318 17.370216 -4.436063
1.308534 17.790431 -4.436063
0.314293 18.364456 -4.664425
21.340887 -20.159457 29.021152
22.488937 -20.159457 28.792791
22.335128 -19.585432 28.792791
21.914912 -19.165216 28.792791
21.340887 -19.011407 28.792791
20.766862 -19.165216 28.792791
20.346646 -19.585432 28.792791
20.192837 -20.159457 28.792791
20.346646 -20.733482 28.792791
20.766862 -21.153698 28.792791
21.340887 -21.307507 28.792791
21.914912 -21.153698 28.792791
22.335128 -20.733482 28.792791
23.462207 -20.159457 28.142473
23.178004 -19.098797 28.142473
22.401547 -18.322340 28.142473
21.340887 -18.038136 28.142473
20.280227 -18.322340 28.142473
19.503770 -19.098797 28.142473
19.219567 -20.159457 28.142473
19.503770 -21.220117 28.142473
20.280227 -21.996574 28.142473
21.340887 -22.280777 28.142473
22.401547 -21.996574 28.142473
23.178004 -21.220117 28.142473
24.112525 -20.159457 27.169203
23.741196 -18.773638 27.169203
22.726706 -17.759147 27.169203
21.340887 -17.387818 27.169203
19.955068 -17.759147 27.169203
18.940577 -18.773638 27.169203
18.569248 -20.159457 27.169203
18.940577 -21.545276 27.169203
19.955068 -22.559766 27.169203
21.340887 -22.931095 27.169203
22.726706 -22.559766 27.169203
23.741196 -21.545276 27.169203
24.340887 -20.159457 26.021152
23.938963 -18.659457 26.021152
22.840887 -17.561381 26.021152
21.340887 -17.159457 26.021152
19.840887 -17.561381 26.021152
18.742811 -18.659457 26.021152
18.340887 -20.159457 26.021152
18.742811 -21.659457 26.021152
19.840887 -22.757533 26.021152
21.340887 -23.159457 26.021152
22.840887 -22.757533 26.021152
23.938963 -21.659457 26.021152
24.112525 -20.159457 24.873102
23.741196 -18.773638 24.873102
22.726706 -17.759147 24.873102
21.340887 -17.387818 24.873102
19.955068 -17.759147 24.873102
18.940577 -18.773638 24.873102
18.569248 -20.159457 24.873102
18.940577 -21.545276 24.873102
19.955068 -22.559766 24.873102
21.340887 -22.931095 24.873102
22.726706 -22.559766 24.873102
23.741196 -21.545276 24.873102
23.462207 -20.159457 23.899832
23.178004 -19.098797 23.899832
22.401547 -18.322340 23.899832
21.340887 -18.038136 23.899832
20.280227 -18.322340 23.899832
19.503770 -19.098797 23.899832
19.219567 -20.159457 23.899832
19.503770 -21.220117 23.899832
20.280227 -21.996574 23.899832
21.340887 -22.280777 23.899832
22.401547 -21.996574 23.899832
23.178004 -21.220117 23.899832
22.488937 -20.159457 23.249514
22.335128 -19.585432 23.249514
21.914912 -19.165216 23.249514
21.340887 -19.011407 23.249514
20.766862 -19.165216 23.249514
20.346646 -19.585432 23.249514
20.192837 -20.159457 23.249514
20.346646 -20.733482 23.249514
20.766862 -21.153698 23.249514
21.340887 -21.307507 23.249514
21.914912 -21.153698 23.249514
22.335128 -20.733482 23.249514
21.340887 -20.159457 23.021152
27.561063 4.939937 36.831315
28.709113 4.939937 36.602954
28.555303 5.513962 36.602954
28.135088 5.934178 36.602954
27.561063 6.087987 36.602954
26.987037 5.934178 36.602954
26.566822 5.513962 36.602954
26.413012 4.939937 36.602954
26.566822 4.365912 36.602954
26.987037 3.945696 36.602954
27.561063 3.791887 36.602954
28.135088 3.945696 36.602954
28.555303 4.365912 36.602954
29.682383 4.939937 35.952635
29.398180 6.000597 35.952635
28.621723 6.777054 35.952635
27.561063 7.061257 35.952635
26.500402 6.777054 35.952635
25.723945 6.000597 35.952635
25.439742 4.939937 35.952635
25.723945 3.879277 35.952635
26.500402 3.102820 35.952635
27.561063 2.818617 35.952635
28.621723 3.102820 35.952635
29.398180 3.879277 35.952635
30.332701 4.939937 34.979365
29.961372 6.325756 34.979365
28.946882 7.340246 34.979365
27.561063 7.711575 34.979365
26.175243 7.340246 34.979365
25.160753 6.325756 34.979365
24.789424 4.939937 34.979365
25.160753 3.554118 34.979365
26.175243 2.539627 34.979365
27.561063 2.168298 34.979365
28.946882 2.539627 34.979365
29.961372 3.554118 34.979365
30.561063 4.939937 33.831315
30.159139 6.439937 33.831315
29.061063 7.538013 33.831315
27.561063 7.939937 33.831315
26.061063 7.538013 33.831315
24.962986 6.439937 33.831315
24.561063 4.939937 33.831315
24.962986 3.439937 33.831315
26.061063 2.341861 33.831315
27.561063 1.939937 33.831315
29.061063 2.341861 33.831315
30.159139 3.439937 33.831315
30.332701 4.939937 32.683265
29.961372 6.325756 32.683265
28.946882 7.340246 32.683265
27.561063 7.711575 32.683265
26.175243 7.340246 32.683265
25.160753 6.325756 32.683265
24.789424 4.939937 32.683265
25.160753 3.554118 32.683265
26.175243 2.539627 32.683265
27.561063 2.168298 32.683265
28.946882 2.539627 32.683265
29.961372 3.554118 32.683265
29.682383 4.939937 31.709995
29.398180 6.000597 31.709995
28.621723 6.777054 31.709995
27.561063 7.061257 31.709995
26.500402 6.777054 31.709995
25.723945 6.000597 31.709995
25.439742 4.939937 31.709995
25.723945 3.879277 31.709995
26.500402 3.102820 31.709995
27.561063 2.818617 31.709995
28.621723 3.102820 31.709995
29.398180 3.879277 31.709995
28.709113 4.939937 31.059676
28.555303 5.513962 31.059676
28.135088 5.934178 31.059676
27.561063 6.087987 31.059676
26.987037 5.934178 31.059676
26.566822 5.513962 31.059676
26.413012 4.939937 31.059676
26.566822 4.365912 31.059676
26.987037 3.945696 31.059676
27.561063 3.791887 31.059676
28.135088 3.945696 31.059676
28.555303 4.365912 31.059676
27.561063 4.939937 30.831315
-17.773820 -19.315826 11.381985
-16.625770 -19.315826 11.153624
-16.779579 -18.741801 11.153624
-17.199795 -18.321585 11.153624
-17.773820 -18.167776 11.153624
-18.347845 -18.321585 11.153624
-18.768061 -18.741801 11.153624
-18.921870 -19.315826 11.153624
-18.768061 -19.889851 11.153624
-18.347845 -20.310067 11.153624
-17.773820 -20.463876 11.153624
-17.199795 -20.310067 11.153624
-16.779579 -19.889851 11.153624
-15.652500 -19.315826 10.503305
-15.936703 -18.255166 10.503305
-16.713160 -17.478709 10.503305
-17.773820 -17.194506 10.503305
-18.834480 -17.478709 10.503305
-19.610937 -18.255166 10.503305
-19.895140 -19.315826 10.503305
-19.610937 -20.376486 10.503305
-18.834480 -21.152943 10.503305
-17.773820 -21.437146 10.503305
-16.713160 -21.152943 10.503305
-15.936703 -20.376486 10.503305
-15.002181 -19.315826 9.530035
-15.373511 -17.930007 9.530035
-16.388001 -16.915517 9.530035
-17.773820 -16.544187 9.530035
-19.159639 -16.915517 9.530035
-20.174129 -17.930007 9.530035
-20.545459 -19.315826 9.530035
-20.174129 -20.701645 9.530035
-19.159639 -21.716135 9.530035
-17.773820 -22.087465 9.530035
-16.388001 -21.716135 9.530035
-15.373511 -20.701645 9.530035
-14.773820 -19.315826 8.381985
-15.175744 -17.815826 8.381985
-16.273820 -16.717750 8.381985
-17.773820 -16.315826 8.381985
-19.273820 -16.717750 8.381985
-20.371896 -17.815826 8.381985
-20.773820 -19.315826 8.381985
-20.371896 -20.815826 8.381985
-19.273820 -21.913902 8.381985
-17.773820 -22.315826 8.381985
-16.273820 -21.913902 8.381985
-15.175744 -20.815826 8.381985
-15.002181 -19.315826 7.233935
-15.373511 -17.930007 7.233935
-16.388001 -16.915517 7.233935
-17.773820 -16.544187 7.233935
-19.159639 -16.915517 7.233935
-20.174129 -17.930007 7.233935
-20.545459 -19.315826 7.233935
-20.174129 -20.701645 7.233935
-19.159639 -21.716135 7.233935
-17.773820 -22.087465 7.233935
-16.388001 -21.716135 7.233935
-15.373511 -20.701645 7.233935
-15.652500 -19.315826 6.260665
-15.936703 -18.255166 6.260665
-16.713160 -17.478709 6.260665
-17.773820 -17.194506 6.260665
-18.834480 -17.478709 6.260665
-19.610937 -18.255166 6.260665
-19.895140 -19.315826 6.260665
-19.610937 -20.376486 6.260665
-18.834480 -21.152943 6.260665
-17.773820 -21.437146 6.260665
-16.713160 -21.152943 6.260665
-15.936703 -20.376486 6.260665
-16.625770 -19.315826 5.610346
-16.779579 -18.741801 5.610346
-17.199795 -18.321585 5.610346
-17.773820 -18.167776 5.610346
-18.347845 -18.321585 5.610346
-18.768061 -18.741801 5.610346
-18.921870 -19.315826 5.610346
-18.768061 -19.889851 5.610346
-18.347845 -20.310067 5.610346
-17.773820 -20.463876 5.610346
-17.199795 -20.310067 5.610346
-16.779579 -19.889851 5.610346
-17.773820 -19.315826 5.381985
-11.886647 15.110290 16.479837
-10.738597 15.110290 16.251476
-10.892407 15.684316 16.251476
-11.312622 16.104531 16.251476
-11.886647 16.258341 16.251476
-12.460673 16.104531 16.251476
-12.880888 15.684316 16.251476
-13.034698 15.110290 16.251476
-12.880888 14.536265 16.251476
-12.460673 14.116050 16.251476
-11.886647 13.962240 16.251476
-11.312622 14.116050 16.251476
-10.892407 14.536265 16.251476
-9.765327 15.110290 15.601157
-10.049530 16.170951 15.601157
-10.825987 16.947408 15.601157
-11.886647 17.231611 15.601157
-12.947308 16.947408 15.601157
-13.723765 16.170951 15.601157
-14.007968 15.110290 15.601157
-13.723765 14.049630 15.601157
-12.947308 13.273173 15.601157
-11.886647 12.988970 15.601157
-10.825987 13.273173 15.601157
-10.049530 14.049630 15.601157
-9.115009 15.110290 14.627887
-9.486338 16.496110 14.627887
-10.500828 17.510600 14.627887
-11.886647 17.881929 14.627887
-13.272467 17.510600 14.627887
-14.286957 16.496110 14.627887
-14.658286 15.110290 14.627887
-14.286957 13.724471 14.627887
-13.272467 12.709981 14.627887
-11.886647 12.338652 14.627887
-10.500828 12.709981 14.627887
-9.486338 13.724471 14.627887
-8.886647 15.110290 13.479837
-9.288571 16.610290 13.479837
-10.386647 17.708367 13.479837
-11.886647 18.110290 13.479837
-13.386647 17.708367 13.479837
-14.484724 16.610290 13.479837
-14.886647 15.110290 13.479837
-14.484724 13.610290 13.479837
-13.386647 12.512214 13.479837
-11.886647 12.110290 13.479837
-10.386647 12.512214 13.479837
-9.288571 13.610290 13.479837
-9.115009 15.110290 12.331787
-9.486338 16.496110 12.331787
-10.500828 17.510600 12.331787
-11.886647 17.881929 12.331787
-13.272467 17.510600 12.331787
-14.286957 16.496110 12.331787
-14.658286 15.110290 12.331787
-14.286957 13.724471 12.331787
-13.272467 12.709981 12.331787
-11.886647 12.338652 12.331787
-10.500828 12.709981 12.331787
-9.486338 13.724471 12.331787
-9.765327 15.110290 11.358517
-10.049530 16.170951 11.358517
-10.825987 16.947408 11.358517
-11.886647 17.231611 11.358517
-12.947308 16.947408 11.358517
-13.723765 16.170951 11.358517
-14.007968 15.110290 11.358517
-13.723765 14.049630 11.358517
-12.947308 13.273173 11.358517
-11.886647 12.988970 11.358517
-10.825987 13.273173 11.358517
-10.049530 14.049630 11.358517
-10.738597 15.110290 10.708199
-10.892407 15.684316 10.708199
-11.312622 16.104531 10.708199
-11.886647 16.258341 10.708199
-12.460673 16.104531 10.708199
-12.880888 15.684316 10.708199
-13.034698 15.110290 10.708199
-12.880888 14.536265 10.708199
-12.460673 14.116050 10.708199
-11.886647 13.962240 10.708199
-11.312622 14.116050 10.708199
-10.892407 14.536265 10.708199
-11.886647 15.110290 10.479837
317.099114 nan nan
318.247164 nan nan
318.093354 nan nan
317.673139 nan nan
317.099114 nan nan
316.525088 nan nan
316.104873 nan nan
315.951063 nan nan
316.104873 nan nan
316.525088 nan nan
317.099114 nan nan
317.673139 nan nan
318.093354 nan nan
319.220434 nan nan
318.936231 nan nan
318.159774 nan nan
317.099114 nan nan
316.038453 nan nan
315.261996 nan nan
314.977793 nan nan
315.261996 nan nan
316.038453 nan nan
317.099114 nan nan
318.159774 nan nan
318.936231 nan nan
319.870752 nan nan
319.499423 nan nan
318.484933 nan nan
317.099114 nan nan
315.713294 nan nan
314.698804 nan nan
314.327475 nan nan
314.698804 nan nan
315.713294 nan nan
317.099114 nan nan
318.484933 nan nan
319.499423 nan nan
320.099114 nan nan
319.697190 nan nan
318.599114 nan nan
317.099114 nan nan
315.599114 nan nan
314.501037 nan nan
314.099114 nan nan
314.501037 nan nan
315.599114 nan nan
317.099114 nan nan
318.599114 nan nan
319.697190 nan nan
319.870752 nan nan
319.499423 nan nan
318.484933 nan nan
317.099114 nan nan
315.713294 nan nan
314.698804 nan nan
314.327475 nan nan
314.698804 nan nan
315.713294 nan nan
317.099114 nan nan
318.484933 nan nan
319.499423 nan nan
319.220434 nan nan
318.936231 nan nan
318.159774 nan nan
317.099114 nan nan
316.038453 nan nan
315.261996 nan nan
314.977793 nan nan
315.261996 nan nan
316.038453 nan nan
317.099114 nan nan
318.159774 nan nan
318.936231 nan nan
318.247164 nan nan
318.093354 nan nan
317.673139 nan nan
317.099114 nan nan
316.525088 nan nan
316.104873 nan nan
315.951063 nan nan
316.104873 nan nan
316.525088 nan nan
317.099114 nan nan
317.673139 nan nan
318.093354 nan nan
317.099114 nan nan
59.968863 nan nan
61.116914 nan nan
60.963104 nan nan
60.542888 nan nan
59.968863 nan nan
59.394838 nan nan
58.974623 nan nan
58.820813 nan nan
58.974623 nan nan
59.394838 nan nan
59.968863 nan nan
60.542888 nan nan
60.963104 nan nan
62.090184 nan nan
61.805981 nan nan
61.029523 nan nan
59.968863 nan nan
58.908203 nan nan
58.131746 nan nan
57.847543 nan nan
58.131746 nan nan
58.908203 nan nan
59.968863 nan nan
61.029523 nan nan
61.805981 nan nan
62.740502 nan nan
62.369173 nan nan
61.354683 nan nan
59.968863 nan nan
58.583044 nan nan
57.568554 nan nan
57.197225 nan nan
57.568554 nan nan
58.583044 nan nan
59.968863 nan nan
61.354683 nan nan
62.369173 nan nan
62.968863 nan nan
62.566940 nan nan
61.468863 nan nan
59.968863 nan nan
58.468863 nan nan
57.370787 nan nan
56.968863 nan nan
57.370787 nan nan
58.468863 nan nan
59.968863 nan nan
61.468863 nan nan
62.566940 nan nan
62.740502 nan nan
62.369173 nan nan
61.354683 nan nan
59.968863 nan nan
58.583044 nan nan
57.568554 nan nan
57.197225 nan nan
57.568554 nan nan
58.583044 nan nan
59.968863 nan nan
61.354683 nan nan
62.369173 nan nan
62.090184 nan nan
61.805981 nan nan
61.029523 nan nan
59.968863 nan nan
58.908203 nan nan
58.131746 nan nan
57.847543 nan nan
58.131746 nan nan
58.908203 nan nan
59.968863 nan nan
61.029523 nan nan
61.805981 nan nan
61.116914 nan nan
60.963104 nan nan
60.542888 nan nan
59.968863 nan nan
59.394838 nan nan
58.974623 nan nan
58.820813 nan nan
58.974623 nan nan
59.394838 nan nan
59.968863 nan nan
60.542888 nan nan
60.963104 nan nan
59.968863 nan nan
46.717788 nan nan
47.865838 nan nan
47.712029 nan nan
47.291813 nan nan
46.717788 nan nan
46.143763 nan nan
45.723547 nan nan
45.569738 nan nan
45.723547 nan nan
46.143763 nan nan
46.717788 nan nan
47.291813 nan nan
47.712029 nan nan
48.839108 nan nan
48.554905 nan nan
47.778448 nan nan
46.717788 nan nan
45.657128 nan nan
44.880671 nan nan
44.596468 nan nan
44.880671 nan nan
45.657128 nan nan
46.717788 nan nan
47.778448 nan nan
48.554905 nan nan
49.489427 nan nan
49.118097 nan nan
48.103607 nan nan
46.717788 nan nan
45.331969 nan nan
44.317479 nan nan
43.946149 nan nan
44.317479 nan nan
45.331969 nan nan
46.717788 nan nan
48.103607 nan nan
49.118097 nan nan
49.717788 nan nan
49.315864 nan nan
48.217788 nan nan
46.717788 nan nan
45.217788 nan nan
44.119712 nan nan
43.717788 nan nan
44.119712 nan nan
45.217788 nan nan
46.717788 nan nan
48.217788 nan nan
49.315864 nan nan
49.489427 nan nan
49.118097 nan nan
48.103607 nan nan
46.717788 nan nan
45.331969 nan nan
44.317479 nan nan
43.946149 nan nan
44.317479 nan nan
45.331969 nan nan
46.717788 nan nan
48.103607 nan nan
49.118097 nan nan
48.839108 nan nan
48.554905 nan nan
47.778448 nan nan
46.717788 nan nan
45.657128 nan nan
44.880671 nan nan
44.596468 nan nan
44.880671 nan nan
45.657128 nan nan
46.717788 nan nan
47.778448 nan nan
48.554905 nan nan
47.865838 nan nan
47.712029 nan nan
47.291813 nan nan
46.717788 nan nan
46.143763 nan nan
45.723547 nan nan
45.569738 nan nan
45.723547 nan nan
46.143763 nan nan
46.717788 nan nan
47.291813 nan nan
47.712029 nan nan
46.717788 nan nan
3 0 1 2
3 0 2 3
3 0 3 4
3 0 4 5
3 0 5 6
3 0 6 7
3 0 7 8
3 0 8 9
3 0 9 10
3 0 10 11
3 0 11 12
3 0 12 1
3 1 13 2
3 2 13 14
3 2 14 3
3 3 14 15
3 3 15 4
3 4 15 16
3 4 16 5
3 5 16 17
3 5 17 6
3 6 17 18
3 6 18 7
3 7 18 19
3 7 19 8
3 8 19 20
3 8 20 9
3 9 20 21
3 9 21 10
3 10 21 22
3 10 22 11
3 11 22 23
3 11 23 12
3 12 23 24
3 12 24 1
3 1 24 13
3 13 25 14
3 14 25 26
3 14 26 15
3 15 26 27
3 15 27 16
3 16 27 28
3 16 28 17
3 17 28 29
3 17 29 18
3 18 29 30
3 18 30 19
3 19 30 31
3 19 31 20
3 20 31 32
3 20 32 21
3 21 32 33
3 21 33 22
3 22 33 34
3 22 34 23
3 23 34 35
3 23 35 24
3 24 35 36
3 24 36 13
3 13 36 25
3 25 37 26
3 26 37 38
3 26 38 27
3 27 38 39
3 27 39 28
3 28 39 40
3 28 40 29
3 29 40 41
3 29 41 30
3 30 41 42
3 30 42 31
3 31 42 43
3 31 43 32
3 32 43 44
3 32 44 33
3 33 44 45
3 33 45 34
3 34 45 46
3 34 46 35
3 35 46 47
3 35 47 36
3 36 47 48
3 36 48 25
3 25 48 37
3 37 49 38
3 38 49 50
3 38 50 39
3 39 50 51
3 39 51 40
3 40 51 52
3 40 52 41
3 41 52 53
3 41 53 42
3 42 53 54
3 42 54 43
3 43 54 55
3 43 55 44
3 44 55 56
3 44 56 45
3 45 56 57
3 45 57 46
3 46 57 58
3 46 58 47
3 47 58 59
3 47 59 48
3 48 59 60
3 48 60 37
3 37 60 49
3 49 61 50
3 50 61 62
3 50 62 51
3 51 62 63
3 51 63 52
3 52 63 64
3 52 64 53
3 53 64 65
3 53 65 54
3 54 65 66
3 54 66 55
3 55 66 67
3 55 67 56
3 56 67 68
3 56 68 57
3 57 68 69
3 57 69 58
3 58 69 70
3 58 70 59
3 59 70 71
3 59 71 60
3 60 71 72
3 60 72 49
3 49 72 61
3 61 73 62
3 62 73 74
3 62 74 63
3 63 74 75
3 63 75 64
3 64 75 76
3 64 76 65
3 65 76 77
3 65 77 66
3 66 77 78
3 66 78 67
3 67 78 79
3 67 79 68
3 68 79 80
3 68 80 69
3 69 80 81
3 69 81 70
3 70 81 82
3 70 82 71
3 71 82 83
3 71 83 72
3 72 83 84
3 72 84 61
3 61 84 73
3 85 74 73
3 85 75 74
3 85 76 75
3 85 77 76
3 85 78 77
3 85 79 78
3 85 80 79
3 85 81 80
3 85 82 81
3 85 83 82
3 85 84 83
3 85 73 84
3 86 87 88
3 86 88 89
3 86 89 90
3 86 90 91
3 86 91 92
3 86 92 93
3 86 93 94
3 86 94 95
3 86 95 96
3 86 96 97
3 86 97 98
3 86 98 87
3 87 99 88
3 88 99 100
3 88 100 89
3 89 100 101
3 89 101 90
3 90 101 102
3 90 102 91
3 91 102 103
3 91 103 92
3 92 103 104
3 92 104 93
3 93 104 105
3 93 105 94
3 94 105 106
3 94 106 95
3 95 106 107
3 95 107 96
3 96 107 108
3 96 108 97
3 97 108 109
3 97 109 98
3 98 109 110
3 98 110 87
3 87 110 99
3 99 111 100
3 100 111 112
3 100 112 101
3 101 112 113
3 101 113 102
3 102 113 114
3 102 114 103
3 103 114 115
3 103 115 104
3 104 115 116
3 104 116 105
3 105 116 117
3 105 117 106
3 106 117 118
3 106 118 107
3 107 118 119
3 107 119 108
3 108 119 120
3 108 120 109
3 109 120 121
3 109 121 110
3 110 121 122
3 110 122 99
3 99 122 111
3 111 123 112
3 112 123 124
3 112 124 113
3 113 124 125
3 113 125 114
3 114 125 126
3 114 126 115
3 115 126 127
3 115 127 116
3 116 127 128
3 116 128 117
3 117 128 129
3 117 129 118
3 118 129 130
3 118 130 119
3 119 130 131
3 119 131 120
3 120 131 132
3 120 132 121
3 121 132 133
3 121 133 122
3 122 133 134
3 122 134 111
3 111 134 123
3 123 135 124
3 124 135 136
3 124 136 125
3 125 136 137
3 125 137 126
3 126 137 138
3 126 138 127
3 127 138 139
3 127 139 128
3 128 139 140
3 128 140 129
3 129 140 141
3 129 141 130
3 130 141 142
3 130 142 131
3 131 142 143
3 131 143 132
3 132 143 144
3 132 144 133
3 133 144 145
3 133 145 134
3 134 145 146
3 134 146 123
3 123 146 135
3 135 147 136
3 136 147 148
3 136 148 137
3 137 148 149
3 137 149 138
3 138 149 150
3 138 150 139
3 139 150 151
3 139 151 140
3 140 151 152
3 140 152 141
3 141 152 153
3 141 153 142
3 142 153 154
3 142 154 143
3 143 154 155
3 143 155 144
3 144 155 156
3 144 156 145
3 145 156 157
3 145 157 146
3 146 157 158
3 146 158 135
3 135 158 147
3 147 159 148
3 148 159 160
3 148 160 149
3 149 160 161
3 149 161 150
3 150 161 162
3 150 162 151
3 151 162 163
3 151 163 152
3 152 163 164
3 152 164 153
3 153 164 165
3 153 165 154
3 154 165 166
3 154 166 155
3 155 166 167
3 155 167 156
3 156 167 168
3 156 168 157
3 157 168 169
3 157 169 158
3 158 169 170
3 158 170 147
3 147 170 159
3 171 160 159
3 171 161 160
3 171 162 161
3 171 163 162
3 171 164 163
3 171 165 164
3 171 166 165
3 171 167 166
3 171 168 167
3 171 169 168
3 171 170 169
3 171 159 170
3 172 173 174
3 172 174 175
3 172 175 176
3 172 176 177
3 172 177 178
3 172 178 179
3 172 179 180
3 172 180 181
3 172 181 182
3 172 182 183
3 172 183 184
3 172 184 173
3 173 185 174
3 174 185 186
3 174 186 175
3 175 186 187
3 175 187 176
3 176 187 188
3 176 188 177
3 177 188 189
3 177 189 178
3 178 189 190
3 178 190 179
3 179 190 191
3 179 191 180
3 180 191 192
3 180 192 181
3 181 192 193
3 181 193 182
3 182 193 194
3 182 194 183
3 183 194 195
3 183 195 184
3 184 195 196
3 184 196 173
3 173 196 185
3 185 197 186
3 186 197 198
3 186 198 187
3 187 198 199
3 187 199 188
3 188 199 200
3 188 200 189
3 189 200 201
3 189 201 190
3 190 201 202
3 190 202 191
3 191 202 203
3 191 203 192
3 192 203 204
3 192 204 193
3 193 204 205
3 193 205 194
3 194 205 206
3 194 206 195
3 195 206 207
3 195 207 196
3 196 207 208
3 196 208 185
3 185 208 197
3 197 209 198
3 198 209 210
3 198 210 199
3 199 210 211
3 199 211 200
3 200 211 212
3 200 212 201
3 201 212 213
3 201 213 202
3 202 213 214
3 202 214 203
3 203 214 215
3 203 215 204
3 204 215 216
3 204 216 205
3 205 216 217
3 205 217 206
3 206 217 218
3 206 218 207
3 207 218 219
3 207 219 208
3 208 219 220
3 208 220 197
3 197 220 209
3 209 221 210
3 210 221 222
3 210 222 211
3 211 222 223
3 211 223 212
3 212 223 224
3 212 224 213
3 213 224 225
3 213 225 214
3 214 225 226
3 214 226 215
3 215 226 227
3 215 227 216
3 216 227 228
3 216 228 217
3 217 228 229
3 217 229 218
3 218 229 230
3 218 230 219
3 219 230 231
3 219 231 220
3 220 231 232
3 220 232 209
3 209 232 221
3 221 233 222
3 222 233 234
3 222 234 223
3 223 234 235
3 223 235 224
3 224 235 236
3 224 236 225
3 225 236 237
3 225 237 226
3 226 237 238
3 226 238 227
3 227 238 239
3 227 239 228
3 228 239 240
3 228 240 229
3 229 240 241
3 229 241 230
3 230 241 242
3 230 242 231
3 231 242 243
3 231 243 232
3 232 243 244
3 232 244 221
3 221 244 233
3 233 245 234
3 234 245 246
3 234 246 235
3 235 246 247
3 235 247 236
3 236 247 248
3 236 248 237
3 237 248 249
3 237 249 238
3 238 249 250
3 238 250 239
3 239 250 251
3 239 251 240
3 240 251 252
3 240 252 241
3 241 252 253
3 241 253 242
3 242 253 254
3 242 254 243
3 243 254 255
3 243 255 244
3 244 255 256
3 244 256 233
3 233 256 245
3 257 246 245
3 257 247 246
3 257 248 247
3 257 249 248
3 257 250 249
3 257 251 250
3 257 252 251
3 257 253 252
3 257 254 253
3 257 255 254
3 257 256 255
3 257 245 256
3 258 259 260
3 258 260 261
3 258 261 262
3 258 262 263
3 258 263 264
3 258 264 265
3 258 265 266
3 258 266 267
3 258 267 268
3 258 268 269
3 258 269 270
3 258 270 259
3 259 271 260
3 260 271 272
3 260 272 261
3 261 272 273
3 261 273 262
3 262 273 274
3 262 274 263
3 263 274 275
3 263 275 264
3 264 275 276
3 264 276 265
3 265 276 277
3 265 277 266
3 266 277 278
3 266 278 267
3 267 278 279
3 267 279 268
3 268 279 280
3 268 280 269
3 269 280 281
3 269 281 270
3 270 281 282
3 270 282 259
3 259 282 271
3 271 283 272
3 272 283 284
3 272 284 273
3 273 284 285
3 273 285 274
3 274 285 286
3 274 286 275
3 275 286 287
3 275 287 276
3 276 287 288
3 276 288 277
3 277 288 289
3 277 289 278
3 278 289 290
3 278 290 279
3 279 290 291
3 279 291 280
3 280 291 292
3 280 292 281
3 281 292 293
3 281 293 282
3 282 293 294
3 282 294 271
3 271 294 283
3 283 295 284
3 284 295 296
3 284 296 285
3 285 296 297
3 285 297 286
3 286 297 298
3 286 298 287
3 287 298 299
3 287 299 288
3 288 299 300
3 288 300 289
3 289 300 301
3 289 301 290
3 290 301 302
3 290 302 291
3 291 302 303
3 291 303 292
3 292 303 304
3 292 304 293
3 293 304 305
3 293 305 294
3 294 305 306
3 294 306 283
3 283 306 295
3 295 307 296
3 296 307 308
3 296 308 297
3 297 308 309
3 297 309 298
3 298 309 310
3 298 310 299
3 299 310 311
3 299 311 300
3 300 311 312
3 300 312 301
3 301 312 313
3 301 313 302
3 302 313 314
3 302 314 303
3 303 314 315
3 303 315 304
3 304 315 316
3 304 316 305
3 305 316 317
3 305 317 306
3 306 317 318
3 306 318 295
3 295 318 307
3 307 319 308
3 308 319 320
3 308 320 309
3 309 320 321
3 309 321 310
3 310 321 322
3 310 322 311
3 311 322 323
3 311 323 312
3 312 323 324
3 312 324 313
3 313 324 325
3 313 325 314
3 314 325 326
3 314 326 315
3 315 326 327
3 315 327 316
3 316 327 328
3 316 328 317
3 317 328 329
3 317 329 318
3 318 329 330
3 318 330 307
3 307 330 319
3 319 331 320
3 320 331 332
3 320 332 321
3 321 332 333
3 321 333 322
3 322 333 334
3 322 334 323
3 323 334 335
3 323 335 324
3 324 335 336
3 324 336 325
3 325 336 337
3 325 337 326
3 326 337 338
3 326 338 327
3 327 338 339
3 327 339 328
3 328 339 340
3 328 340 329
3 329 340 341
3 329 341 330
3 330 341 342
3 330 342 319
3 319 342 331
3 343 332 331
3 343 333 332
3 343 334 333
3 343 335 334
3 343 336 335
3 343 337 336
3 343 338 337
3 343 339 338
3 343 340 339
3 343 341 340
3 343 342 341
3 343 331 342
3 344 345 346
3 344 346 347
3 344 347 348
3 344 348 349
3 344 349 350
3 344 350 351
3 344 351 352
3 344 352 353
3 344 353 354
3 344 354 355
3 344 355 356
3 344 356 345
3 345 357 346
3 346 357 358
3 346 358 347
3 347 358 359
3 347 359 348
3 348 359 360
3 348 360 349
3 349 360 361
3 349 361 350
3 350 361 362
3 350 362 351
3 351 362 363
3 351 363 352
3 352 363 364
3 352 364 353
3 353 364 365
3 353 365 354
3 354 365 366
3 354 366 355
3 355 366 367
3 355 367 356
3 356 367 368
3 356 368 345
3 345 368 357
3 357 369 358
3 358 369 370
3 358 370 359
3 359 370 371
3 359 371 360
3 360 371 372
3 360 372 361
3 361 372 373
3 361 373 362
3 362 373 374
3 362 374 363
3 363 374 375
3 363 375 364
3 364 375 376
3 364 376 365
3 365 376 377
3 365 377 366
3 366 377 378
3 366 378 367
3 367 378 379
3 367 379 368
3 368 379 380
3 368 380 357
3 357 380 369
3 369 381 370
3 370 381 382
3 370 382 371
3 371 382 383
3 371 383 372
3 372 383 384
3 372 384 373
3 373 384 385
3 373 385 374
3 374 385 386
3 374 386 375
3 375 386 387
3 375 387 376
3 376 387 388
3 376 388 377
3 377 388 389
3 377 389 378
3 378 389 390
3 378 390 379
3 379 390 391
3 379 391 380
3 380 391 392
3 380 392 369
3 369 392 381
3 381 393 382
3 382 393 394
3 382 394 383
3 383 394 395
3 383 395 384
3 384 395 396
3 384 396 385
3 385 396 397
3 385 397 386
3 386 397 398
3 386 398 387
3 387 398 399
3 387 399 388
3 388 399 400
3 388 400 389
3 389 400 401
3 389 401 390
3 390 401 402
3 390 402 391
3 391 402 403
3 391 403 392
3 392 403 404
3 392 404 381
3 381 404 393
3 393 405 394
3 394 405 406
3 394 406 395
3 395 406 407
3 395 407 396
3 396 407 408
3 396 408 397
3 397 408 409
3 397 409 398
3 398 409 410
3 398 410 399
3 399 410 411
3 399 411 400
3 400 411 412
3 400 412 401
3 401 412 413
3 401 413 402
3 402 413 414
3 402 414 403
3 403 414 415
3 403 415 404
3 404 415 416
3 404 416 393
3 393 416 405
3 405 417 406
3 406 417 418
3 406 418 407
3 407 418 419
3 407 419 408
3 408 419 420
3 408 420 409
3 409 420 421
3 409 421 410
3 410 421 422
3 410 422 411
3 411 422 423
3 411 423 412
3 412 423 424
3 412 424 413
3 413 424 425
3 413 425 414
3 414 425 426
3 414 426 415
3 415 426 427
3 415 427 416
3 416 427 428
3 416 428 405
3 405 428 417
3 429 418 417
3 429 419 418
3 429 420 419
3 429 421 420
3 429 422 421
3 429 423 422
3 429 424 423
3 429 425 424
3 429 426 425
3 429 427 426
3 429 428 427
3 429 417 428
3 430 431 432
3 430 432 433
3 430 433 434
3 430 434 435
3 430 435 436
3 430 436 437
3 430 437 438
3 430 438 439
3 430 439 440
3 430 440 441
3 430 441 442
3 430 442 431
3 431 443 432
3 432 443 444
3 432 444 433
3 433 444 445
3 433 445 434
3 434 445 446
3 434 446 435
3 435 446 447
3 435 447 436
3 436 447 448
3 436 448 437
3 437 448 449
3 437 449 438
3 438 449 450
3 438 450 439
3 439 450 451
3 439 451 440
3 440 451 452
3 440 452 441
3 441 452 453
3 441 453 442
3 442 453 454
3 442 454 431
3 431 454 443
3 443 455 444
3 444 455 456
3 444 456 445
3 445 456 457
3 445 457 446
3 446 457 458
3 446 458 447
3 447 458 459
3 447 459 448
3 448 459 460
3 448 460 449
3 449 460 461
3 449 461 450
3 450 461 462
3 450 462 451
3 451 462 463
3 451 463 452
3 452 463 464
3 452 464 453
3 453 464 465
3 453 465 454
3 454 465 466
3 454 466 443
3 443 466 455
3 455 467 456
3 456 467 468
3 456 468 457
3 457 468 469
3 457 469 458
3 458 469 470
3 458 470 459
3 459 470 471
3 459 471 460
3 460 471 472
3 460 472 461
3 461 472 473
3 461 473 462
3 462 473 474
3 462 474 463
3 463 474 475
3 463 475 464
3 464 475 476
3 464 476 465
3 465 476 477
3 465 477 466
3 466 477 478
3 466 478 455
3 455 478 467
3 467 479 468
3 468 479 480
3 468 480 469
3 469 480 481
3 469 481 470
3 470 481 482
3 470 482 471
3 471 482 483
3 471 483 472
3 472 483 484
3 472 484 473
3 473 484 485
3 473 485 474
3 474 485 486
3 474 486 475
3 475 486 487
3 475 487 476
3 476 487 488
3 476 488 477
3 477 488 489
3 477 489 478
3 478 489 490
3 478 490 467
3 467 490 479
3 479 491 480
3 480 491 492
3 480 492 481
3 481 492 493
3 481 493 482
3 482 493 494
3 482 494 483
3 483 494 495
3 483 495 484
3 484 495 496
3 484 496 485
3 485 496 497
3 485 497 486
3 486 497 498
3 486 498 487
3 487 498 499
3 487 499 488
3 488 499 500
3 488 500 489
3 489 500 501
3 489 501 490
3 490 501 502
3 490 502 479
3 479 502 491
3 491 503 492
3 492 503 504
3 492 504 493
3 493 504 505
3 493 505 494
3 494 505 506
3 494 506 495
3 495 506 507
3 495 507 496
3 496 507 508
3 496 508 497
3 497 508 509
3 497 509 498
3 498 509 510
3 498 510 499
3 499 510 511
3 499 511 500
3 500 511 512
3 500 512 501
3 501 512 513
3 501 513 502
3 502 513 514
3 502 514 491
3 491 514 503
3 515 504 503
3 515 505 504
3 515 506 505
3 515 507 506
3 515 508 507
3 515 509 508
3 515 510 509
3 515 511 510
3 515 512 511
3 515 513 512
3 515 514 513
3 515 503 514
3 516 517 518
3 516 518 519
3 516 519 520
3 516 520 521
3 516 521 522
3 516 522 523
3 516 523 524
3 516 524 525
3 516 525 526
3 516 526 527
3 516 527 528
3 516 528 517
3 517 529 518
3 518 529 530
3 518 530 519
3 519 530 531
3 519 531 520
3 520 531 532
3 520 532 521
3 521 532 533
3 521 533 522
3 522 533 534
3 522 534 523
3 523 534 535
3 523 535 524
3 524 535 536
3 524 536 525
3 525 536 537
3 525 537 526
3 526 537 538
3 526 538 527
3 527 538 539
3 527 539 528
3 528 539 540
3 528 540 517
3 517 540 529
3 529 541 530
3 530 541 542
3 530 542 531
3 531 542 543
3 531 543 532
3 532 543 544
3 532 544 533
3 533 544 545
3 533 545 534
3 534 545 546
3 534 546 535
3 535 546 547
3 535 547 536
3 536 547 548
3 536 548 537
3 537 548 549
3 537 549 538
3 538 549 550
3 538 550 539
3 539 550 551
3 539 551 540
3 540 551 552
3 540 552 529
3 529 552 541
3 541 553 542
3 542 553 554
3 542 554 543
3 543 554 555
3 543 555 544
3 544 555 556
3 544 556 545
3 545 556 557
3 545 557 546
3 546 557 558
3 546 558 547
3 547 558 559
3 547 559 548
3 548 559 560
3 548 560 549
3 549 560 561
3 549 561 550
3 550 561 562
3 550 562 551
3 551 562 563
3 551 563 552
3 552 563 564
3 552 564 541
3 541 564 553
3 553 565 554
3 554 565 566
3 554 566 555
3 555 566 567
3 555 567 556
3 556 567 568
3 556 568 557
3 557 568 569
3 557 569 558
3 558 569 570
3 558 570 559
3 559 570 571
3 559 571 560
3 560 571 572
3 560 572 561
3 561 572 573
3 561 573 562
3 562 573 574
3 562 574 563
3 563 574 575
3 563 575 564
3 564 575 576
3 564 576 553
3 553 576 565
3 565 577 566
3 566 577 578
3 566 578 567
3 567 578 579
3 567 579 568
3 568 579 580
3 568 580 569
3 569 580 581
3 569 581 570
3 570 581 582
3 570 582 571
3 571 582 583
3 571 583 572
3 572 583 584
3 572 584 573
3 573 584 585
3 573 585 574
3 574 585 586
3 574 586 575
3 575 586 587
3 575 587 576
3 576 587 588
3 576 588 565
3 565 588 577
3 577 589 578
3 578 589 590
3 578 590 579
3 579 590 591
3 579 591 580
3 580 591 592
3 580 592 581
3 581 592 593
3 581 593 582
3 582 593 594
3 582 594 583
3 583 594 595
3 583 595 584
3 584 595 596
3 584 596 585
3 585 596 597
3 585 597 586
3 586 597 598
3 586 598 587
3 587 598 599
3 587 599 588
3 588 599 600
3 588 600 577
3 577 600 589
3 601 590 589
3 601 591 590
3 601 592 591
3 601 593 592
3 601 594 593
3 601 595 594
3 601 596 595
3 601 597 596
3 601 598 597
3 601 599 598
3 601 600 599
3 601 589 600
3 602 603 604
3 602 604 605
3 602 605 606
3 602 606 607
3 602 607 608
3 602 608 609
3 602 609 610
3 602 610 611
3 602 611 612
3 602 612 613
3 602 613 614
3 602 614 603
3 603 615 604
3 604 615 616
3 604 616 605
3 605 616 617
3 605 617 606
3 606 617 618
3 606 618 607
3 607 618 619
3 607 619 608
3 608 619 620
3 608 620 609
3 609 620 621
3 609 621 610
3 610 621 622
3 610 622 611
3 611 622 623
3 611 623 612
3 612 623 624
3 612 624 613
3 613 624 625
3 613 625 614
3 614 625 626
3 614 626 603
3 603 626 615
3 615 627 616
3 616 627 628
3 616 628 617
3 617 628 629
3 617 629 618
3 618 629 630
3 618 630 619
3 619 630 631
3 619 631 620
3 620 631 632
3 620 632 621
3 621 632 633
3 621 633 622
3 622 633 634
3 622 634 623
3 623 634 635
3 623 635 624
3 624 635 636
3 624 636 625
3 625 636 637
3 625 637 626
3 626 637 638
3 626 638 615
3 615 638 627
3 627 639 628
3 628 639 640
3 628 640 629
3 629 640 641
3 629 641 630
3 630 641 642
3 630 642 631
3 631 642 643
3 631 643 632
3 632 643 644
3 632 644 633
3 633 644 645
3 633 645 634
3 634 645 646
3 634 646 635
3 635 646 647
3 635 647 636
3 636 647 648
3 636 648 637
3 637 648 649
3 637 649 638
3 638 649 650
3 638 650 627
3 627 650 639
3 639 651 640
3 640 651 652
3 640 652 641
3 641 652 653
3 641 653 642
3 642 653 654
3 642 654 643
3 643 654 655
3 643 655 644
3 644 655 656
3 644 656 645
3 645 656 657
3 645 657 646
3 646 657 658
3 646 658 647
3 647 658 659
3 647 659 648
3 648 659 660
3 648 660 649
3 649 660 661
3 649 661 650
3 650 661 662
3 650 662 639
3 639 662 651
3 651 663 652
3 652 663 664
3 652 664 653
3 653 664 665
3 653 665 654
3 654 665 666
3 654 666 655
3 655 666 667
3 655 667 656
3 656 667 668
3 656 668 657
3 657 668 669
3 657 669 658
3 658 669 670
3 658 670 659
3 659 670 671
3 659 671 660
3 660 671 672
3 660 672 661
3 661 672 673
3 661 673 662
3 662 673 674
3 662 674 651
3 651 674 663
3 663 675 664
3 664 675 676
3 664 676 665
3 665 676 677
3 665 677 666
3 666 677 678
3 666 678 667
3 667 678 679
3 667 679 668
3 668 679 680
3 668 680 669
3 669 680 681
3 669 681 670
3 670 681 682
3 670 682 671
3 671 682 683
3 671 683 672
3 672 683 684
3 672 684 673
3 673 684 685
3 673 685 674
3 674 685 686
3 674 686 663
3 663 686 675
3 687 676 675
3 687 677 676
3 687 678 677
3 687 679 678
3 687 680 679
3 687 681 680
3 687 682 681
3 687 683 682
3 687 684 683
3 687 685 684
3 687 686 685
3 687 675 686
3 688 689 690
3 688 690 691
3 688 691 692
3 688 692 693
3 688 693 694
3 688 694 695
3 688 695 696
3 688 696 697
3 688 697 698
3 688 698 699
3 688 699 700
3 688 700 689
3 689 701 690
3 690 701 702
3 690 702 691
3 691 702 703
3 691 703 692
3 692 703 704
3 692 704 693
3 693 704 705
3 693 705 694
3 694 705 706
3 694 706 695
3 695 706 707
3 695 707 696
3 696 707 708
3 696 708 697
3 697 708 709
3 697 709 698
3 698 709 710
3 698 710 699
3 699 710 711
3 699 711 700
3 700 711 712
3 700 712 689
3 689 712 701
3 701 713 702
3 702 713 714
3 702 714 703
3 703 714 715
3 703 715 704
3 704 715 716
3 704 716 705
3 705 716 717
3 705 717 706
3 706 717 718
3 706 718 707
3 707 718 719
3 707 719 708
3 708 719 720
3 708 720 709
3 709 720 721
3 709 721 710
3 710 721 722
3 710 722 711
3 711 722 723
3 711 723 712
3 712 723 724
3 712 724 701
3 701 724 713
3 713 725 714
3 714 725 726
3 714 726 715
3 715 726 727
3 715 727 716
3 716 727 728
3 716 728 717
3 717 728 729
3 717 729 718
3 718 729 730
3 718 730 719
3 719 730 731
3 719 731 720
3 720 731 732
3 720 732 721
3 721 732 733
3 721 733 722
3 722 733 734
3 722 734 723
3 723 734 735
3 723 735 724
3 724 735 736
3 724 736 713
3 713 736 725
3 725 737 726
3 726 737 738
3 726 738 727
3 727 738 739
3 727 739 728
3 728 739 740
3 728 740 729
3 729 740 741
3 729 741 730
3 730 741 742
3 730 742 731
3 731 742 743
3 731 743 732
3 732 743 744
3 732 744 733
3 733 744 745
3 733 745 734
3 734 745 746
3 734 746 735
3 735 746 747
3 735 747 736
3 736 747 748
3 736 748 725
3 725 748 737
3 737 749 738
3 738 749 750
3 738 750 739
3 739 750 751
3 739 751 740
3 740 751 752
3 740 752 741
3 741 752 753
3 741 753 742
3 742 753 754
3 742 754 743
3 743 754 755
3 743 755 744
3 744 755 756
3 744 756 745
3 745 756 757
3 745 757 746
3 746 757 758
3 746 758 747
3 747 758 759
3 747 759 748
3 748 759 760
3 748 760 737
3 737 760 749
3 749 761 750
3 750 761 762
3 750 762 751
3 751 762 763
3 751 763 752
3 752 763 764
3 752 764 753
3 753 764 765
3 753 765 754
3 754 765 766
3 754 766 755
3 755 766 767
3 755 767 756
3 756 767 768
3 756 768 757
3 757 768 769
3 757 769 758
3 758 769 770
3 758 770 759
3 759 770 771
3 759 771 760
3 760 771 772
3 760 772 749
3 749 772 761
3 773 762 761
3 773 763 762
3 773 764 763
3 773 765 764
3 773 766 765
3 773 767 766
3 773 768 767
3 773 769 768
3 773 770 769
3 773 771 770
3 773 772 771
3 773 761 772
3 774 775 776
3 774 776 777
3 774 777 778
3 774 778 779
3 774 779 780
3 774 780 781
3 774 781 782
3 774 782 783
3 774 783 784
3 774 784 785
3 774 785 786
3 774 786 775
3 775 787 776
3 776 787 788
3 776 788 777
3 777 788 789
3 777 789 778
3 778 789 790
3 778 790 779
3 779 790 791
3 779 791 780
3 780 791 792
3 780 792 781
3 781 792 793
3 781 793 782
3 782 793 794
3 782 794 783
3 783 794 795
3 783 795 784
3 784 795 796
3 784 796 785
3 785 796 797
3 785 797 786
3 786 797 798
3 786 798 775
3 775 798 787
3 787 799 788
3 788 799 800
3 788 800 789
3 789 800 801
3 789 801 790
3 790 801 802
3 790 802 791
3 791 802 803
3 791 803 792
3 792 803 804
3 792 804 793
3 793 804 805
3 793 805 794
3 794 805 806
3 794 806 795
3 795 806 807
3 795 807 796
3 796 807 808
3 796 808 797
3 797 808 809
3 797 809 798
3 798 809 810
3 798 810 787
3 787 810 799
3 799 811 800
3 800 811 812
3 800 812 801
3 801 812 813
3 801 813 802
3 802 813 814
3 802 814 803
3 803 814 815
3 803 815 804
3 804 815 816
3 804 816 805
3 805 816 817
3 805 817 806
3 806 817 818
3 806 818 807
3 807 818 819
3 807 819 808
3 808 819 820
3 808 820 809
3 809 820 821
3 809 821 810
3 810 821 822
3 810 822 799
3 799 822 811
3 811 823 812
3 812 823 824
3 812 824 813
3 813 824 825
3 813 825 814
3 814 825 826
3 814 826 815
3 815 826 827
3 815 827 816
3 816 827 828
3 816 828 817
3 817 828 829
3 817 829 818
3 818 829 830
3 818 830 819
3 819 830 831
3 819 831 820
3 820 831 832
3 820 832 821
3 821 832 833
3 821 833 822
3 822 833 834
3 822 834 811
3 811 834 823
3 823 835 824
3 824 835 836
3 824 836 825
3 825 836 837
3 825 837 826
3 826 837 838
3 826 838 827
3 827 838 839
3 827 839 828
3 828 839 840
3 828 840 829
3 829 840 841
3 829 841 830
3 830 841 842
3 830 842 831
3 831 842 843
3 831 843 832
3 832 843 844
3 832 844 833
3 833 844 845
3 833 845 834
3 834 845 846
3 834 846 823
3 823 846 835
3 835 847 836
3 836 847 848
3 836 848 837
3 837 848 849
3 837 849 838
3 838 849 850
3 838 850 839
3 839 850 851
3 839 851 840
3 840 851 852
3 840 852 841
3 841 852 853
3 841 853 842
3 842 853 854
3 842 854 843
3 843 854 855
3 843 855 844
3 844 855 856
3 844 856 845
3 845 856 857
3 845 857 846
3 846 857 858
3 846 858 835
3 835 858 847
3 859 848 847
3 859 849 848
3 859 850 849
3 859 851 850
3 859 852 851
3 859 853 852
3 859 854 853
3 859 855 854
3 859 856 855
3 859 857 856
3 859 858 857
3 859 847 858
3 860 861 862
3 860 862 863
3 860 863 864
3 860 864 865
3 860 865 866
3 860 866 867
3 860 867 868
3 860 868 869
3 860 869 870
3 860 870 871
3 860 871 872
3 860 872 861
3 861 873 862
3 862 873 874
3 862 874 863
3 863 874 875
3 863 875 864
3 864 875 876
3 864 876 865
3 865 876 877
3 865 877 866
3 866 877 878
3 866 878 867
3 867 878 879
3 867 879 868
3 868 879 880
3 868 880 869
3 869 880 881
3 869 881 870
3 870 881 882
3 870 882 871
3 871 882 883
3 871 883 872
3 872 883 884
3 872 884 861
3 861 884 873
3 873 885 874
3 874 885 886
3 874 886 875
3 875 886 887
3 875 887 876
3 876 887 888
3 876 888 877
3 877 888 889
3 877 889 878
3 878 889 890
3 878 890 879
3 879 890 891
3 879 891 880
3 880 891 892
3 880 892 881
3 881 892 893
3 881 893 882
3 882 893 894
3 882 894 883
3 883 894 895
3 883 895 884
3 884 895 896
3 884 896 873
3 873 896 885
3 885 897 886
3 886 897 898
3 886 898 887
3 887 898 899
3 887 899 888
3 888 899 900
3 888 900 889
3 889 900 901
3 889 901 890
3 890 901 902
3 890 902 891
3 891 902 903
3 891 903 892
3 892 903 904
3 892 904 893
3 893 904 905
3 893 905 894
3 894 905 906
3 894 906 895
3 895 906 907
3 895 907 896
3 896 907 908
3 896 908 885
3 885 908 897
3 897 909 898
3 898 909 910
3 898 910 899
3 899 910 911
3 899 911 900
3 900 911 912
3 900 912 901
3 901 912 913
3 901 913 902
3 902 913 914
3 902 914 903
3 903 914 915
3 903 915 904
3 904 915 916
3 904 916 905
3 905 916 917
3 905 917 906
3 906 917 918
3 906 918 907
3 907 918 919
3 907 919 908
3 908 919 920
3 908 920 897
3 897 920 909
3 909 921 910
3 910 921 922
3 910 922 911
3 911 922 923
3 911 923 912
3 912 923 924
3 912 924 913
3 913 924 925
3 913 925 914
3 914 925 926
3 914 926 915
3 915 926 927
3 915 927 916
3 916 927 928
3 916 928 917
3 917 928 929
3 917 929 918
3 918 929 930
3 918 930 919
3 919 930 931
3 919 931 920
3 920 931 932
3 920 932 909
3 909 932 921
3 921 933 922
3 922 933 934
3 922 934 923
3 923 934 935
3 923 935 924
3 924 935 936
3 924 936 925
3 925 936 937
3 925 937 926
3 926 937 938
3 926 938 927
3 927 938 939
3 927 939 928
3 928 939 940
3 928 940 929
3 929 940 941
3 929 941 930
3 930 941 942
3 930 942 931
3 931 942 943
3 931 943 932
3 932 943 944
3 932 944 921
3 921 944 933
3 945 934 933
3 945 935 934
3 945 936 935
3 945 937 936
3 945 938 937
3 945 939 938
3 945 940 939
3 945 941 940
3 945 942 941
3 945 943 942
3 945 944 943
3 945 933 944
3 946 947 948
3 946 948 949
3 946 949 950
3 946 950 951
3 946 951 952
3 946 952 953
3 946 953 954
3 946 954 955
3 946 955 956
3 946 956 957
3 946 957 958
3 946 958 947
3 947 959 948
3 948 959 960
3 948 960 949
3 949 960 961
3 949 961 950
3 950 961 962
3 950 962 951
3 951 962 963
3 951 963 952
3 952 963 964
3 952 964 953
3 953 964 965
3 953 965 954
3 954 965 966
3 954 966 955
3 955 966 967
3 955 967 956
3 956 967 968
3 956 968 957
3 957 968 969
3 957 969 958
3 958 969 970
3 958 970 947
3 947 970 959
3 959 971 960
3 960 971 972
3 960 972 961
3 961 972 973
3 961 973 962
3 962 973 974
3 962 974 963
3 963 974 975
3 963 975 964
3 964 975 976
3 964 976 965
3 965 976 977
3 965 977 966
3 966 977 978
3 966 978 967
3 967 978 979
3 967 979 968
3 968 979 980
3 968 980 969
3 969 980 981
3 969 981 970
3 970 981 982
3 970 982 959
3 959 982 971
3 971 983 972
3 972 983 984
3 972 984 973
3 973 984 985
3 973 985 974
3 974 985 986
3 974 986 975
3 975 986 987
3 975 987 976
3 976 987 988
3 976 988 977
3 977 988 989
3 977 989 978
3 978 989 990
3 978 990 979
3 979 990 991
3 979 991 980
3 980 991 992
3 980 992 981
3 981 992 993
3 981 993 982
3 982 993 994
3 982 994 971
3 971 994 983
3 983 995 984
3 984 995 996
3 984 996 985
3 985 996 997
3 985 997 986
3 986 997 998
3 986 998 987
3 987 998 999
3 987 999 988
3 988 999 1000
3 988 1000 989
3 989 1000 1001
3 989 1001 990
3 990 1001 1002
3 990 1002 991
3 991 1002 1003
3 991 1003 992
3 992 1003 1004
3 992 1004 993
3 993 1004 1005
3 993 1005 994
3 994 1005 1006
3 994 1006 983
3 983 1006 995
3 995 1007 996
3 996 1007 1008
3 996 1008 997
3 997 1008 1009
3 997 1009 998
3 998 1009 1010
3 998 1010 999
3 999 1010 1011
3 999 1011 1000
3 1000 1011 1012
3 1000 1012 1001
3 1001 1012 1013
3 1001 1013 1002
3 1002 1013 1014
3 1002 1014 1003
3 1003 1014 1015
3 1003 1015 1004
3 1004 1015 1016
3 1004 1016 1005
3 1005 1016 1017
3 1005 1017 1006
3 1006 1017 1018
3 1006 1018 995
3 995 1018 1007
3 1007 1019 1008
3 1008 1019 1020
3 1008 1020 1009
3 1009 1020 1021
3 1009 1021 1010
3 1010 1021 1022
3 1010 1022 1011
3 1011 1022 1023
3 1011 1023 1012
3 1012 1023 1024
3 1012 1024 1013
3 1013 1024 1025
3 1013 1025 1014
3 1014 1025 1026
3 1014 1026 1015
3 1015 1026 1027
3 1015 1027 1016
3 1016 1027 1028
3 1016 1028 1017
3 1017 1028 1029
3 1017 1029 1018
3 1018 1029 1030
3 1018 1030 1007
3 1007 1030 1019
3 1031 1020 1019
3 1031 1021 1020
3 1031 1022 1021
3 1031 1023 1022
3 1031 1024 1023
3 1031 1025 1024
3 1031 1026 1025
3 1031 1027 1026
3 1031 1028 1027
3 1031 1029 1028
3 1031 1030 1029
3 1031 1019 1030
3 1032 1033 1034
3 1032 1034 1035
3 1032 1035 1036
3 1032 1036 1037
3 1032 1037 1038
3 1032 1038 1039
3 1032 1039 1040
3 1032 1040 1041
3 1032 1041 1042
3 1032 1042 1043
3 1032 1043 1044
3 1032 1044 1033
3 1033 1045 1034
3 1034 1045 1046
3 1034 1046 1035
3 1035 1046 1047
3 1035 1047 1036
3 1036 1047 1048
3 1036 1048 1037
3 1037 1048 1049
3 1037 1049 1038
3 1038 1049 1050
3 1038 1050 1039
3 1039 1050 1051
3 1039 1051 1040
3 1040 1051 1052
3 1040 1052 1041
3 1041 1052 1053
3 1041 1053 1042
3 1042 1053 1054
3 1042 1054 1043
3 1043 1054 1055
3 1043 1055 1044
3 1044 1055 1056
3 1044 1056 1033
3 1033 1056 1045
3 1045 1057 1046
3 1046 1057 1058
3 1046 1058 1047
3 1047 1058 1059
3 1047 1059 1048
3 1048 1059 1060
3 1048 1060 1049
3 1049 1060 1061
3 1049 1061 1050
3 1050 1061 1062
3 1050 1062 1051
3 1051 1062 1063
3 1051 1063 1052
3 1052 1063 1064
3 1052 1064 1053
3 1053 1064 1065
3 1053 1065 1054
3 1054 1065 1066
3 1054 1066 1055
3 1055 1066 1067
3 1055 1067 1056
3 1056 1067 1068
3 1056 1068 1045
3 1045 1068 1057
3 1057 1069 1058
3 1058 1069 1070
3 1058 1070 1059
3 1059 1070 1071
3 1059 1071 1060
3 1060 1071 1072
3 1060 1072 1061
3 1061 1072 1073
3 1061 1073 1062
3 1062 1073 1074
3 1062 1074 1063
3 1063 1074 1075
3 1063 1075 1064
3 1064 1075 1076
3 1064 1076 1065
3 1065 1076 1077
3 1065 1077 1066
3 1066 1077 1078
3 1066 1078 1067
3 1067 1078 1079
3 1067 1079 1068
3 1068 1079 1080
3 1068 1080 1057
3 1057 1080 1069
3 1069 1081 1070
3 1070 1081 1082
3 1070 1082 1071
3 1071 1082 1083
3 1071 1083 1072
3 1072 1083 1084
3 1072 1084 1073
3 1073 1084 1085
3 1073 1085 1074
3 1074 1085 1086
3 1074 1086 1075
3 1075 1086 1087
3 1075 1087 1076
3 1076 1087 1088
3 1076 1088 1077
3 1077 1088 1089
3 1077 1089 1078
3 1078 1089 1090
3 1078 1090 1079
3 1079 1090 1091
3 1079 1091 1080
3 1080 1091 1092
3 1080 1092 1069
3 1069 1092 1081
3 1081 1093 1082
3 1082 1093 1094
3 1082 1094 1083
3 1083 1094 1095
3 1083 1095 1084
3 1084 1095 1096
3 1084 1096 1085
3 1085 1096 1097
3 1085 1097 1086
3 1086 1097 1098
3 1086 1098 1087
3 1087 1098 1099
3 1087 1099 1088
3 1088 1099 1100
3 1088 1100 1089
3 1089 1100 1101
3 1089 1101 1090
3 1090 1101 1102
3 1090 1102 1091
3 1091 1102 1103
3 1091 1103 1092
3 1092 1103 1104
3 1092 1104 1081
3 1081 1104 1093
3 1093 1105 1094
3 1094 1105 1106
3 1094 1106 1095
3 1095 1106 1107
3 1095 1107 1096
3 1096 1107 1108
3 1096 1108 1097
3 1097 1108 1109
3 1097 1109 1098
3 1098 1109 1110
3 1098 1110 1099
3 1099 1110 1111
3 1099 1111 1100
3 1100 1111 1112
3 1100 1112 1101
3 1101 1112 1113
3 1101 1113 1102
3 1102 1113 1114
3 1102 1114 1103
3 1103 1114 1115
3 1103 1115 1104
3 1104 1115 1116
3 1104 1116 1093
3 1093 1116 1105
3 1117 1106 1105
3 1117 1107 1106
3 1117 1108 1107
3 1117 1109 1108
3 1117 1110 1109
3 1117 1111 1110
3 1117 1112 1111
3 1117 1113 1112
3 1117 1114 1113
3 1117 1115 1114
3 1117 1116 1115
3 1117 1105 1116
3 1118 1119 1120
3 1118 1120 1121
3 1118 1121 1122
3 1118 1122 1123
3 1118 1123 1124
3 1118 1124 1125
3 1118 1125 1126
3 1118 1126 1127
3 1118 1127 1128
3 1118 1128 1129
3 1118 1129 1130
3 1118 1130 1119
3 1119 1131 1120
3 1120 1131 1132
3 1120 1132 1121
3 1121 1132 1133
3 1121 1133 1122
3 1122 1133 1134
3 1122 1134 1123
3 1123 1134 1135
3 1123 1135 1124
3 1124 1135 1136
3 1124 1136 1125
3 1125 1136 1137
3 1125 1137 1126
3 1126 1137 1138
3 1126 1138 1127
3 1127 1138 1139
3 1127 1139 1128
3 1128 1139 1140
3 1128 1140 1129
3 1129 1140 1141
3 1129 1141 1130
3 1130 1141 1142
3 1130 1142 1119
3 1119 1142 1131
3 1131 1143 1132
3 1132 1143 1144
3 1132 1144 1133
3 1133 1144 1145
3 1133 1145 1134
3 1134 1145 1146
3 1134 1146 1135
3 1135 1146 1147
3 1135 1147 1136
3 1136 1147 1148
3 1136 1148 1137
3 1137 1148 1149
3 1137 1149 1138
3 1138 1149 1150
3 1138 1150 1139
3 1139 1150 1151
3 1139 1151 1140
3 1140 1151 1152
3 1140 1152 1141
3 1141 1152 1153
3 1141 1153 1142
3 1142 1153 1154
3 1142 1154 1131
3 1131 1154 1143
3 1143 1155 1144
3 1144 1155 1156
3 1144 1156 1145
3 1145 1156 1157
3 1145 1157 1146
3 1146 1157 1158
3 1146 1158 1147
3 1147 1158 1159
3 1147 1159 1148
3 1148 1159 1160
3 1148 1160 1149
3 1149 1160 1161
3 1149 1161 1150
3 1150 1161 1162
3 1150 1162 1151
3 1151 1162 1163
3 1151 1163 1152
3 1152 1163 1164
3 1152 1164 1153
3 1153 1164 1165
3 1153 1165 1154
3 1154 1165 1166
3 1154 1166 1143
3 1143 1166 1155
3 1155 1167 1156
3 1156 1167 1168
3 1156 1168 1157
3 1157 1168 1169
3 1157 1169 1158
3 1158 1169 1170
3 1158 1170 1159
3 1159 1170 1171
3 1159 1171 1160
3 1160 1171 1172
3 1160 1172 1161
3 1161 1172 1173
3 1161 1173 1162
3 1162 1173 1174
3 1162 1174 1163
3 1163 1174 1175
3 1163 1175 1164
3 1164 1175 1176
3 1164 1176 1165
3 1165 1176 1177
3 1165 1177 1166
3 1166 1177 1178
3 1166 1178 1155
3 1155 1178 1167
3 1167 1179 1168
3 1168 1179 1180
3 1168 1180 1169
3 1169 1180 1181
3 1169 1181 1170
3 1170 1181 1182
3 1170 1182 1171
3 1171 1182 1183
3 1171 1183 1172
3 1172 1183 1184
3 1172 1184 1173
3 1173 1184 1185
3 1173 1185 1174
3 1174 1185 1186
3 1174 1186 1175
3 1175 1186 1187
3 1175 1187 1176
3 1176 1187 1188
3 1176 1188 1177
3 1177 1188 1189
3 1177 1189 1178
3 1178 1189 1190
3 1178 1190 1167
3 1167 1190 1179
3 1179 1191 1180
3 1180 1191 1192
3 1180 1192 1181
3 1181 1192 1193
3 1181 1193 1182
3 1182 1193 1194
3 1182 1194 1183
3 1183 1194 1195
3 1183 1195 1184
3 1184 1195 1196
3 1184 1196 1185
3 1185 1196 1197
3 1185 1197 1186
3 1186 1197 1198
3 1186 1198 1187
3 1187 1198 1199
3 1187 1199 1188
3 1188 1199 1200
3 1188 1200 1189
3 1189 1200 1201
3 1189 1201 1190
3 1190 1201 1202
3 1190 1202 1179
3 1179 1202 1191
3 1203 1192 1191
3 1203 1193 1192
3 1203 1194 1193
3 1203 1195 1194
3 1203 1196 1195
3 1203 1197 1196
3 1203 1198 1197
3 1203 1199 1198
3 1203 1200 1199
3 1203 1201 1200
3 1203 1202 1201
3 1203 1191 1202
3 1204 1205 1206
3 1204 1206 1207
3 1204 1207 1208
3 1204 1208 1209
3 1204 1209 1210
3 1204 1210 1211
3 1204 1211 1212
3 1204 1212 1213
3 1204 1213 1214
3 1204 1214 1215
3 1204 1215 1216
3 1204 1216 1205
3 1205 1217 1206
3 1206 1217 1218
3 1206 1218 1207
3 1207 1218 1219
3 1207 1219 1208
3 1208 1219 1220
3 1208 1220 1209
3 1209 1220 1221
3 1209 1221 1210
3 1210 1221 1222
3 1210 1222 1211
3 1211 1222 1223
3 1211 1223 1212
3 1212 1223 1224
3 1212 1224 1213
3 1213 1224 1225
3 1213 1225 1214
3 1214 1225 1226
3 1214 1226 1215
3 1215 1226 1227
3 1215 1227 1216
3 1216 1227 1228
3 1216 1228 1205
3 1205 1228 1217
3 1217 1229 1218
3 1218 1229 1230
3 1218 1230 1219
3 1219 1230 1231
3 1219 1231 1220
3 1220 1231 1232
3 1220 1232 1221
3 1221 1232 1233
3 1221 1233 1222
3 1222 1233 1234
3 1222 1234 1223
3 1223 1234 1235
3 1223 1235 1224
3 1224 1235 1236
3 1224 1236 1225
3 1225 1236 1237
3 1225 1237 1226
3 1226 1237 1238
3 1226 1238 1227
3 1227 1238 1239
3 1227 1239 1228
3 1228 1239 1240
3 1228 1240 1217
3 1217 1240 1229
3 1229 1241 1230
3 1230 1241 1242
3 1230 1242 1231
3 1231 1242 1243
3 1231 1243 1232
3 1232 1243 1244
3 1232 1244 1233
3 1233 1244 1245
3 1233 1245 1234
3 1234 1245 1246
3 1234 1246 1235
3 1235 1246 1247
3 1235 1247 1236
3 1236 1247 1248
3 1236 1248 1237
3 1237 1248 1249
3 1237 1249 1238
3 1238 1249 1250
3 1238 1250 1239
3 1239 1250 1251
3 1239 1251 1240
3 1240 1251 1252
3 1240 1252 1229
3 1229 1252 1241
3 1241 1253 1242
3 1242 1253 1254
3 1242 1254 1243
3 1243 1254 1255
3 1243 1255 1244
3 1244 1255 1256
3 1244 1256 1245
3 1245 1256 1257
3 1245 1257 1246
3 1246 1257 1258
3 1246 1258 1247
3 1247 1258 1259
3 1247 1259 1248
3 1248 1259 1260
3 1248 1260 1249
3 1249 1260 1261
3 1249 1261 1250
3 1250 1261 1262
3 1250 1262 1251
3 1251 1262 1263
3 1251 1263 1252
3 1252 1263 1264
3 1252 1264 1241
3 1241 1264 1253
3 1253 1265 1254
3 1254 1265 1266
3 1254 1266 1255
3 1255 1266 1267
3 1255 1267 1256
3 1256 1267 1268
3 1256 1268 1257
3 1257 1268 1269
3 1257 1269 1258
3 1258 1269 1270
3 1258 1270 1259
3 1259 1270 1271
3 1259 1271 1260
3 1260 1271 1272
3 1260 1272 1261
3 1261 1272 1273
3 1261 1273 1262
3 1262 1273 1274
3 1262 1274 1263
3 1263 1274 1275
3 1263 1275 1264
3 1264 1275 1276
3 1264 1276 1253
3 1253 1276 1265
3 1265 1277 1266
3 1266 1277 1278
3 1266 1278 1267
3 1267 1278 1279
3 1267 1279 1268
3 1268 1279 1280
3 1268 1280 1269
3 1269 1280 1281
3 1269 1281 1270
3 1270 1281 1282
3 1270 1282 1271
3 1271 1282 1283
3 1271 1283 1272
3 1272 1283 1284
3 1272 1284 1273
3 1273 1284 1285
3 1273 1285 1274
3 1274 1285 1286
3 1274 1286 1275
3 1275 1286 1287
3 1275 1287 1276
3 1276 1287 1288
3 1276 1288 1265
3 1265 1288 1277
3 1289 1278 1277
3 1289 1279 1278
3 1289 1280 1279
3 1289 1281 1280
3 1289 1282 1281
3 1289 1283 1282
3 1289 1284 1283
3 1289 1285 1284
3 1289 1286 1285
3 1289 1287 1286
3 1289 1288 1287
3 1289 1277 1288
