ply
format ascii 1.0
element vertex 1290
property float x
property float y
property float z
element face 2520
property list uchar int vertex_indices
end_header
-102.269893 -92.833994 -142.815555
-101.121843 -92.833994 -143.043916
-101.275652 -92.259969 -143.043916
-101.695868 -91.839753 -143.043916
-102.269893 -91.685943 -143.043916
-102.843918 -91.839753 -143.043916
-103.264134 -92.259969 -143.043916
-103.417943 -92.833994 -143.043916
-103.264134 -93.408019 -143.043916
-102.843918 -93.828234 -143.043916
-102.269893 -93.982044 -143.043916
-101.695868 -93.828234 -143.043916
-101.275652 -93.408019 -143.043916
-100.148573 -92.833994 -143.694234
-100.432776 -91.773334 -143.694234
-101.209233 -90.996876 -143.694234
-102.269893 -90.712673 -143.694234
-103.330553 -90.996876 -143.694234
-104.107010 -91.773334 -143.694234
-104.391214 -92.833994 -143.694234
-104.107010 -93.894654 -143.694234
-103.330553 -94.671111 -143.694234
-102.269893 -94.955314 -143.694234
-101.209233 -94.671111 -143.694234
-100.432776 -93.894654 -143.694234
-99.498255 -92.833994 -144.667504
-99.869584 -91.448174 -144.667504
-100.884074 -90.433684 -144.667504
-102.269893 -90.062355 -144.667504
-103.655712 -90.433684 -144.667504
-104.670203 -91.448174 -144.667504
-105.041532 -92.833994 -144.667504
-104.670203 -94.219813 -144.667504
-103.655712 -95.234303 -144.667504
-102.269893 -95.605632 -144.667504
-100.884074 -95.234303 -144.667504
-99.869584 -94.219813 -144.667504
-99.269893 -92.833994 -145.815555
-99.671817 -91.333994 -145.815555
-100.769893 -90.235918 -145.815555
-102.269893 -89.833994 -145.815555
-103.769893 -90.235918 -145.815555
-104.867969 -91.333994 -145.815555
-105.269893 -92.833994 -145.815555
-104.867969 -94.333994 -145.815555
-103.769893 -95.432070 -145.815555
-102.269893 -95.833994 -145.815555
-100.769893 -95.432070 -145.815555
-99.671817 -94.333994 -145.815555
-99.498255 -92.833994 -146.963605
-99.869584 -91.448174 -146.963605
-100.884074 -90.433684 -146.963605
-102.269893 -90.062355 -146.963605
-103.655712 -90.433684 -146.963605
-104.670203 -91.448174 -146.963605
-105.041532 -92.833994 -146.963605
-104.670203 -94.219813 -146.963605
-103.655712 -95.234303 -146.963605
-102.269893 -95.605632 -146.963605
-100.884074 -95.234303 -146.963605
-99.869584 -94.219813 -146.963605
-100.148573 -92.833994 -147.936875
-100.432776 -91.773334 -147.936875
-101.209233 -90.996876 -147.936875
-102.269893 -90.712673 -147.936875
-103.330553 -90.996876 -147.936875
-104.107010 -91.773334 -147.936875
-104.391214 -92.833994 -147.936875
-104.107010 -93.894654 -147.936875
-103.330553 -94.671111 -147.936875
-102.269893 -94.955314 -147.936875
-101.209233 -94.671111 -147.936875
-100.432776 -93.894654 -147.936875
-101.121843 -92.833994 -148.587193
-101.275652 -92.259969 -148.587193
-101.695868 -91.839753 -148.587193
-102.269893 -91.685943 -148.587193
-102.843918 -91.839753 -148.587193
-103.264134 -92.259969 -148.587193
-103.417943 -92.833994 -148.587193
-103.264134 -93.408019 -148.587193
-102.843918 -93.828234 -148.587193
-102.269893 -93.982044 -148.587193
-101.695868 -93.828234 -148.587193
-101.275652 -93.408019 -148.587193
-102.269893 -92.833994 -148.815555
3.116231 1.602566 31.861879
4.264282 1.602566 31.633517
4.110472 2.176591 31.633517
3.690256 2.596807 31.633517
3.116231 2.750617 31.633517
2.542206 2.596807 31.633517
2.121991 2.176591 31.633517
1.968181 1.602566 31.633517
2.121991 1.028541 31.633517
2.542206 0.608326 31.633517
3.116231 0.454516 31.633517
3.690256 0.608326 31.633517
4.110472 1.028541 31.633517
5.237552 1.602566 30.983199
4.953349 2.663226 30.983199
4.176891 3.439684 30.983199
3.116231 3.723887 30.983199
2.055571 3.439684 30.983199
1.279114 2.663226 30.983199
0.994911 1.602566 30.983199
1.279114 0.541906 30.983199
2.055571 -0.234551 30.983199
3.116231 -0.518754 30.983199
4.176891 -0.234551 30.983199
4.953349 0.541906 30.983199
5.887870 1.602566 30.009929
5.516541 2.988386 30.009929
4.502051 4.002876 30.009929
3.116231 4.374205 30.009929
1.730412 4.002876 30.009929
0.715922 2.988386 30.009929
0.344593 1.602566 30.009929
0.715922 0.216747 30.009929
1.730412 -0.797743 30.009929
3.116231 -1.169072 30.009929
4.502051 -0.797743 30.009929
5.516541 0.216747 30.009929
6.116231 1.602566 28.861879
5.714307 3.102566 28.861879
4.616231 4.200642 28.861879
3.116231 4.602566 28.861879
1.616231 4.200642 28.861879
0.518155 3.102566 28.861879
0.116231 1.602566 28.861879
0.518155 0.102566 28.861879
1.616231 -0.995510 28.861879
3.116231 -1.397434 28.861879
4.616231 -0.995510 28.861879
5.714307 0.102566 28.861879
5.887870 1.602566 27.713828
5.516541 2.988386 27.713828
4.502051 4.002876 27.713828
3.116231 4.374205 27.713828
1.730412 4.002876 27.713828
0.715922 2.988386 27.713828
0.344593 1.602566 27.713828
0.715922 0.216747 27.713828
1.730412 -0.797743 27.713828
3.116231 -1.169072 27.713828
4.502051 -0.797743 27.713828
5.516541 0.216747 27.713828
5.237552 1.602566 26.740558
4.953349 2.663226 26.740558
4.176891 3.439684 26.740558
3.116231 3.723887 26.740558
2.055571 3.439684 26.740558
1.279114 2.663226 26.740558
0.994911 1.602566 26.740558
1.279114 0.541906 26.740558
2.055571 -0.234551 26.740558
3.116231 -0.518754 26.740558
4.176891 -0.234551 26.740558
4.953349 0.541906 26.740558
4.264282 1.602566 26.090240
4.110472 2.176591 26.090240
3.690256 2.596807 26.090240
3.116231 2.750617 26.090240
2.542206 2.596807 26.090240
2.121991 2.176591 26.090240
1.968181 1.602566 26.090240
2.121991 1.028541 26.090240
2.542206 0.608326 26.090240
3.116231 0.454516 26.090240
3.690256 0.608326 26.090240
4.110472 1.028541 26.090240
3.116231 1.602566 25.861879
-18.061237 12.563978 27.876062
-16.913187 12.563978 27.647701
-17.066997 13.138003 27.647701
-17.487212 13.558219 27.647701
-18.061237 13.712028 27.647701
-18.635262 13.558219 27.647701
-19.055478 13.138003 27.647701
-19.209288 12.563978 27.647701
-19.055478 11.989953 27.647701
-18.635262 11.569737 27.647701
-18.061237 11.415928 27.647701
-17.487212 11.569737 27.647701
-17.066997 11.989953 27.647701
-15.939917 12.563978 26.997382
-16.224120 13.624638 26.997382
-17.000577 14.401095 26.997382
-18.061237 14.685298 26.997382
-19.121897 14.401095 26.997382
-19.898355 13.624638 26.997382
-20.182558 12.563978 26.997382
-19.898355 11.503318 26.997382
-19.121897 10.726861 26.997382
-18.061237 10.442658 26.997382
-17.000577 10.726861 26.997382
-16.224120 11.503318 26.997382
-15.289599 12.563978 26.024112
-15.660928 13.949797 26.024112
-16.675418 14.964287 26.024112
-18.061237 15.335617 26.024112
-19.447057 14.964287 26.024112
-20.461547 13.949797 26.024112
-20.832876 12.563978 26.024112
-20.461547 11.178159 26.024112
-19.447057 10.163669 26.024112
-18.061237 9.792339 26.024112
-16.675418 10.163669 26.024112
-15.660928 11.178159 26.024112
-15.061237 12.563978 24.876062
-15.463161 14.063978 24.876062
-16.561237 15.162054 24.876062
-18.061237 15.563978 24.876062
-19.561237 15.162054 24.876062
-20.659314 14.063978 24.876062
-21.061237 12.563978 24.876062
-20.659314 11.063978 24.876062
-19.561237 9.965902 24.876062
-18.061237 9.563978 24.876062
-16.561237 9.965902 24.876062
-15.463161 11.063978 24.876062
-15.289599 12.563978 23.728012
-15.660928 13.949797 23.728012
-16.675418 14.964287 23.728012
-18.061237 15.335617 23.728012
-19.447057 14.964287 23.728012
-20.461547 13.949797 23.728012
-20.832876 12.563978 23.728012
-20.461547 11.178159 23.728012
-19.447057 10.163669 23.728012
-18.061237 9.792339 23.728012
-16.675418 10.163669 23.728012
-15.660928 11.178159 23.728012
-15.939917 12.563978 22.754742
-16.224120 13.624638 22.754742
-17.000577 14.401095 22.754742
-18.061237 14.685298 22.754742
-19.121897 14.401095 22.754742
-19.898355 13.624638 22.754742
-20.182558 12.563978 22.754742
-19.898355 11.503318 22.754742
-19.121897 10.726861 22.754742
-18.061237 10.442658 22.754742
-17.000577 10.726861 22.754742
-16.224120 11.503318 22.754742
-16.913187 12.563978 22.104424
-17.066997 13.138003 22.104424
-17.487212 13.558219 22.104424
-18.061237 13.712028 22.104424
-18.635262 13.558219 22.104424
-19.055478 13.138003 22.104424
-19.209288 12.563978 22.104424
-19.055478 11.989953 22.104424
-18.635262 11.569737 22.104424
-18.061237 11.415928 22.104424
-17.487212 11.569737 22.104424
-17.066997 11.989953 22.104424
-18.061237 12.563978 21.876062
13.099290 -16.833168 22.548102
14.247341 -16.833168 22.319741
14.093531 -16.259143 22.319741
13.673315 -15.838927 22.319741
13.099290 -15.685117 22.319741
12.525265 -15.838927 22.319741
12.105050 -16.259143 22.319741
11.951240 -16.833168 22.319741
12.105050 -17.407193 22.319741
12.525265 -17.827408 22.319741
13.099290 -17.981218 22.319741
13.673315 -17.827408 22.319741
14.093531 -17.407193 22.319741
15.220611 -16.833168 21.669422
14.936408 -15.772508 21.669422
14.159951 -14.996050 21.669422
13.099290 -14.711847 21.669422
12.038630 -14.996050 21.669422
11.262173 -15.772508 21.669422
10.977970 -16.833168 21.669422
11.262173 -17.893828 21.669422
12.038630 -18.670285 21.669422
13.099290 -18.954488 21.669422
14.159951 -18.670285 21.669422
14.936408 -17.893828 21.669422
15.870929 -16.833168 20.696152
15.499600 -15.447348 20.696152
14.485110 -14.432858 20.696152
13.099290 -14.061529 20.696152
11.713471 -14.432858 20.696152
10.698981 -15.447348 20.696152
10.327652 -16.833168 20.696152
10.698981 -18.218987 20.696152
11.713471 -19.233477 20.696152
13.099290 -19.604806 20.696152
14.485110 -19.233477 20.696152
15.499600 -18.218987 20.696152
16.099290 -16.833168 19.548102
15.697367 -15.333168 19.548102
14.599290 -14.235092 19.548102
13.099290 -13.833168 19.548102
11.599290 -14.235092 19.548102
10.501214 -15.333168 19.548102
10.099290 -16.833168 19.548102
10.501214 -18.333168 19.548102
11.599290 -19.431244 19.548102
13.099290 -19.833168 19.548102
14.599290 -19.431244 19.548102
15.697367 -18.333168 19.548102
15.870929 -16.833168 18.400052
15.499600 -15.447348 18.400052
14.485110 -14.432858 18.400052
13.099290 -14.061529 18.400052
11.713471 -14.432858 18.400052
10.698981 -15.447348 18.400052
10.327652 -16.833168 18.400052
10.698981 -18.218987 18.400052
11.713471 -19.233477 18.400052
13.099290 -19.604806 18.400052
14.485110 -19.233477 18.400052
15.499600 -18.218987 18.400052
15.220611 -16.833168 17.426782
14.936408 -15.772508 17.426782
14.159951 -14.996050 17.426782
13.099290 -14.711847 17.426782
12.038630 -14.996050 17.426782
11.262173 -15.772508 17.426782
10.977970 -16.833168 17.426782
11.262173 -17.893828 17.426782
12.038630 -18.670285 17.426782
13.099290 -18.954488 17.426782
14.159951 -18.670285 17.426782
14.936408 -17.893828 17.426782
14.247341 -16.833168 16.776464
14.093531 -16.259143 16.776464
13.673315 -15.838927 16.776464
13.099290 -15.685117 16.776464
12.525265 -15.838927 16.776464
12.105050 -16.259143 16.776464
11.951240 -16.833168 16.776464
12.105050 -17.407193 16.776464
12.525265 -17.827408 16.776464
13.099290 -17.981218 16.776464
13.673315 -17.827408 16.776464
14.093531 -17.407193 16.776464
13.099290 -16.833168 16.548102
-3.415650 11.011961 37.618269
-2.267600 11.011961 37.389908
-2.421409 11.585986 37.389908
-2.841625 12.006202 37.389908
-3.415650 12.160012 37.389908
-3.989675 12.006202 37.389908
-4.409891 11.585986 37.389908
-4.563701 11.011961 37.389908
-4.409891 10.437936 37.389908
-3.989675 10.017721 37.389908
-3.415650 9.863911 37.389908
-2.841625 10.017721 37.389908
-2.421409 10.437936 37.389908
-1.294330 11.011961 36.739590
-1.578533 12.072621 36.739590
-2.354990 12.849079 36.739590
-3.415650 13.133282 36.739590
-4.476310 12.849079 36.739590
-5.252768 12.072621 36.739590
-5.536971 11.011961 36.739590
-5.252768 9.951301 36.739590
-4.476310 9.174844 36.739590
-3.415650 8.890641 36.739590
-2.354990 9.174844 36.739590
-1.578533 9.951301 36.739590
-0.644012 11.011961 35.766320
-1.015341 12.397781 35.766320
-2.029831 13.412271 35.766320
-3.415650 13.783600 35.766320
-4.801470 13.412271 35.766320
-5.815960 12.397781 35.766320
-6.187289 11.011961 35.766320
-5.815960 9.626142 35.766320
-4.801470 8.611652 35.766320
-3.415650 8.240323 35.766320
-2.029831 8.611652 35.766320
-1.015341 9.626142 35.766320
-0.415650 11.011961 34.618269
-0.817574 12.511961 34.618269
-1.915650 13.610037 34.618269
-3.415650 14.011961 34.618269
-4.915650 13.610037 34.618269
-6.013726 12.511961 34.618269
-6.415650 11.011961 34.618269
-6.013726 9.511961 34.618269
-4.915650 8.413885 34.618269
-3.415650 8.011961 34.618269
-1.915650 8.413885 34.618269
-0.817574 9.511961 34.618269
-0.644012 11.011961 33.470219
-1.015341 12.397781 33.470219
-2.029831 13.412271 33.470219
-3.415650 13.783600 33.470219
-4.801470 13.412271 33.470219
-5.815960 12.397781 33.470219
-6.187289 11.011961 33.470219
-5.815960 9.626142 33.470219
-4.801470 8.611652 33.470219
-3.415650 8.240323 33.470219
-2.029831 8.611652 33.470219
-1.015341 9.626142 33.470219
-1.294330 11.011961 32.496949
-1.578533 12.072621 32.496949
-2.354990 12.849079 32.496949
-3.415650 13.133282 32.496949
-4.476310 12.849079 32.496949
-5.252768 12.072621 32.496949
-5.536971 11.011961 32.496949
-5.252768 9.951301 32.496949
-4.476310 9.174844 32.496949
-3.415650 8.890641 32.496949
-2.354990 9.174844 32.496949
-1.578533 9.951301 32.496949
-2.267600 11.011961 31.846631
-2.421409 11.585986 31.846631
-2.841625 12.006202 31.846631
-3.415650 12.160012 31.846631
-3.989675 12.006202 31.846631
-4.409891 11.585986 31.846631
-4.563701 11.011961 31.846631
-4.409891 10.437936 31.846631
-3.989675 10.017721 31.846631
-3.415650 9.863911 31.846631
-2.841625 10.017721 31.846631
-2.421409 10.437936 31.846631
-3.415650 11.011961 31.618269
13.452796 -3.980400 33.110379
14.600846 -3.980400 32.882017
14.447037 -3.406375 32.882017
14.026821 -2.986160 32.882017
13.452796 -2.832350 32.882017
12.878771 -2.986160 32.882017
12.458555 -3.406375 32.882017
12.304746 -3.980400 32.882017
12.458555 -4.554426 32.882017
12.878771 -4.974641 32.882017
13.452796 -5.128451 32.882017
14.026821 -4.974641 32.882017
14.447037 -4.554426 32.882017
15.574116 -3.980400 32.231699
15.289913 -2.919740 32.231699
14.513456 -2.143283 32.231699
13.452796 -1.859080 32.231699
12.392136 -2.143283 32.231699
11.615679 -2.919740 32.231699
11.331476 -3.980400 32.231699
11.615679 -5.041061 32.231699
12.392136 -5.817518 32.231699
13.452796 -6.101721 32.231699
14.513456 -5.817518 32.231699
15.289913 -5.041061 32.231699
16.224435 -3.980400 31.258429
15.853106 -2.594581 31.258429
14.838615 -1.580091 31.258429
13.452796 -1.208762 31.258429
12.066977 -1.580091 31.258429
11.052487 -2.594581 31.258429
10.681158 -3.980400 31.258429
11.052487 -5.366220 31.258429
12.066977 -6.380710 31.258429
13.452796 -6.752039 31.258429
14.838615 -6.380710 31.258429
15.853106 -5.366220 31.258429
16.452796 -3.980400 30.110379
16.050872 -2.480400 30.110379
14.952796 -1.382324 30.110379
13.452796 -0.980400 30.110379
11.952796 -1.382324 30.110379
10.854720 -2.480400 30.110379
10.452796 -3.980400 30.110379
10.854720 -5.480400 30.110379
11.952796 -6.578477 30.110379
13.452796 -6.980400 30.110379
14.952796 -6.578477 30.110379
16.050872 -5.480400 30.110379
16.224435 -3.980400 28.962328
15.853106 -2.594581 28.962328
14.838615 -1.580091 28.962328
13.452796 -1.208762 28.962328
12.066977 -1.580091 28.962328
11.052487 -2.594581 28.962328
10.681158 -3.980400 28.962328
11.052487 -5.366220 28.962328
12.066977 -6.380710 28.962328
13.452796 -6.752039 28.962328
14.838615 -6.380710 28.962328
15.853106 -5.366220 28.962328
15.574116 -3.980400 27.989058
15.289913 -2.919740 27.989058
14.513456 -2.143283 27.989058
13.452796 -1.859080 27.989058
12.392136 -2.143283 27.989058
11.615679 -2.919740 27.989058
11.331476 -3.980400 27.989058
11.615679 -5.041061 27.989058
12.392136 -5.817518 27.989058
13.452796 -6.101721 27.989058
14.513456 -5.817518 27.989058
15.289913 -5.041061 27.989058
14.600846 -3.980400 27.338740
14.447037 -3.406375 27.338740
14.026821 -2.986160 27.338740
13.452796 -2.832350 27.338740
12.878771 -2.986160 27.338740
12.458555 -3.406375 27.338740
12.304746 -3.980400 27.338740
12.458555 -4.554426 27.338740
12.878771 -4.974641 27.338740
13.452796 -5.128451 27.338740
14.026821 -4.974641 27.338740
14.447037 -4.554426 27.338740
13.452796 -3.980400 27.110379
-18.141936 -1.505373 41.791615
-16.993886 -1.505373 41.563254
-17.147695 -0.931348 41.563254
-17.567911 -0.511133 41.563254
-18.141936 -0.357323 41.563254
-18.715961 -0.511133 41.563254
-19.136177 -0.931348 41.563254
-19.289986 -1.505373 41.563254
-19.136177 -2.079398 41.563254
-18.715961 -2.499614 41.563254
-18.141936 -2.653424 41.563254
-17.567911 -2.499614 41.563254
-17.147695 -2.079398 41.563254
-16.020616 -1.505373 40.912935
-16.304819 -0.444713 40.912935
-17.081276 0.331744 40.912935
-18.141936 0.615947 40.912935
-19.202596 0.331744 40.912935
-19.979053 -0.444713 40.912935
-20.263256 -1.505373 40.912935
-19.979053 -2.566033 40.912935
-19.202596 -3.342491 40.912935
-18.141936 -3.626694 40.912935
-17.081276 -3.342491 40.912935
-16.304819 -2.566033 40.912935
-15.370297 -1.505373 39.939665
-15.741627 -0.119554 39.939665
-16.756117 0.894936 39.939665
-18.141936 1.266265 39.939665
-19.527755 0.894936 39.939665
-20.542245 -0.119554 39.939665
-20.913575 -1.505373 39.939665
-20.542245 -2.891193 39.939665
-19.527755 -3.905683 39.939665
-18.141936 -4.277012 39.939665
-16.756117 -3.905683 39.939665
-15.741627 -2.891193 39.939665
-15.141936 -1.505373 38.791615
-15.543860 -0.005373 38.791615
-16.641936 1.092703 38.791615
-18.141936 1.494627 38.791615
-19.641936 1.092703 38.791615
-20.740012 -0.005373 38.791615
-21.141936 -1.505373 38.791615
-20.740012 -3.005373 38.791615
-19.641936 -4.103449 38.791615
-18.141936 -4.505373 38.791615
-16.641936 -4.103449 38.791615
-15.543860 -3.005373 38.791615
-15.370297 -1.505373 37.643565
-15.741627 -0.119554 37.643565
-16.756117 0.894936 37.643565
-18.141936 1.266265 37.643565
-19.527755 0.894936 37.643565
-20.542245 -0.119554 37.643565
-20.913575 -1.505373 37.643565
-20.542245 -2.891193 37.643565
-19.527755 -3.905683 37.643565
-18.141936 -4.277012 37.643565
-16.756117 -3.905683 37.643565
-15.741627 -2.891193 37.643565
-16.020616 -1.505373 36.670295
-16.304819 -0.444713 36.670295
-17.081276 0.331744 36.670295
-18.141936 0.615947 36.670295
-19.202596 0.331744 36.670295
-19.979053 -0.444713 36.670295
-20.263256 -1.505373 36.670295
-19.979053 -2.566033 36.670295
-19.202596 -3.342491 36.670295
-18.141936 -3.626694 36.670295
-17.081276 -3.342491 36.670295
-16.304819 -2.566033 36.670295
-16.993886 -1.505373 36.019976
-17.147695 -0.931348 36.019976
-17.567911 -0.511133 36.019976
-18.141936 -0.357323 36.019976
-18.715961 -0.511133 36.019976
-19.136177 -0.931348 36.019976
-19.289986 -1.505373 36.019976
-19.136177 -2.079398 36.019976
-18.715961 -2.499614 36.019976
-18.141936 -2.653424 36.019976
-17.567911 -2.499614 36.019976
-17.147695 -2.079398 36.019976
-18.141936 -1.505373 35.791615
2.608830 -19.376384 37.828480
3.756881 -19.376384 37.600119
3.603071 -18.802359 37.600119
3.182856 -18.382143 37.600119
2.608830 -18.228333 37.600119
2.034805 -18.382143 37.600119
1.614590 -18.802359 37.600119
1.460780 -19.376384 37.600119
1.614590 -19.950409 37.600119
2.034805 -20.370624 37.600119
2.608830 -20.524434 37.600119
3.182856 -20.370624 37.600119
3.603071 -19.950409 37.600119
4.730151 -19.376384 36.949801
4.445948 -18.315723 36.949801
3.669491 -17.539266 36.949801
2.608830 -17.255063 36.949801
1.548170 -17.539266 36.949801
0.771713 -18.315723 36.949801
0.487510 -19.376384 36.949801
0.771713 -20.437044 36.949801
1.548170 -21.213501 36.949801
2.608830 -21.497704 36.949801
3.669491 -21.213501 36.949801
4.445948 -20.437044 36.949801
5.380469 -19.376384 35.976531
5.009140 -17.990564 35.976531
3.994650 -16.976074 35.976531
2.608830 -16.604745 35.976531
1.223011 -16.976074 35.976531
0.208521 -17.990564 35.976531
-0.162808 -19.376384 35.976531
0.208521 -20.762203 35.976531
1.223011 -21.776693 35.976531
2.608830 -22.148022 35.976531
3.994650 -21.776693 35.976531
5.009140 -20.762203 35.976531
5.608830 -19.376384 34.828480
5.206907 -17.876384 34.828480
4.108830 -16.778307 34.828480
2.608830 -16.376384 34.828480
1.108830 -16.778307 34.828480
0.010754 -17.876384 34.828480
-0.391170 -19.376384 34.828480
0.010754 -20.876384 34.828480
1.108830 -21.974460 34.828480
2.608830 -22.376384 34.828480
4.108830 -21.974460 34.828480
5.206907 -20.876384 34.828480
5.380469 -19.376384 33.680430
5.009140 -17.990564 33.680430
3.994650 -16.976074 33.680430
2.608830 -16.604745 33.680430
1.223011 -16.976074 33.680430
0.208521 -17.990564 33.680430
-0.162808 -19.376384 33.680430
0.208521 -20.762203 33.680430
1.223011 -21.776693 33.680430
2.608830 -22.148022 33.680430
3.994650 -21.776693 33.680430
5.009140 -20.762203 33.680430
4.730151 -19.376384 32.707160
4.445948 -18.315723 32.707160
3.669491 -17.539266 32.707160
2.608830 -17.255063 32.707160
1.548170 -17.539266 32.707160
0.771713 -18.315723 32.707160
0.487510 -19.376384 32.707160
0.771713 -20.437044 32.707160
1.548170 -21.213501 32.707160
2.608830 -21.497704 32.707160
3.669491 -21.213501 32.707160
4.445948 -20.437044 32.707160
3.756881 -19.376384 32.056842
3.603071 -18.802359 32.056842
3.182856 -18.382143 32.056842
2.608830 -18.228333 32.056842
2.034805 -18.382143 32.056842
1.614590 -18.802359 32.056842
1.460780 -19.376384 32.056842
1.614590 -19.950409 32.056842
2.034805 -20.370624 32.056842
2.608830 -20.524434 32.056842
3.182856 -20.370624 32.056842
3.603071 -19.950409 32.056842
2.608830 -19.376384 31.828480
1.685265 13.875850 17.904401
2.833316 13.875850 17.676040
2.679506 14.449875 17.676040
2.259290 14.870091 17.676040
1.685265 15.023900 17.676040
1.111240 14.870091 17.676040
0.691025 14.449875 17.676040
0.537215 13.875850 17.676040
0.691025 13.301825 17.676040
1.111240 12.881609 17.676040
1.685265 12.727800 17.676040
2.259290 12.881609 17.676040
2.679506 13.301825 17.676040
3.806586 13.875850 17.025721
3.522383 14.936510 17.025721
2.745925 15.712967 17.025721
1.685265 15.997170 17.025721
0.624605 15.712967 17.025721
-0.151852 14.936510 17.025721
-0.436055 13.875850 17.025721
-0.151852 12.815190 17.025721
0.624605 12.038733 17.025721
1.685265 11.754529 17.025721
2.745925 12.038733 17.025721
3.522383 12.815190 17.025721
4.456904 13.875850 16.052451
4.085575 15.261669 16.052451
3.071085 16.276159 16.052451
1.685265 16.647488 16.052451
0.299446 16.276159 16.052451
-0.715044 15.261669 16.052451
-1.086373 13.875850 16.052451
-0.715044 12.490031 16.052451
0.299446 11.475540 16.052451
1.685265 11.104211 16.052451
3.071085 11.475540 16.052451
4.085575 12.490031 16.052451
4.685265 13.875850 14.904401
4.283342 15.375850 14.904401
3.185265 16.473926 14.904401
1.685265 16.875850 14.904401
0.185265 16.473926 14.904401
-0.912811 15.375850 14.904401
-1.314735 13.875850 14.904401
-0.912811 12.375850 14.904401
0.185265 11.277774 14.904401
1.685265 10.875850 14.904401
3.185265 11.277774 14.904401
4.283342 12.375850 14.904401
4.456904 13.875850 13.756351
4.085575 15.261669 13.756351
3.071085 16.276159 13.756351
1.685265 16.647488 13.756351
0.299446 16.276159 13.756351
-0.715044 15.261669 13.756351
-1.086373 13.875850 13.756351
-0.715044 12.490031 13.756351
0.299446 11.475540 13.756351
1.685265 11.104211 13.756351
3.071085 11.475540 13.756351
4.085575 12.490031 13.756351
3.806586 13.875850 12.783081
3.522383 14.936510 12.783081
2.745925 15.712967 12.783081
1.685265 15.997170 12.783081
0.624605 15.712967 12.783081
-0.151852 14.936510 12.783081
-0.436055 13.875850 12.783081
-0.151852 12.815190 12.783081
0.624605 12.038733 12.783081
1.685265 11.754529 12.783081
2.745925 12.038733 12.783081
3.522383 12.815190 12.783081
2.833316 13.875850 12.132762
2.679506 14.449875 12.132762
2.259290 14.870091 12.132762
1.685265 15.023900 12.132762
1.111240 14.870091 12.132762
0.691025 14.449875 12.132762
0.537215 13.875850 12.132762
0.691025 13.301825 12.132762
1.111240 12.881609 12.132762
1.685265 12.727800 12.132762
2.259290 12.881609 12.132762
2.679506 13.301825 12.132762
1.685265 13.875850 11.904401
15.829823 1.987430 13.798577
16.977873 1.987430 13.570215
16.824063 2.561455 13.570215
16.403848 2.981671 13.570215
15.829823 3.135480 13.570215
15.255798 2.981671 13.570215
14.835582 2.561455 13.570215
14.681772 1.987430 13.570215
14.835582 1.413405 13.570215
15.255798 0.993189 13.570215
15.829823 0.839380 13.570215
16.403848 0.993189 13.570215
16.824063 1.413405 13.570215
17.951143 1.987430 12.919897
17.666940 3.048090 12.919897
16.890483 3.824547 12.919897
15.829823 4.108750 12.919897
14.769162 3.824547 12.919897
13.992705 3.048090 12.919897
13.708502 1.987430 12.919897
13.992705 0.926770 12.919897
14.769162 0.150312 12.919897
15.829823 -0.133891 12.919897
16.890483 0.150312 12.919897
17.666940 0.926770 12.919897
18.601461 1.987430 11.946627
18.230132 3.373249 11.946627
17.215642 4.387739 11.946627
15.829823 4.759068 11.946627
14.444003 4.387739 11.946627
13.429513 3.373249 11.946627
13.058184 1.987430 11.946627
13.429513 0.601611 11.946627
14.444003 -0.412880 11.946627
15.829823 -0.784209 11.946627
17.215642 -0.412880 11.946627
18.230132 0.601611 11.946627
18.829823 1.987430 10.798577
18.427899 3.487430 10.798577
17.329823 4.585506 10.798577
15.829823 4.987430 10.798577
14.329823 4.585506 10.798577
13.231746 3.487430 10.798577
12.829823 1.987430 10.798577
13.231746 0.487430 10.798577
14.329823 -0.610646 10.798577
15.829823 -1.012570 10.798577
17.329823 -0.610646 10.798577
18.427899 0.487430 10.798577
18.601461 1.987430 9.650527
18.230132 3.373249 9.650527
17.215642 4.387739 9.650527
15.829823 4.759068 9.650527
14.444003 4.387739 9.650527
13.429513 3.373249 9.650527
13.058184 1.987430 9.650527
13.429513 0.601611 9.650527
14.444003 -0.412880 9.650527
15.829823 -0.784209 9.650527
17.215642 -0.412880 9.650527
18.230132 0.601611 9.650527
17.951143 1.987430 8.677257
17.666940 3.048090 8.677257
16.890483 3.824547 8.677257
15.829823 4.108750 8.677257
14.769162 3.824547 8.677257
13.992705 3.048090 8.677257
13.708502 1.987430 8.677257
13.992705 0.926770 8.677257
14.769162 0.150312 8.677257
15.829823 -0.133891 8.677257
16.890483 0.150312 8.677257
17.666940 0.926770 8.677257
16.977873 1.987430 8.026938
16.824063 2.561455 8.026938
16.403848 2.981671 8.026938
15.829823 3.135480 8.026938
15.255798 2.981671 8.026938
14.835582 2.561455 8.026938
14.681772 1.987430 8.026938
14.835582 1.413405 8.026938
15.255798 0.993189 8.026938
15.829823 0.839380 8.026938
16.403848 0.993189 8.026938
16.824063 1.413405 8.026938
15.829823 1.987430 7.798577
-20.870424 -3.529609 28.875271
-19.722374 -3.529609 28.646910
-19.876184 -2.955583 28.646910
-20.296399 -2.535368 28.646910
-20.870424 -2.381558 28.646910
-21.444449 -2.535368 28.646910
-21.864665 -2.955583 28.646910
-22.018475 -3.529609 28.646910
-21.864665 -4.103634 28.646910
-21.444449 -4.523849 28.646910
-20.870424 -4.677659 28.646910
-20.296399 -4.523849 28.646910
-19.876184 -4.103634 28.646910
-18.749104 -3.529609 27.996591
-19.033307 -2.468948 27.996591
-19.809764 -1.692491 27.996591
-20.870424 -1.408288 27.996591
-21.931084 -1.692491 27.996591
-22.707542 -2.468948 27.996591
-22.991745 -3.529609 27.996591
-22.707542 -4.590269 27.996591
-21.931084 -5.366726 27.996591
-20.870424 -5.650929 27.996591
-19.809764 -5.366726 27.996591
-19.033307 -4.590269 27.996591
-18.098786 -3.529609 27.023321
-18.470115 -2.143789 27.023321
-19.484605 -1.129299 27.023321
-20.870424 -0.757970 27.023321
-22.256244 -1.129299 27.023321
-23.270734 -2.143789 27.023321
-23.642063 -3.529609 27.023321
-23.270734 -4.915428 27.023321
-22.256244 -5.929918 27.023321
-20.870424 -6.301247 27.023321
-19.484605 -5.929918 27.023321
-18.470115 -4.915428 27.023321
-17.870424 -3.529609 25.875271
-18.272348 -2.029609 25.875271
-19.370424 -0.931532 25.875271
-20.870424 -0.529609 25.875271
-22.370424 -0.931532 25.875271
-23.468500 -2.029609 25.875271
-23.870424 -3.529609 25.875271
-23.468500 -5.029609 25.875271
-22.370424 -6.127685 25.875271
-20.870424 -6.529609 25.875271
-19.370424 -6.127685 25.875271
-18.272348 -5.029609 25.875271
-18.098786 -3.529609 24.727221
-18.470115 -2.143789 24.727221
-19.484605 -1.129299 24.727221
-20.870424 -0.757970 24.727221
-22.256244 -1.129299 24.727221
-23.270734 -2.143789 24.727221
-23.642063 -3.529609 24.727221
-23.270734 -4.915428 24.727221
-22.256244 -5.929918 24.727221
-20.870424 -6.301247 24.727221
-19.484605 -5.929918 24.727221
-18.470115 -4.915428 24.727221
-18.749104 -3.529609 23.753951
-19.033307 -2.468948 23.753951
-19.809764 -1.692491 23.753951
-20.870424 -1.408288 23.753951
-21.931084 -1.692491 23.753951
-22.707542 -2.468948 23.753951
-22.991745 -3.529609 23.753951
-22.707542 -4.590269 23.753951
-21.931084 -5.366726 23.753951
-20.870424 -5.650929 23.753951
-19.809764 -5.366726 23.753951
-19.033307 -4.590269 23.753951
-19.722374 -3.529609 23.103632
-19.876184 -2.955583 23.103632
-20.296399 -2.535368 23.103632
-20.870424 -2.381558 23.103632
-21.444449 -2.535368 23.103632
-21.864665 -2.955583 23.103632
-22.018475 -3.529609 23.103632
-21.864665 -4.103634 23.103632
-21.444449 -4.523849 23.103632
-20.870424 -4.677659 23.103632
-20.296399 -4.523849 23.103632
-19.876184 -4.103634 23.103632
-20.870424 -3.529609 22.875271
-2.096390 -20.472089 24.958390
-0.948340 -20.472089 24.730029
-1.102149 -19.898064 24.730029
-1.522365 -19.477848 24.730029
-2.096390 -19.324039 24.730029
-2.670415 -19.477848 24.730029
-3.090631 -19.898064 24.730029
-3.244440 -20.472089 24.730029
-3.090631 -21.046114 24.730029
-2.670415 -21.466330 24.730029
-2.096390 -21.620139 24.730029
-1.522365 -21.466330 24.730029
-1.102149 -21.046114 24.730029
0.024930 -20.472089 24.079711
-0.259273 -19.411429 24.079711
-1.035730 -18.634972 24.079711
-2.096390 -18.350769 24.079711
-3.157050 -18.634972 24.079711
-3.933507 -19.411429 24.079711
-4.217711 -20.472089 24.079711
-3.933507 -21.532749 24.079711
-3.157050 -22.309206 24.079711
-2.096390 -22.593409 24.079711
-1.035730 -22.309206 24.079711
-0.259273 -21.532749 24.079711
0.675248 -20.472089 23.106441
0.303919 -19.086270 23.106441
-0.710571 -18.071780 23.106441
-2.096390 -17.700451 23.106441
-3.482209 -18.071780 23.106441
-4.496700 -19.086270 23.106441
-4.868029 -20.472089 23.106441
-4.496700 -21.857908 23.106441
-3.482209 -22.872399 23.106441
-2.096390 -23.243728 23.106441
-0.710571 -22.872399 23.106441
0.303919 -21.857908 23.106441
0.903610 -20.472089 21.958390
0.501686 -18.972089 21.958390
-0.596390 -17.874013 21.958390
-2.096390 -17.472089 21.958390
-3.596390 -17.874013 21.958390
-4.694466 -18.972089 21.958390
-5.096390 -20.472089 21.958390
-4.694466 -21.972089 21.958390
-3.596390 -23.070165 21.958390
-2.096390 -23.472089 21.958390
-0.596390 -23.070165 21.958390
0.501686 -21.972089 21.958390
0.675248 -20.472089 20.810340
0.303919 -19.086270 20.810340
-0.710571 -18.071780 20.810340
-2.096390 -17.700451 20.810340
-3.482209 -18.071780 20.810340
-4.496700 -19.086270 20.810340
-4.868029 -20.472089 20.810340
-4.496700 -21.857908 20.810340
-3.482209 -22.872399 20.810340
-2.096390 -23.243728 20.810340
-0.710571 -22.872399 20.810340
0.303919 -21.857908 20.810340
0.024930 -20.472089 19.837070
-0.259273 -19.411429 19.837070
-1.035730 -18.634972 19.837070
-2.096390 -18.350769 19.837070
-3.157050 -18.634972 19.837070
-3.933507 -19.411429 19.837070
-4.217711 -20.472089 19.837070
-3.933507 -21.532749 19.837070
-3.157050 -22.309206 19.837070
-2.096390 -22.593409 19.837070
-1.035730 -22.309206 19.837070
-0.259273 -21.532749 19.837070
-0.948340 -20.472089 19.186752
-1.102149 -19.898064 19.186752
-1.522365 -19.477848 19.186752
-2.096390 -19.324039 19.186752
-2.670415 -19.477848 19.186752
-3.090631 -19.898064 19.186752
-3.244440 -20.472089 19.186752
-3.090631 -21.046114 19.186752
-2.670415 -21.466330 19.186752
-2.096390 -21.620139 19.186752
-1.522365 -21.466330 19.186752
-1.102149 -21.046114 19.186752
-2.096390 -20.472089 18.958390
224.803703 nan nan
225.951753 nan nan
225.797943 nan nan
225.377728 nan nan
224.803703 nan nan
224.229678 nan nan
223.809462 nan nan
223.655652 nan nan
223.809462 nan nan
224.229678 nan nan
224.803703 nan nan
225.377728 nan nan
225.797943 nan nan
226.925023 nan nan
226.640820 nan nan
225.864363 nan nan
224.803703 nan nan
223.743043 nan nan
222.966585 nan nan
222.682382 nan nan
222.966585 nan nan
223.743043 nan nan
224.803703 nan nan
225.864363 nan nan
226.640820 nan nan
227.575341 nan nan
227.204012 nan nan
226.189522 nan nan
224.803703 nan nan
223.417883 nan nan
222.403393 nan nan
222.032064 nan nan
222.403393 nan nan
223.417883 nan nan
224.803703 nan nan
226.189522 nan nan
227.204012 nan nan
227.803703 nan nan
227.401779 nan nan
226.303703 nan nan
224.803703 nan nan
223.303703 nan nan
222.205626 nan nan
221.803703 nan nan
222.205626 nan nan
223.303703 nan nan
224.803703 nan nan
226.303703 nan nan
227.401779 nan nan
227.575341 nan nan
227.204012 nan nan
226.189522 nan nan
224.803703 nan nan
223.417883 nan nan
222.403393 nan nan
222.032064 nan nan
222.403393 nan nan
223.417883 nan nan
224.803703 nan nan
226.189522 nan nan
227.204012 nan nan
226.925023 nan nan
226.640820 nan nan
225.864363 nan nan
224.803703 nan nan
223.743043 nan nan
222.966585 nan nan
222.682382 nan nan
222.966585 nan nan
223.743043 nan nan
224.803703 nan nan
225.864363 nan nan
226.640820 nan nan
225.951753 nan nan
225.797943 nan nan
225.377728 nan nan
224.803703 nan nan
224.229678 nan nan
223.809462 nan nan
223.655652 nan nan
223.809462 nan nan
224.229678 nan nan
224.803703 nan nan
225.377728 nan nan
225.797943 nan nan
224.803703 nan nan
43.168945 nan nan
44.316995 nan nan
44.163186 nan nan
43.742970 nan nan
43.168945 nan nan
42.594920 nan nan
42.174704 nan nan
42.020895 nan nan
42.174704 nan nan
42.594920 nan nan
43.168945 nan nan
43.742970 nan nan
44.163186 nan nan
45.290265 nan nan
45.006062 nan nan
44.229605 nan nan
43.168945 nan nan
42.108285 nan nan
41.331828 nan nan
41.047625 nan nan
41.331828 nan nan
42.108285 nan nan
43.168945 nan nan
44.229605 nan nan
45.006062 nan nan
45.940584 nan nan
45.569254 nan nan
44.554764 nan nan
43.168945 nan nan
41.783126 nan nan
40.768636 nan nan
40.397306 nan nan
40.768636 nan nan
41.783126 nan nan
43.168945 nan nan
44.554764 nan nan
45.569254 nan nan
46.168945 nan nan
45.767021 nan nan
44.668945 nan nan
43.168945 nan nan
41.668945 nan nan
40.570869 nan nan
40.168945 nan nan
40.570869 nan nan
41.668945 nan nan
43.168945 nan nan
44.668945 nan nan
45.767021 nan nan
45.940584 nan nan
45.569254 nan nan
44.554764 nan nan
43.168945 nan nan
41.783126 nan nan
40.768636 nan nan
40.397306 nan nan
40.768636 nan nan
41.783126 nan nan
43.168945 nan nan
44.554764 nan nan
45.569254 nan nan
45.290265 nan nan
45.006062 nan nan
44.229605 nan nan
43.168945 nan nan
42.108285 nan nan
41.331828 nan nan
41.047625 nan nan
41.331828 nan nan
42.108285 nan nan
43.168945 nan nan
44.229605 nan nan
45.006062 nan nan
44.316995 nan nan
44.163186 nan nan
43.742970 nan nan
43.168945 nan nan
42.594920 nan nan
42.174704 nan nan
42.020895 nan nan
42.174704 nan nan
42.594920 nan nan
43.168945 nan nan
43.742970 nan nan
44.163186 nan nan
43.168945 nan nan
34.765549 nan nan
35.913600 nan nan
35.759790 nan nan
35.339574 nan nan
34.765549 nan nan
34.191524 nan nan
33.771309 nan nan
33.617499 nan nan
33.771309 nan nan
34.191524 nan nan
34.765549 nan nan
35.339574 nan nan
35.759790 nan nan
36.886870 nan nan
36.602667 nan nan
35.826209 nan nan
34.765549 nan nan
33.704889 nan nan
32.928432 nan nan
32.644229 nan nan
32.928432 nan nan
33.704889 nan nan
34.765549 nan nan
35.826209 nan nan
36.602667 nan nan
37.537188 nan nan
37.165859 nan nan
36.151369 nan nan
34.765549 nan nan
33.379730 nan nan
32.365240 nan nan
31.993911 nan nan
32.365240 nan nan
33.379730 nan nan
34.765549 nan nan
36.151369 nan nan
37.165859 nan nan
37.765549 nan nan
37.363626 nan nan
36.265549 nan nan
34.765549 nan nan
33.265549 nan nan
32.167473 nan nan
31.765549 nan nan
32.167473 nan nan
33.265549 nan nan
34.765549 nan nan
36.265549 nan nan
37.363626 nan nan
37.537188 nan nan
37.165859 nan nan
36.151369 nan nan
34.765549 nan nan
33.379730 nan nan
32.365240 nan nan
31.993911 nan nan
32.365240 nan nan
33.379730 nan nan
34.765549 nan nan
36.151369 nan nan
37.165859 nan nan
36.886870 nan nan
36.602667 nan nan
35.826209 nan nan
34.765549 nan nan
33.704889 nan nan
32.928432 nan nan
32.644229 nan nan
32.928432 nan nan
33.704889 nan nan
34.765549 nan nan
35.826209 nan nan
36.602667 nan nan
35.913600 nan nan
35.759790 nan nan
35.339574 nan nan
34.765549 nan nan
34.191524 nan nan
33.771309 nan nan
33.617499 nan nan
33.771309 nan nan
34.191524 nan nan
34.765549 nan nan
35.339574 nan nan
35.759790 nan nan
34.765549 nan nan
3 0 1 2
3 0 2 3
3 0 3 4
3 0 4 5
3 0 5 6
3 0 6 7
3 0 7 8
3 0 8 9
3 0 9 10
3 0 10 11
3 0 11 12
3 0 12 1
3 1 13 2
3 2 13 14
3 2 14 3
3 3 14 15
3 3 15 4
3 4 15 16
3 4 16 5
3 5 16 17
3 5 17 6
3 6 17 18
3 6 18 7
3 7 18 19
3 7 19 8
3 8 19 20
3 8 20 9
3 9 20 21
3 9 21 10
3 10 21 22
3 10 22 11
3 11 22 23
3 11 23 12
3 12 23 24
3 12 24 1
3 1 24 13
3 13 25 14
3 14 25 26
3 14 26 15
3 15 26 27
3 15 27 16
3 16 27 28
3 16 28 17
3 17 28 29
3 17 29 18
3 18 29 30
3 18 30 19
3 19 30 31
3 19 31 20
3 20 31 32
3 20 32 21
3 21 32 33
3 21 33 22
3 22 33 34
3 22 34 23
3 23 34 35
3 23 35 24
3 24 35 36
3 24 36 13
3 13 36 25
3 25 37 26
3 26 37 38
3 26 38 27
3 27 38 39
3 27 39 28
3 28 39 40
3 28 40 29
3 29 40 41
3 29 41 30
3 30 41 42
3 30 42 31
3 31 42 43
3 31 43 32
3 32 43 44
3 32 44 33
3 33 44 45
3 33 45 34
3 34 45 46
3 34 46 35
3 35 46 47
3 35 47 36
3 36 47 48
3 36 48 25
3 25 48 37
3 37 49 38
3 38 49 50
3 38 50 39
3 39 50 51
3 39 51 40
3 40 51 52
3 40 52 41
3 41 52 53
3 41 53 42
3 42 53 54
3 42 54 43
3 43 54 55
3 43 55 44
3 44 55 56
3 44 56 45
3 45 56 57
3 45 57 46
3 46 57 58
3 46 58 47
3 47 58 59
3 47 59 48
3 48 59 60
3 48 60 37
3 37 60 49
3 49 61 50
3 50 61 62
3 50 62 51
3 51 62 63
3 51 63 52
3 52 63 64
3 52 64 53
3 53 64 65
3 53 65 54
3 54 65 66
3 54 66 55
3 55 66 67
3 55 67 56
3 56 67 68
3 56 68 57
3 57 68 69
3 57 69 58
3 58 69 70
3 58 70 59
3 59 70 71
3 59 71 60
3 60 71 72
3 60 72 49
3 49 72 61
3 61 73 62
3 62 73 74
3 62 74 63
3 63 74 75
3 63 75 64
3 64 75 76
3 64 76 65
3 65 76 77
3 65 77 66
3 66 77 78
3 66 78 67
3 67 78 79
3 67 79 68
3 68 79 80
3 68 80 69
3 69 80 81
3 69 81 70
3 70 81 82
3 70 82 71
3 71 82 83
3 71 83 72
3 72 83 84
3 72 84 61
3 61 84 73
3 85 74 73
3 85 75 74
3 85 76 75
3 85 77 76
3 85 78 77
3 85 79 78
3 85 80 79
3 85 81 80
3 85 82 81
3 85 83 82
3 85 84 83
3 85 73 84
3 86 87 88
3 86 88 89
3 86 89 90
3 86 90 91
3 86 91 92
3 86 92 93
3 86 93 94
3 86 94 95
3 86 95 96
3 86 96 97
3 86 97 98
3 86 98 87
3 87 99 88
3 88 99 100
3 88 100 89
3 89 100 101
3 89 101 90
3 90 101 102
3 90 102 91
3 91 102 103
3 91 103 92
3 92 103 104
3 92 104 93
3 93 104 105
3 93 105 94
3 94 105 106
3 94 106 95
3 95 106 107
3 95 107 96
3 96 107 108
3 96 108 97
3 97 108 109
3 97 109 98
3 98 109 110
3 98 110 87
3 87 110 99
3 99 111 100
3 100 111 112
3 100 112 101
3 101 112 113
3 101 113 102
3 102 113 114
3 102 114 103
3 103 114 115
3 103 115 104
3 104 115 116
3 104 116 105
3 105 116 117
3 105 117 106
3 106 117 118
3 106 118 107
3 107 118 119
3 107 119 108
3 108 119 120
3 108 120 109
3 109 120 121
3 109 121 110
3 110 121 122
3 110 122 99
3 99 122 111
3 111 123 112
3 112 123 124
3 112 124 113
3 113 124 125
3 113 125 114
3 114 125 126
3 114 126 115
3 115 126 127
3 115 127 116
3 116 127 128
3 116 128 117
3 117 128 129
3 117 129 118
3 118 129 130
3 118 130 119
3 119 130 131
3 119 131 120
3 120 131 132
3 120 132 121
3 121 132 133
3 121 133 122
3 122 133 134
3 122 134 111
3 111 134 123
3 123 135 124
3 124 135 136
3 124 136 125
3 125 136 137
3 125 137 126
3 126 137 138
3 126 138 127
3 127 138 139
3 127 139 128
3 128 139 140
3 128 140 129
3 129 140 141
3 129 141 130
3 130 141 142
3 130 142 131
3 131 142 143
3 131 143 132
3 132 143 144
3 132 144 133
3 133 144 145
3 133 145 134
3 134 145 146
3 134 146 123
3 123 146 135
3 135 147 136
3 136 147 148
3 136 148 137
3 137 148 149
3 137 149 138
3 138 149 150
3 138 150 139
3 139 150 151
3 139 151 140
3 140 151 152
3 140 152 141
3 141 152 153
3 141 153 142
3 142 153 154
3 142 154 143
3 143 154 155
3 143 155 144
3 144 155 156
3 144 156 145
3 145 156 157
3 145 157 146
3 146 157 158
3 146 158 135
3 135 158 147
3 147 159 148
3 148 159 160
3 148 160 149
3 149 160 161
3 149 161 150
3 150 161 162
3 150 162 151
3 151 162 163
3 151 163 152
3 152 163 164
3 152 164 153
3 153 164 165
3 153 165 154
3 154 165 166
3 154 166 155
3 155 166 167
3 155 167 156
3 156 167 168
3 156 168 157
3 157 168 169
3 157 169 158
3 158 169 170
3 158 170 147
3 147 170 159
3 171 160 159
3 171 161 160
3 171 162 161
3 171 163 162
3 171 164 163
3 171 165 164
3 171 166 165
3 171 167 166
3 171 168 167
3 171 169 168
3 171 170 169
3 171 159 170
3 172 173 174
3 172 174 175
3 172 175 176
3 172 176 177
3 172 177 178
3 172 178 179
3 172 179 180
3 172 180 181
3 172 181 182
3 172 182 183
3 172 183 184
3 172 184 173
3 173 185 174
3 174 185 186
3 174 186 175
3 175 186 187
3 175 187 176
3 176 187 188
3 176 188 177
3 177 188 189
3 177 189 178
3 178 189 190
3 178 190 179
3 179 190 191
3 179 191 180
3 180 191 192
3 180 192 181
3 181 192 193
3 181 193 182
3 182 193 194
3 182 194 183
3 183 194 195
3 183 195 184
3 184 195 196
3 184 196 173
3 173 196 185
3 185 197 186
3 186 197 198
3 186 198 187
3 187 198 199
3 187 199 188
3 188 199 200
3 188 200 189
3 189 200 201
3 189 201 190
3 190 201 202
3 190 202 191
3 191 202 203
3 191 203 192
3 192 203 204
3 192 204 193
3 193 204 205
3 193 205 194
3 194 205 206
3 194 206 195
3 195 206 207
3 195 207 196
3 196 207 208
3 196 208 185
3 185 208 197
3 197 209 198
3 198 209 210
3 198 210 199
3 199 210 211
3 199 211 200
3 200 211 212
3 200 212 201
3 201 212 213
3 201 213 202
3 202 213 214
3 202 214 203
3 203 214 215
3 203 215 204
3 204 215 216
3 204 216 205
3 205 216 217
3 205 217 206
3 206 217 218
3 206 218 207
3 207 218 219
3 207 219 208
3 208 219 220
3 208 220 197
3 197 220 209
3 209 221 210
3 210 221 222
3 210 222 211
3 211 222 223
3 211 223 212
3 212 223 224
3 212 224 213
3 213 224 225
3 213 225 214
3 214 225 226
3 214 226 215
3 215 226 227
3 215 227 216
3 216 227 228
3 216 228 217
3 217 228 229
3 217 229 218
3 218 229 230
3 218 230 219
3 219 230 231
3 219 231 220
3 220 231 232
3 220 232 209
3 209 232 221
3 221 233 222
3 222 233 234
3 222 234 223
3 223 234 235
3 223 235 224
3 224 235 236
3 224 236 225
3 225 236 237
3 225 237 226
3 226 237 238
3 226 238 227
3 227 238 239
3 227 239 228
3 228 239 240
3 228 240 229
3 229 240 241
3 229 241 230
3 230 241 242
3 230 242 231
3 231 242 243
3 231 243 232
3 232 243 244
3 232 244 221
3 221 244 233
3 233 245 234
3 234 245 246
3 234 246 235
3 235 246 247
3 235 247 236
3 236 247 248
3 236 248 237
3 237 248 249
3 237 249 238
3 238 249 250
3 238 250 239
3 239 250 251
3 239 251 240
3 240 251 252
3 240 252 241
3 241 252 253
3 241 253 242
3 242 253 254
3 242 254 243
3 243 254 255
3 243 255 244
3 244 255 256
3 244 256 233
3 233 256 245
3 257 246 245
3 257 247 246
3 257 248 247
3 257 249 248
3 257 250 249
3 257 251 250
3 257 252 251
3 257 253 252
3 257 254 253
3 257 255 254
3 257 256 255
3 257 245 256
3 258 259 260
3 258 260 261
3 258 261 262
3 258 262 263
3 258 263 264
3 258 264 265
3 258 265 266
3 258 266 267
3 258 267 268
3 258 268 269
3 258 269 270
3 258 270 259
3 259 271 260
3 260 271 272
3 260 272 261
3 261 272 273
3 261 273 262
3 262 273 274
3 262 274 263
3 263 274 275
3 263 275 264
3 264 275 276
3 264 276 265
3 265 276 277
3 265 277 266
3 266 277 278
3 266 278 267
3 267 278 279
3 267 279 268
3 268 279 280
3 268 280 269
3 269 280 281
3 269 281 270
3 270 281 282
3 270 282 259
3 259 282 271
3 271 283 272
3 272 283 284
3 272 284 273
3 273 284 285
3 273 285 274
3 274 285 286
3 274 286 275
3 275 286 287
3 275 287 276
3 276 287 288
3 276 288 277
3 277 288 289
3 277 289 278
3 278 289 290
3 278 290 279
3 279 290 291
3 279 291 280
3 280 291 292
3 280 292 281
3 281 292 293
3 281 293 282
3 282 293 294
3 282 294 271
3 271 294 283
3 283 295 284
3 284 295 296
3 284 296 285
3 285 296 297
3 285 297 286
3 286 297 298
3 286 298 287
3 287 298 299
3 287 299 288
3 288 299 300
3 288 300 289
3 289 300 301
3 289 301 290
3 290 301 302
3 290 302 291
3 291 302 303
3 291 303 292
3 292 303 304
3 292 304 293
3 293 304 305
3 293 305 294
3 294 305 306
3 294 306 283
3 283 306 295
3 295 307 296
3 296 307 308
3 296 308 297
3 297 308 309
3 297 309 298
3 298 309 310
3 298 310 299
3 299 310 311
3 299 311 300
3 300 311 312
3 300 312 301
3 301 312 313
3 301 313 302
3 302 313 314
3 302 314 303
3 303 314 315
3 303 315 304
3 304 315 316
3 304 316 305
3 305 316 317
3 305 317 306
3 306 317 318
3 306 318 295
3 295 318 307
3 307 319 308
3 308 319 320
3 308 320 309
3 309 320 321
3 309 321 310
3 310 321 322
3 310 322 311
3 311 322 323
3 311 323 312
3 312 323 324
3 312 324 313
3 313 324 325
3 313 325 314
3 314 325 326
3 314 326 315
3 315 326 327
3 315 327 316
3 316 327 328
3 316 328 317
3 317 328 329
3 317 329 318
3 318 329 330
3 318 330 307
3 307 330 319
3 319 331 320
3 320 331 332
3 320 332 321
3 321 332 333
3 321 333 322
3 322 333 334
3 322 334 323
3 323 334 335
3 323 335 324
3 324 335 336
3 324 336 325
3 325 336 337
3 325 337 326
3 326 337 338
3 326 338 327
3 327 338 339
3 327 339 328
3 328 339 340
3 328 340 329
3 329 340 341
3 329 341 330
3 330 341 342
3 330 342 319
3 319 342 331
3 343 332 331
3 343 333 332
3 343 334 333
3 343 335 334
3 343 336 335
3 343 337 336
3 343 338 337
3 343 339 338
3 343 340 339
3 343 341 340
3 343 342 341
3 343 331 342
3 344 345 346
3 344 346 347
3 344 347 348
3 344 348 349
3 344 349 350
3 344 350 351
3 344 351 352
3 344 352 353
3 344 353 354
3 344 354 355
3 344 355 356
3 344 356 345
3 345 357 346
3 346 357 358
3 346 358 347
3 347 358 359
3 347 359 348
3 348 359 360
3 348 360 349
3 349 360 361
3 349 361 350
3 350 361 362
3 350 362 351
3 351 362 363
3 351 363 352
3 352 363 364
3 352 364 353
3 353 364 365
3 353 365 354
3 354 365 366
3 354 366 355
3 355 366 367
3 355 367 356
3 356 367 368
3 356 368 345
3 345 368 357
3 357 369 358
3 358 369 370
3 358 370 359
3 359 370 371
3 359 371 360
3 360 371 372
3 360 372 361
3 361 372 373
3 361 373 362
3 362 373 374
3 362 374 363
3 363 374 375
3 363 375 364
3 364 375 376
3 364 376 365
3 365 376 377
3 365 377 366
3 366 377 378
3 366 378 367
3 367 378 379
3 367 379 368
3 368 379 380
3 368 380 357
3 357 380 369
3 369 381 370
3 370 381 382
3 370 382 371
3 371 382 383
3 371 383 372
3 372 383 384
3 372 384 373
3 373 384 385
3 373 385 374
3 374 385 386
3 374 386 375
3 375 386 387
3 375 387 376
3 376 387 388
3 376 388 377
3 377 388 389
3 377 389 378
3 378 389 390
3 378 390 379
3 379 390 391
3 379 391 380
3 380 391 392
3 380 392 369
3 369 392 381
3 381 393 382
3 382 393 394
3 382 394 383
3 383 394 395
3 383 395 384
3 384 395 396
3 384 396 385
3 385 396 397
3 385 397 386
3 386 397 398
3 386 398 387
3 387 398 399
3 387 399 388
3 388 399 400
3 388 400 389
3 389 400 401
3 389 401 390
3 390 401 402
3 390 402 391
3 391 402 403
3 391 403 392
3 392 403 404
3 392 404 381
3 381 404 393
3 393 405 394
3 394 405 406
3 394 406 395
3 395 406 407
3 395 407 396
3 396 407 408
3 396 408 397
3 397 408 409
3 397 409 398
3 398 409 410
3 398 410 399
3 399 410 411
3 399 411 400
3 400 411 412
3 400 412 401
3 401 412 413
3 401 413 402
3 402 413 414
3 402 414 403
3 403 414 415
3 403 415 404
3 404 415 416
3 404 416 393
3 393 416 405
3 405 417 406
3 406 417 418
3 406 418 407
3 407 418 419
3 407 419 408
3 408 419 420
3 408 420 409
3 409 420 421
3 409 421 410
3 410 421 422
3 410 422 411
3 411 422 423
3 411 423 412
3 412 423 424
3 412 424 413
3 413 424 425
3 413 425 414
3 414 425 426
3 414 426 415
3 415 426 427
3 415 427 416
3 416 427 428
3 416 428 405
3 405 428 417
3 429 418 417
3 429 419 418
3 429 420 419
3 429 421 420
3 429 422 421
3 429 423 422
3 429 424 423
3 429 425 424
3 429 426 425
3 429 427 426
3 429 428 427
3 429 417 428
3 430 431 432
3 430 432 433
3 430 433 434
3 430 434 435
3 430 435 436
3 430 436 437
3 430 437 438
3 430 438 439
3 430 439 440
3 430 440 441
3 430 441 442
3 430 442 431
3 431 443 432
3 432 443 444
3 432 444 433
3 433 444 445
3 433 445 434
3 434 445 446
3 434 446 435
3 435 446 447
3 435 447 436
3 436 447 448
3 436 448 437
3 437 448 449
3 437 449 438
3 438 449 450
3 438 450 439
3 439 450 451
3 439 451 440
3 440 451 452
3 440 452 441
3 441 452 453
3 441 453 442
3 442 453 454
3 442 454 431
3 431 454 443
3 443 455 444
3 444 455 456
3 444 456 445
3 445 456 457
3 445 457 446
3 446 457 458
3 446 458 447
3 447 458 459
3 447 459 448
3 448 459 460
3 448 460 449
3 449 460 461
3 449 461 450
3 450 461 462
3 450 462 451
3 451 462 463
3 451 463 452
3 452 463 464
3 452 464 453
3 453 464 465
3 453 465 454
3 454 465 466
3 454 466 443
3 443 466 455
3 455 467 456
3 456 467 468
3 456 468 457
3 457 468 469
3 457 469 458
3 458 469 470
3 458 470 459
3 459 470 471
3 459 471 460
3 460 471 472
3 460 472 461
3 461 472 473
3 461 473 462
3 462 473 474
3 462 474 463
3 463 474 475
3 463 475 464
3 464 475 476
3 464 476 465
3 465 476 477
3 465 477 466
3 466 477 478
3 466 478 455
3 455 478 467
3 467 479 468
3 468 479 480
3 468 480 469
3 469 480 481
3 469 481 470
3 470 481 482
3 470 482 471
3 471 482 483
3 471 483 472
3 472 483 484
3 472 484 473
3 473 484 485
3 473 485 474
3 474 485 486
3 474 486 475
3 475 486 487
3 475 487 476
3 476 487 488
3 476 488 477
3 477 488 489
3 477 489 478
3 478 489 490
3 478 490 467
3 467 490 479
3 479 491 480
3 480 491 492
3 480 492 481
3 481 492 493
3 481 493 482
3 482 493 494
3 482 494 483
3 483 494 495
3 483 495 484
3 484 495 496
3 484 496 485
3 485 496 497
3 485 497 486
3 486 497 498
3 486 498 487
3 487 498 499
3 487 499 488
3 488 499 500
3 488 500 489
3 489 500 501
3 489 501 490
3 490 501 502
3 490 502 479
3 479 502 491
3 491 503 492
3 492 503 504
3 492 504 493
3 493 504 505
3 493 505 494
3 494 505 506
3 494 506 495
3 495 506 507
3 495 507 496
3 496 507 508
3 496 508 497
3 497 508 509
3 497 509 498
3 498 509 510
3 498 510 499
3 499 510 511
3 499 511 500
3 500 511 512
3 500 512 501
3 501 512 513
3 501 513 502
3 502 513 514
3 502 514 491
3 491 514 503
3 515 504 503
3 515 505 504
3 515 506 505
3 515 507 506
3 515 508 507
3 515 509 508
3 515 510 509
3 515 511 510
3 515 512 511
3 515 513 512
3 515 514 513
3 515 503 514
3 516 517 518
3 516 518 519
3 516 519 520
3 516 520 521
3 516 521 522
3 516 522 523
3 516 523 524
3 516 524 525
3 516 525 526
3 516 526 527
3 516 527 528
3 516 528 517
3 517 529 518
3 518 529 530
3 518 530 519
3 519 530 531
3 519 531 520
3 520 531 532
3 520 532 521
3 521 532 533
3 521 533 522
3 522 533 534
3 522 534 523
3 523 534 535
3 523 535 524
3 524 535 536
3 524 536 525
3 525 536 537
3 525 537 526
3 526 537 538
3 526 538 527
3 527 538 539
3 527 539 528
3 528 539 540
3 528 540 517
3 517 540 529
3 529 541 530
3 530 541 542
3 530 542 531
3 531 542 543
3 531 543 532
3 532 543 544
3 532 544 533
3 533 544 545
3 533 545 534
3 534 545 546
3 534 546 535
3 535 546 547
3 535 547 536
3 536 547 548
3 536 548 537
3 537 548 549
3 537 549 538
3 538 549 550
3 538 550 539
3 539 550 551
3 539 551 540
3 540 551 552
3 540 552 529
3 529 552 541
3 541 553 542
3 542 553 554
3 542 554 543
3 543 554 555
3 543 555 544
3 544 555 556
3 544 556 545
3 545 556 557
3 545 557 546
3 546 557 558
3 546 558 547
3 547 558 559
3 547 559 548
3 548 559 560
3 548 560 549
3 549 560 561
3 549 561 550
3 550 561 562
3 550 562 551
3 551 562 563
3 551 563 552
3 552 563 564
3 552 564 541
3 541 564 553
3 553 565 554
3 554 565 566
3 554 566 555
3 555 566 567
3 555 567 556
3 556 567 568
3 556 568 557
3 557 568 569
3 557 569 558
3 558 569 570
3 558 570 559
3 559 570 571
3 559 571 560
3 560 571 572
3 560 572 561
3 561 572 573
3 561 573 562
3 562 573 574
3 562 574 563
3 563 574 575
3 563 575 564
3 564 575 576
3 564 576 553
3 553 576 565
3 565 577 566
3 566 577 578
3 566 578 567
3 567 578 579
3 567 579 568
3 568 579 580
3 568 580 569
3 569 580 581
3 569 581 570
3 570 581 582
3 570 582 571
3 571 582 583
3 571 583 572
3 572 583 584
3 572 584 573
3 573 584 585
3 573 585 574
3 574 585 586
3 574 586 575
3 575 586 587
3 575 587 576
3 576 587 588
3 576 588 565
3 565 588 577
3 577 589 578
3 578 589 590
3 578 590 579
3 579 590 591
3 579 591 580
3 580 591 592
3 580 592 581
3 581 592 593
3 581 593 582
3 582 593 594
3 582 594 583
3 583 594 595
3 583 595 584
3 584 595 596
3 584 596 585
3 585 596 597
3 585 597 586
3 586 597 598
3 586 598 587
3 587 598 599
3 587 599 588
3 588 599 600
3 588 600 577
3 577 600 589
3 601 590 589
3 601 591 590
3 601 592 591
3 601 593 592
3 601 594 593
3 601 595 594
3 601 596 595
3 601 597 596
3 601 598 597
3 601 599 598
3 601 600 599
3 601 589 600
3 602 603 604
3 602 604 605
3 602 605 606
3 602 606 607
3 602 607 608
3 602 608 609
3 602 609 610
3 602 610 611
3 602 611 612
3 602 612 613
3 602 613 614
3 602 614 603
3 603 615 604
3 604 615 616
3 604 616 605
3 605 616 617
3 605 617 606
3 606 617 618
3 606 618 607
3 607 618 619
3 607 619 608
3 608 619 620
3 608 620 609
3 609 620 621
3 609 621 610
3 610 621 622
3 610 622 611
3 611 622 623
3 611 623 612
3 612 623 624
3 612 624 613
3 613 624 625
3 613 625 614
3 614 625 626
3 614 626 603
3 603 626 615
3 615 627 616
3 616 627 628
3 616 628 617
3 617 628 629
3 617 629 618
3 618 629 630
3 618 630 619
3 619 630 631
3 619 631 620
3 620 631 632
3 620 632 621
3 621 632 633
3 621 633 622
3 622 633 634
3 622 634 623
3 623 634 635
3 623 635 624
3 624 635 636
3 624 636 625
3 625 636 637
3 625 637 626
3 626 637 638
3 626 638 615
3 615 638 627
3 627 639 628
3 628 639 640
3 628 640 629
3 629 640 641
3 629 641 630
3 630 641 642
3 630 642 631
3 631 642 643
3 631 643 632
3 632 643 644
3 632 644 633
3 633 644 645
3 633 645 634
3 634 645 646
3 634 646 635
3 635 646 647
3 635 647 636
3 636 647 648
3 636 648 637
3 637 648 649
3 637 649 638
3 638 649 650
3 638 650 627
3 627 650 639
3 639 651 640
3 640 651 652
3 640 652 641
3 641 652 653
3 641 653 642
3 642 653 654
3 642 654 643
3 643 654 655
3 643 655 644
3 644 655 656
3 644 656 645
3 645 656 657
3 645 657 646
3 646 657 658
3 646 658 647
3 647 658 659
3 647 659 648
3 648 659 660
3 648 660 649
3 649 660 661
3 649 661 650
3 650 661 662
3 650 662 639
3 639 662 651
3 651 663 652
3 652 663 664
3 652 664 653
3 653 664 665
3 653 665 654
3 654 665 666
3 654 666 655
3 655 666 667
3 655 667 656
3 656 667 668
3 656 668 657
3 657 668 669
3 657 669 658
3 658 669 670
3 658 670 659
3 659 670 671
3 659 671 660
3 660 671 672
3 660 672 661
3 661 672 673
3 661 673 662
3 662 673 674
3 662 674 651
3 651 674 663
3 663 675 664
3 664 675 676
3 664 676 665
3 665 676 677
3 665 677 666
3 666 677 678
3 666 678 667
3 667 678 679
3 667 679 668
3 668 679 680
3 668 680 669
3 669 680 681
3 669 681 670
3 670 681 682
3 670 682 671
3 671 682 683
3 671 683 672
3 672 683 684
3 672 684 673
3 673 684 685
3 673 685 674
3 674 685 686
3 674 686 663
3 663 686 675
3 687 676 675
3 687 677 676
3 687 678 677
3 687 679 678
3 687 680 679
3 687 681 680
3 687 682 681
3 687 683 682
3 687 684 683
3 687 685 684
3 687 686 685
3 687 675 686
3 688 689 690
3 688 690 691
3 688 691 692
3 688 692 693
3 688 693 694
3 688 694 695
3 688 695 696
3 688 696 697
3 688 697 698
3 688 698 699
3 688 699 700
3 688 700 689
3 689 701 690
3 690 701 702
3 690 702 691
3 691 702 703
3 691 703 692
3 692 703 704
3 692 704 693
3 693 704 705
3 693 705 694
3 694 705 706
3 694 706 695
3 695 706 707
3 695 707 696
3 696 707 708
3 696 708 697
3 697 708 709
3 697 709 698
3 698 709 710
3 698 710 699
3 699 710 711
3 699 711 700
3 700 711 712
3 700 712 689
3 689 712 701
3 701 713 702
3 702 713 714
3 702 714 703
3 703 714 715
3 703 715 704
3 704 715 716
3 704 716 705
3 705 716 717
3 705 717 706
3 706 717 718
3 706 718 707
3 707 718 719
3 707 719 708
3 708 719 720
3 708 720 709
3 709 720 721
3 709 721 710
3 710 721 722
3 710 722 711
3 711 722 723
3 711 723 712
3 712 723 724
3 712 724 701
3 701 724 713
3 713 725 714
3 714 725 726
3 714 726 715
3 715 726 727
3 715 727 716
3 716 727 728
3 716 728 717
3 717 728 729
3 717 729 718
3 718 729 730
3 718 730 719
3 719 730 731
3 719 731 720
3 720 731 732
3 720 732 721
3 721 732 733
3 721 733 722
3 722 733 734
3 722 734 723
3 723 734 735
3 723 735 724
3 724 735 736
3 724 736 713
3 713 736 725
3 725 737 726
3 726 737 738
3 726 738 727
3 727 738 739
3 727 739 728
3 728 739 740
3 728 740 729
3 729 740 741
3 729 741 730
3 730 741 742
3 730 742 731
3 731 742 743
3 731 743 732
3 732 743 744
3 732 744 733
3 733 744 745
3 733 745 734
3 734 745 746
3 734 746 735
3 735 746 747
3 735 747 736
3 736 747 748
3 736 748 725
3 725 748 737
3 737 749 738
3 738 749 750
3 738 750 739
3 739 750 751
3 739 751 740
3 740 751 752
3 740 752 741
3 741 752 753
3 741 753 742
3 742 753 754
3 742 754 743
3 743 754 755
3 743 755 744
3 744 755 756
3 744 756 745
3 745 756 757
3 745 757 746
3 746 757 758
3 746 758 747
3 747 758 759
3 747 759 748
3 748 759 760
3 748 760 737
3 737 760 749
3 749 761 750
3 750 761 762
3 750 762 751
3 751 762 763
3 751 763 752
3 752 763 764
3 752 764 753
3 753 764 765
3 753 765 754
3 754 765 766
3 754 766 755
3 755 766 767
3 755 767 756
3 756 767 768
3 756 768 757
3 757 768 769
3 757 769 758
3 758 769 770
3 758 770 759
3 759 770 771
3 759 771 760
3 760 771 772
3 760 772 749
3 749 772 761
3 773 762 761
3 773 763 762
3 773 764 763
3 773 765 764
3 773 766 765
3 773 767 766
3 773 768 767
3 773 769 768
3 773 770 769
3 773 771 770
3 773 772 771
3 773 761 772
3 774 775 776
3 774 776 777
3 774 777 778
3 774 778 779
3 774 779 780
3 774 780 781
3 774 781 782
3 774 782 783
3 774 783 784
3 774 784 785
3 774 785 786
3 774 786 775
3 775 787 776
3 776 787 788
3 776 788 777
3 777 788 789
3 777 789 778
3 778 789 790
3 778 790 779
3 779 790 791
3 779 791 780
3 780 791 792
3 780 792 781
3 781 792 793
3 781 793 782
3 782 793 794
3 782 794 783
3 783 794 795
3 783 795 784
3 784 795 796
3 784 796 785
3 785 796 797
3 785 797 786
3 786 797 798
3 786 798 775
3 775 798 787
3 787 799 788
3 788 799 800
3 788 800 789
3 789 800 801
3 789 801 790
3 790 801 802
3 790 802 791
3 791 802 803
3 791 803 792
3 792 803 804
3 792 804 793
3 793 804 805
3 793 805 794
3 794 805 806
3 794 806 795
3 795 806 807
3 795 807 796
3 796 807 808
3 796 808 797
3 797 808 809
3 797 809 798
3 798 809 810
3 798 810 787
3 787 810 799
3 799 811 800
3 800 811 812
3 800 812 801
3 801 812 813
3 801 813 802
3 802 813 814
3 802 814 803
3 803 814 815
3 803 815 804
3 804 815 816
3 804 816 805
3 805 816 817
3 805 817 806
3 806 817 818
3 806 818 807
3 807 818 819
3 807 819 808
3 808 819 820
3 808 820 809
3 809 820 821
3 809 821 810
3 810 821 822
3 810 822 799
3 799 822 811
3 811 823 812
3 812 823 824
3 812 824 813
3 813 824 825
3 813 825 814
3 814 825 826
3 814 826 815
3 815 826 827
3 815 827 816
3 816 827 828
3 816 828 817
3 817 828 829
3 817 829 818
3 818 829 830
3 818 830 819
3 819 830 831
3 819 831 820
3 820 831 832
3 820 832 821
3 821 832 833
3 821 833 822
3 822 833 834
3 822 834 811
3 811 834 823
3 823 835 824
3 824 835 836
3 824 836 825
3 825 836 837
3 825 837 826
3 826 837 838
3 826 838 827
3 827 838 839
3 827 839 828
3 828 839 840
3 828 840 829
3 829 840 841
3 829 841 830
3 830 841 842
3 830 842 831
3 831 842 843
3 831 843 832
3 832 843 844
3 832 844 833
3 833 844 845
3 833 845 834
3 834 845 846
3 834 846 823
3 823 846 835
3 835 847 836
3 836 847 848
3 836 848 837
3 837 848 849
3 837 849 838
3 838 849 850
3 838 850 839
3 839 850 851
3 839 851 840
3 840 851 852
3 840 852 841
3 841 852 853
3 841 853 842
3 842 853 854
3 842 854 843
3 843 854 855
3 843 855 844
3 844 855 856
3 844 856 845
3 845 856 857
3 845 857 846
3 846 857 858
3 846 858 835
3 835 858 847
3 859 848 847
3 859 849 848
3 859 850 849
3 859 851 850
3 859 852 851
3 859 853 852
3 859 854 853
3 859 855 854
3 859 856 855
3 859 857 856
3 859 858 857
3 859 847 858
3 860 861 862
3 860 862 863
3 860 863 864
3 860 864 865
3 860 865 866
3 860 866 867
3 860 867 868
3 860 868 869
3 860 869 870
3 860 870 871
3 860 871 872
3 860 872 861
3 861 873 862
3 862 873 874
3 862 874 863
3 863 874 875
3 863 875 864
3 864 875 876
3 864 876 865
3 865 876 877
3 865 877 866
3 866 877 878
3 866 878 867
3 867 878 879
3 867 879 868
3 868 879 880
3 868 880 869
3 869 880 881
3 869 881 870
3 870 881 882
3 870 882 871
3 871 882 883
3 871 883 872
3 872 883 884
3 872 884 861
3 861 884 873
3 873 885 874
3 874 885 886
3 874 886 875
3 875 886 887
3 875 887 876
3 876 887 888
3 876 888 877
3 877 888 889
3 877 889 878
3 878 889 890
3 878 890 879
3 879 890 891
3 879 891 880
3 880 891 892
3 880 892 881
3 881 892 893
3 881 893 882
3 882 893 894
3 882 894 883
3 883 894 895
3 883 895 884
3 884 895 896
3 884 896 873
3 873 896 885
3 885 897 886
3 886 897 898
3 886 898 887
3 887 898 899
3 887 899 888
3 888 899 900
3 888 900 889
3 889 900 901
3 889 901 890
3 890 901 902
3 890 902 891
3 891 902 903
3 891 903 892
3 892 903 904
3 892 904 893
3 893 904 905
3 893 905 894
3 894 905 906
3 894 906 895
3 895 906 907
3 895 907 896
3 896 907 908
3 896 908 885
3 885 908 897
3 897 909 898
3 898 909 910
3 898 910 899
3 899 910 911
3 899 911 900
3 900 911 912
3 900 912 901
3 901 912 913
3 901 913 902
3 902 913 914
3 902 914 903
3 903 914 915
3 903 915 904
3 904 915 916
3 904 916 905
3 905 916 917
3 905 917 906
3 906 917 918
3 906 918 907
3 907 918 919
3 907 919 908
3 908 919 920
3 908 920 897
3 897 920 909
3 909 921 910
3 910 921 922
3 910 922 911
3 911 922 923
3 911 923 912
3 912 923 924
3 912 924 913
3 913 924 925
3 913 925 914
3 914 925 926
3 914 926 915
3 915 926 927
3 915 927 916
3 916 927 928
3 916 928 917
3 917 928 929
3 917 929 918
3 918 929 930
3 918 930 919
3 919 930 931
3 919 931 920
3 920 931 932
3 920 932 909
3 909 932 921
3 921 933 922
3 922 933 934
3 922 934 923
3 923 934 935
3 923 935 924
3 924 935 936
3 924 936 925
3 925 936 937
3 925 937 926
3 926 937 938
3 926 938 927
3 927 938 939
3 927 939 928
3 928 939 940
3 928 940 929
3 929 940 941
3 929 941 930
3 930 941 942
3 930 942 931
3 931 942 943
3 931 943 932
3 932 943 944
3 932 944 921
3 921 944 933
3 945 934 933
3 945 935 934
3 945 936 935
3 945 937 936
3 945 938 937
3 945 939 938
3 945 940 939
3 945 941 940
3 945 942 941
3 945 943 942
3 945 944 943
3 945 933 944
3 946 947 948
3 946 948 949
3 946 949 950
3 946 950 951
3 946 951 952
3 946 952 953
3 946 953 954
3 946 954 955
3 946 955 956
3 946 956 957
3 946 957 958
3 946 958 947
3 947 959 948
3 948 959 960
3 948 960 949
3 949 960 961
3 949 961 950
3 950 961 962
3 950 962 951
3 951 962 963
3 951 963 952
3 952 963 964
3 952 964 953
3 953 964 965
3 953 965 954
3 954 965 966
3 954 966 955
3 955 966 967
3 955 967 956
3 956 967 968
3 956 968 957
3 957 968 969
3 957 969 958
3 958 969 970
3 958 970 947
3 947 970 959
3 959 971 960
3 960 971 972
3 960 972 961
3 961 972 973
3 961 973 962
3 962 973 974
3 962 974 963
3 963 974 975
3 963 975 964
3 964 975 976
3 964 976 965
3 965 976 977
3 965 977 966
3 966 977 978
3 966 978 967
3 967 978 979
3 967 979 968
3 968 979 980
3 968 980 969
3 969 980 981
3 969 981 970
3 970 981 982
3 970 982 959
3 959 982 971
3 971 983 972
3 972 983 984
3 972 984 973
3 973 984 985
3 973 985 974
3 974 985 986
3 974 986 975
3 975 986 987
3 975 987 976
3 976 987 988
3 976 988 977
3 977 988 989
3 977 989 978
3 978 989 990
3 978 990 979
3 979 990 991
3 979 991 980
3 980 991 992
3 980 992 981
3 981 992 993
3 981 993 982
3 982 993 994
3 982 994 971
3 971 994 983
3 983 995 984
3 984 995 996
3 984 996 985
3 985 996 997
3 985 997 986
3 986 997 998
3 986 998 987
3 987 998 999
3 987 999 988
3 988 999 1000
3 988 1000 989
3 989 1000 1001
3 989 1001 990
3 990 1001 1002
3 990 1002 991
3 991 1002 1003
3 991 1003 992
3 992 1003 1004
3 992 1004 993
3 993 1004 1005
3 993 1005 994
3 994 1005 1006
3 994 1006 983
3 983 1006 995
3 995 1007 996
3 996 1007 1008
3 996 1008 997
3 997 1008 1009
3 997 1009 998
3 998 1009 1010
3 998 1010 999
3 999 1010 1011
3 999 1011 1000
3 1000 1011 1012
3 1000 1012 1001
3 1001 1012 1013
3 1001 1013 1002
3 1002 1013 1014
3 1002 1014 1003
3 1003 1014 1015
3 1003 1015 1004
3 1004 1015 1016
3 1004 1016 1005
3 1005 1016 1017
3 1005 1017 1006
3 1006 1017 1018
3 1006 1018 995
3 995 1018 1007
3 1007 1019 1008
3 1008 1019 1020
3 1008 1020 1009
3 1009 1020 1021
3 1009 1021 1010
3 1010 1021 1022
3 1010 1022 1011
3 1011 1022 1023
3 1011 1023 1012
3 1012 1023 1024
3 1012 1024 1013
3 1013 1024 1025
3 1013 1025 1014
3 1014 1025 1026
3 1014 1026 1015
3 1015 1026 1027
3 1015 1027 1016
3 1016 1027 1028
3 1016 1028 1017
3 1017 1028 1029
3 1017 1029 1018
3 1018 1029 1030
3 1018 1030 1007
3 1007 1030 1019
3 1031 1020 1019
3 1031 1021 1020
3 1031 1022 1021
3 1031 1023 1022
3 1031 1024 1023
3 1031 1025 1024
3 1031 1026 1025
3 1031 1027 1026
3 1031 1028 1027
3 1031 1029 1028
3 1031 1030 1029
3 1031 1019 1030
3 1032 1033 1034
3 1032 1034 1035
3 1032 1035 1036
3 1032 1036 1037
3 1032 1037 1038
3 1032 1038 1039
3 1032 1039 1040
3 1032 1040 1041
3 1032 1041 1042
3 1032 1042 1043
3 1032 1043 1044
3 1032 1044 1033
3 1033 1045 1034
3 1034 1045 1046
3 1034 1046 1035
3 1035 1046 1047
3 1035 1047 1036
3 1036 1047 1048
3 1036 1048 1037
3 1037 1048 1049
3 1037 1049 1038
3 1038 1049 1050
3 1038 1050 1039
3 1039 1050 1051
3 1039 1051 1040
3 1040 1051 1052
3 1040 1052 1041
3 1041 1052 1053
3 1041 1053 1042
3 1042 1053 1054
3 1042 1054 1043
3 1043 1054 1055
3 1043 1055 1044
3 1044 1055 1056
3 1044 1056 1033
3 1033 1056 1045
3 1045 1057 1046
3 1046 1057 1058
3 1046 1058 1047
3 1047 1058 1059
3 1047 1059 1048
3 1048 1059 1060
3 1048 1060 1049
3 1049 1060 1061
3 1049 1061 1050
3 1050 1061 1062
3 1050 1062 1051
3 1051 1062 1063
3 1051 1063 1052
3 1052 1063 1064
3 1052 1064 1053
3 1053 1064 1065
3 1053 1065 1054
3 1054 1065 1066
3 1054 1066 1055
3 1055 1066 1067
3 1055 1067 1056
3 1056 1067 1068
3 1056 1068 1045
3 1045 1068 1057
3 1057 1069 1058
3 1058 1069 1070
3 1058 1070 1059
3 1059 1070 1071
3 1059 1071 1060
3 1060 1071 1072
3 1060 1072 1061
3 1061 1072 1073
3 1061 1073 1062
3 1062 1073 1074
3 1062 1074 1063
3 1063 1074 1075
3 1063 1075 1064
3 1064 1075 1076
3 1064 1076 1065
3 1065 1076 1077
3 1065 1077 1066
3 1066 1077 1078
3 1066 1078 1067
3 1067 1078 1079
3 1067 1079 1068
3 1068 1079 1080
3 1068 1080 1057
3 1057 1080 1069
3 1069 1081 1070
3 1070 1081 1082
3 1070 1082 1071
3 1071 1082 1083
3 1071 1083 1072
3 1072 1083 1084
3 1072 1084 1073
3 1073 1084 1085
3 1073 1085 1074
3 1074 1085 1086
3 1074 1086 1075
3 1075 1086 1087
3 1075 1087 1076
3 1076 1087 1088
3 1076 1088 1077
3 1077 1088 1089
3 1077 1089 1078
3 1078 1089 1090
3 1078 1090 1079
3 1079 1090 1091
3 1079 1091 1080
3 1080 1091 1092
3 1080 1092 1069
3 1069 1092 1081
3 1081 1093 1082
3 1082 1093 1094
3 1082 1094 1083
3 1083 1094 1095
3 1083 1095 1084
3 1084 1095 1096
3 1084 1096 1085
3 1085 1096 1097
3 1085 1097 1086
3 1086 1097 1098
3 1086 1098 1087
3 1087 1098 1099
3 1087 1099 1088
3 1088 1099 1100
3 1088 1100 1089
3 1089 1100 1101
3 1089 1101 1090
3 1090 1101 1102
3 1090 1102 1091
3 1091 1102 1103
3 1091 1103 1092
3 1092 1103 1104
3 1092 1104 1081
3 1081 1104 1093
3 1093 1105 1094
3 1094 1105 1106
3 1094 1106 1095
3 1095 1106 1107
3 1095 1107 1096
3 1096 1107 1108
3 1096 1108 1097
3 1097 1108 1109
3 1097 1109 1098
3 1098 1109 1110
3 1098 1110 1099
3 1099 1110 1111
3 1099 1111 1100
3 1100 1111 1112
3 1100 1112 1101
3 1101 1112 1113
3 1101 1113 1102
3 1102 1113 1114
3 1102 1114 1103
3 1103 1114 1115
3 1103 1115 1104
3 1104 1115 1116
3 1104 1116 1093
3 1093 1116 1105
3 1117 1106 1105
3 1117 1107 1106
3 1117 1108 1107
3 1117 1109 1108
3 1117 1110 1109
3 1117 1111 1110
3 1117 1112 1111
3 1117 1113 1112
3 1117 1114 1113
3 1117 1115 1114
3 1117 1116 1115
3 1117 1105 1116
3 1118 1119 1120
3 1118 1120 1121
3 1118 1121 1122
3 1118 1122 1123
3 1118 1123 1124
3 1118 1124 1125
3 1118 1125 1126
3 1118 1126 1127
3 1118 1127 1128
3 1118 1128 1129
3 1118 1129 1130
3 1118 1130 1119
3 1119 1131 1120
3 1120 1131 1132
3 1120 1132 1121
3 1121 1132 1133
3 1121 1133 1122
3 1122 1133 1134
3 1122 1134 1123
3 1123 1134 1135
3 1123 1135 1124
3 1124 1135 1136
3 1124 1136 1125
3 1125 1136 1137
3 1125 1137 1126
3 1126 1137 1138
3 1126 1138 1127
3 1127 1138 1139
3 1127 1139 1128
3 1128 1139 1140
3 1128 1140 1129
3 1129 1140 1141
3 1129 1141 1130
3 1130 1141 1142
3 1130 1142 1119
3 1119 1142 1131
3 1131 1143 1132
3 1132 1143 1144
3 1132 1144 1133
3 1133 1144 1145
3 1133 1145 1134
3 1134 1145 1146
3 1134 1146 1135
3 1135 1146 1147
3 1135 1147 1136
3 1136 1147 1148
3 1136 1148 1137
3 1137 1148 1149
3 1137 1149 1138
3 1138 1149 1150
3 1138 1150 1139
3 1139 1150 1151
3 1139 1151 1140
3 1140 1151 1152
3 1140 1152 1141
3 1141 1152 1153
3 1141 1153 1142
3 1142 1153 1154
3 1142 1154 1131
3 1131 1154 1143
3 1143 1155 1144
3 1144 1155 1156
3 1144 1156 1145
3 1145 1156 1157
3 1145 1157 1146
3 1146 1157 1158
3 1146 1158 1147
3 1147 1158 1159
3 1147 1159 1148
3 1148 1159 1160
3 1148 1160 1149
3 1149 1160 1161
3 1149 1161 1150
3 1150 1161 1162
3 1150 1162 1151
3 1151 1162 1163
3 1151 1163 1152
3 1152 1163 1164
3 1152 1164 1153
3 1153 1164 1165
3 1153 1165 1154
3 1154 1165 1166
3 1154 1166 1143
3 1143 1166 1155
3 1155 1167 1156
3 1156 1167 1168
3 1156 1168 1157
3 1157 1168 1169
3 1157 1169 1158
3 1158 1169 1170
3 1158 1170 1159
3 1159 1170 1171
3 1159 1171 1160
3 1160 1171 1172
3 1160 1172 1161
3 1161 1172 1173
3 1161 1173 1162
3 1162 1173 1174
3 1162 1174 1163
3 1163 1174 1175
3 1163 1175 1164
3 1164 1175 1176
3 1164 1176 1165
3 1165 1176 1177
3 1165 1177 1166
3 1166 1177 1178
3 1166 1178 1155
3 1155 1178 1167
3 1167 1179 1168
3 1168 1179 1180
3 1168 1180 1169
3 1169 1180 1181
3 1169 1181 1170
3 1170 1181 1182
3 1170 1182 1171
3 1171 1182 1183
3 1171 1183 1172
3 1172 1183 1184
3 1172 1184 1173
3 1173 1184 1185
3 1173 1185 1174
3 1174 1185 1186
3 1174 1186 1175
3 1175 1186 1187
3 1175 1187 1176
3 1176 1187 1188
3 1176 1188 1177
3 1177 1188 1189
3 1177 1189 1178
3 1178 1189 1190
3 1178 1190 1167
3 1167 1190 1179
3 1179 1191 1180
3 1180 1191 1192
3 1180 1192 1181
3 1181 1192 1193
3 1181 1193 1182
3 1182 1193 1194
3 1182 1194 1183
3 1183 1194 1195
3 1183 1195 1184
3 1184 1195 1196
3 1184 1196 1185
3 1185 1196 1197
3 1185 1197 1186
3 1186 1197 1198
3 1186 1198 1187
3 1187 1198 1199
3 1187 1199 1188
3 1188 1199 1200
3 1188 1200 1189
3 1189 1200 1201
3 1189 1201 1190
3 1190 1201 1202
3 1190 1202 1179
3 1179 1202 1191
3 1203 1192 1191
3 1203 1193 1192
3 1203 1194 1193
3 1203 1195 1194
3 1203 1196 1195
3 1203 1197 1196
3 1203 1198 1197
3 1203 1199 1198
3 1203 1200 1199
3 1203 1201 1200
3 1203 1202 1201
3 1203 1191 1202
3 1204 1205 1206
3 1204 1206 1207
3 1204 1207 1208
3 1204 1208 1209
3 1204 1209 1210
3 1204 1210 1211
3 1204 1211 1212
3 1204 1212 1213
3 1204 1213 1214
3 1204 1214 1215
3 1204 1215 1216
3 1204 1216 1205
3 1205 1217 1206
3 1206 1217 1218
3 1206 1218 1207
3 1207 1218 1219
3 1207 1219 1208
3 1208 1219 1220
3 1208 1220 1209
3 1209 1220 1221
3 1209 1221 1210
3 1210 1221 1222
3 1210 1222 1211
3 1211 1222 1223
3 1211 1223 1212
3 1212 1223 1224
3 1212 1224 1213
3 1213 1224 1225
3 1213 1225 1214
3 1214 1225 1226
3 1214 1226 1215
3 1215 1226 1227
3 1215 1227 1216
3 1216 1227 1228
3 1216 1228 1205
3 1205 1228 1217
3 1217 1229 1218
3 1218 1229 1230
3 1218 1230 1219
3 1219 1230 1231
3 1219 1231 1220
3 1220 1231 1232
3 1220 1232 1221
3 1221 1232 1233
3 1221 1233 1222
3 1222 1233 1234
3 1222 1234 1223
3 1223 1234 1235
3 1223 1235 1224
3 1224 1235 1236
3 1224 1236 1225
3 1225 1236 1237
3 1225 1237 1226
3 1226 1237 1238
3 1226 1238 1227
3 1227 1238 1239
3 1227 1239 1228
3 1228 1239 1240
3 1228 1240 1217
3 1217 1240 1229
3 1229 1241 1230
3 1230 1241 1242
3 1230 1242 1231
3 1231 1242 1243
3 1231 1243 1232
3 1232 1243 1244
3 1232 1244 1233
3 1233 1244 1245
3 1233 1245 1234
3 1234 1245 1246
3 1234 1246 1235
3 1235 1246 1247
3 1235 1247 1236
3 1236 1247 1248
3 1236 1248 1237
3 1237 1248 1249
3 1237 1249 1238
3 1238 1249 1250
3 1238 1250 1239
3 1239 1250 1251
3 1239 1251 1240
3 1240 1251 1252
3 1240 1252 1229
3 1229 1252 1241
3 1241 1253 1242
3 1242 1253 1254
3 1242 1254 1243
3 1243 1254 1255
3 1243 1255 1244
3 1244 1255 1256
3 1244 1256 1245
3 1245 1256 1257
3 1245 1257 1246
3 1246 1257 1258
3 1246 1258 1247
3 1247 1258 1259
3 1247 1259 1248
3 1248 1259 1260
3 1248 1260 1249
3 1249 1260 1261
3 1249 1261 1250
3 1250 1261 1262
3 1250 1262 1251
3 1251 1262 1263
3 1251 1263 1252
3 1252 1263 1264
3 1252 1264 1241
3 1241 1264 1253
3 1253 1265 1254
3 1254 1265 1266
3 1254 1266 1255
3 1255 1266 1267
3 1255 1267 1256
3 1256 1267 1268
3 1256 1268 1257
3 1257 1268 1269
3 1257 1269 1258
3 1258 1269 1270
3 1258 1270 1259
3 1259 1270 1271
3 1259 1271 1260
3 1260 1271 1272
3 1260 1272 1261
3 1261 1272 1273
3 1261 1273 1262
3 1262 1273 1274
3 1262 1274 1263
3 1263 1274 1275
3 1263 1275 1264
3 1264 1275 1276
3 1264 1276 1253
3 1253 1276 1265
3 1265 1277 1266
3 1266 1277 1278
3 1266 1278 1267
3 1267 1278 1279
3 1267 1279 1268
3 1268 1279 1280
3 1268 1280 1269
3 1269 1280 1281
3 1269 1281 1270
3 1270 1281 1282
3 1270 1282 1271
3 1271 1282 1283
3 1271 1283 1272
3 1272 1283 1284
3 1272 1284 1273
3 1273 1284 1285
3 1273 1285 1274
3 1274 1285 1286
3 1274 1286 1275
3 1275 1286 1287
3 1275 1287 1276
3 1276 1287 1288
3 1276 1288 1265
3 1265 1288 1277
3 1289 1278 1277
3 1289 1279 1278
3 1289 1280 1279
3 1289 1281 1280
3 1289 1282 1281
3 1289 1283 1282
3 1289 1284 1283
3 1289 1285 1284
3 1289 1286 1285
3 1289 1287 1286
3 1289 1288 1287
3 1289 1277 1288
