ply
format ascii 1.0
element vertex 1290
property float x
property float y
property float z
element face 2520
property list uchar int vertex_indices
end_header
-112.946209 -21.494825 258.208365
-111.798159 -21.494825 257.980004
-111.951968 -20.920800 257.980004
-112.372184 -20.500584 257.980004
-112.946209 -20.346775 257.980004
-113.520234 -20.500584 257.980004
-113.940450 -20.920800 257.980004
-114.094259 -21.494825 257.980004
-113.940450 -22.068850 257.980004
-113.520234 -22.489066 257.980004
-112.946209 -22.642875 257.980004
-112.372184 -22.489066 257.980004
-111.951968 -22.068850 257.980004
-110.824889 -21.494825 257.329686
-111.109092 -20.434165 257.329686
-111.885549 -19.657708 257.329686
-112.946209 -19.373505 257.329686
-114.006869 -19.657708 257.329686
-114.783326 -20.434165 257.329686
-115.067529 -21.494825 257.329686
-114.783326 -22.555485 257.329686
-114.006869 -23.331942 257.329686
-112.946209 -23.616145 257.329686
-111.885549 -23.331942 257.329686
-111.109092 -22.555485 257.329686
-110.174571 -21.494825 256.356416
-110.545900 -20.109006 256.356416
-111.560390 -19.094515 256.356416
-112.946209 -18.723186 256.356416
-114.332028 -19.094515 256.356416
-115.346519 -20.109006 256.356416
-115.717848 -21.494825 256.356416
-115.346519 -22.880644 256.356416
-114.332028 -23.895134 256.356416
-112.946209 -24.266463 256.356416
-111.560390 -23.895134 256.356416
-110.545900 -22.880644 256.356416
-109.946209 -21.494825 255.208365
-110.348133 -19.994825 255.208365
-111.446209 -18.896749 255.208365
-112.946209 -18.494825 255.208365
-114.446209 -18.896749 255.208365
-115.544285 -19.994825 255.208365
-115.946209 -21.494825 255.208365
-115.544285 -22.994825 255.208365
-114.446209 -24.092901 255.208365
-112.946209 -24.494825 255.208365
-111.446209 -24.092901 255.208365
-110.348133 -22.994825 255.208365
-110.174571 -21.494825 254.060315
-110.545900 -20.109006 254.060315
-111.560390 -19.094515 254.060315
-112.946209 -18.723186 254.060315
-114.332028 -19.094515 254.060315
-115.346519 -20.109006 254.060315
-115.717848 -21.494825 254.060315
-115.346519 -22.880644 254.060315
-114.332028 -23.895134 254.060315
-112.946209 -24.266463 254.060315
-111.560390 -23.895134 254.060315
-110.545900 -22.880644 254.060315
-110.824889 -21.494825 253.087045
-111.109092 -20.434165 253.087045
-111.885549 -19.657708 253.087045
-112.946209 -19.373505 253.087045
-114.006869 -19.657708 253.087045
-114.783326 -20.434165 253.087045
-115.067529 -21.494825 253.087045
-114.783326 -22.555485 253.087045
-114.006869 -23.331942 253.087045
-112.946209 -23.616145 253.087045
-111.885549 -23.331942 253.087045
-111.109092 -22.555485 253.087045
-111.798159 -21.494825 252.436727
-111.951968 -20.920800 252.436727
-112.372184 -20.500584 252.436727
-112.946209 -20.346775 252.436727
-113.520234 -20.500584 252.436727
-113.940450 -20.920800 252.436727
-114.094259 -21.494825 252.436727
-113.940450 -22.068850 252.436727
-113.520234 -22.489066 252.436727
-112.946209 -22.642875 252.436727
-112.372184 -22.489066 252.436727
-111.951968 -22.068850 252.436727
-112.946209 -21.494825 252.208365
12.885285 -1.789144 5.075021
14.033335 -1.789144 4.846660
13.879525 -1.215119 4.846660
13.459310 -0.794903 4.846660
12.885285 -0.641094 4.846660
12.311260 -0.794903 4.846660
11.891044 -1.215119 4.846660
11.737234 -1.789144 4.846660
11.891044 -2.363169 4.846660
12.311260 -2.783385 4.846660
12.885285 -2.937194 4.846660
13.459310 -2.783385 4.846660
13.879525 -2.363169 4.846660
15.006605 -1.789144 4.196342
14.722402 -0.728484 4.196342
13.945945 0.047973 4.196342
12.885285 0.332176 4.196342
11.824625 0.047973 4.196342
11.048167 -0.728484 4.196342
10.763964 -1.789144 4.196342
11.048167 -2.849804 4.196342
11.824625 -3.626261 4.196342
12.885285 -3.910464 4.196342
13.945945 -3.626261 4.196342
14.722402 -2.849804 4.196342
15.656923 -1.789144 3.223072
15.285594 -0.403325 3.223072
14.271104 0.611165 3.223072
12.885285 0.982495 3.223072
11.499465 0.611165 3.223072
10.484975 -0.403325 3.223072
10.113646 -1.789144 3.223072
10.484975 -3.174963 3.223072
11.499465 -4.189453 3.223072
12.885285 -4.560783 3.223072
14.271104 -4.189453 3.223072
15.285594 -3.174963 3.223072
15.885285 -1.789144 2.075021
15.483361 -0.289144 2.075021
14.385285 0.808932 2.075021
12.885285 1.210856 2.075021
11.385285 0.808932 2.075021
10.287209 -0.289144 2.075021
9.885285 -1.789144 2.075021
10.287209 -3.289144 2.075021
11.385285 -4.387220 2.075021
12.885285 -4.789144 2.075021
14.385285 -4.387220 2.075021
15.483361 -3.289144 2.075021
15.656923 -1.789144 0.926971
15.285594 -0.403325 0.926971
14.271104 0.611165 0.926971
12.885285 0.982495 0.926971
11.499465 0.611165 0.926971
10.484975 -0.403325 0.926971
10.113646 -1.789144 0.926971
10.484975 -3.174963 0.926971
11.499465 -4.189453 0.926971
12.885285 -4.560783 0.926971
14.271104 -4.189453 0.926971
15.285594 -3.174963 0.926971
15.006605 -1.789144 -0.046299
14.722402 -0.728484 -0.046299
13.945945 0.047973 -0.046299
12.885285 0.332176 -0.046299
11.824625 0.047973 -0.046299
11.048167 -0.728484 -0.046299
10.763964 -1.789144 -0.046299
11.048167 -2.849804 -0.046299
11.824625 -3.626261 -0.046299
12.885285 -3.910464 -0.046299
13.945945 -3.626261 -0.046299
14.722402 -2.849804 -0.046299
14.033335 -1.789144 -0.696617
13.879525 -1.215119 -0.696617
13.459310 -0.794903 -0.696617
12.885285 -0.641094 -0.696617
12.311260 -0.794903 -0.696617
11.891044 -1.215119 -0.696617
11.737234 -1.789144 -0.696617
11.891044 -2.363169 -0.696617
12.311260 -2.783385 -0.696617
12.885285 -2.937194 -0.696617
13.459310 -2.783385 -0.696617
13.879525 -2.363169 -0.696617
12.885285 -1.789144 -0.924979
0.478694 -29.125921 11.959102
1.626744 -29.125921 11.730741
1.472935 -28.551896 11.730741
1.052719 -28.131681 11.730741
0.478694 -27.977871 11.730741
-0.095331 -28.131681 11.730741
-0.515547 -28.551896 11.730741
-0.669356 -29.125921 11.730741
-0.515547 -29.699947 11.730741
-0.095331 -30.120162 11.730741
0.478694 -30.273972 11.730741
1.052719 -30.120162 11.730741
1.472935 -29.699947 11.730741
2.600014 -29.125921 11.080423
2.315811 -28.065261 11.080423
1.539354 -27.288804 11.080423
0.478694 -27.004601 11.080423
-0.581966 -27.288804 11.080423
-1.358423 -28.065261 11.080423
-1.642626 -29.125921 11.080423
-1.358423 -30.186582 11.080423
-0.581966 -30.963039 11.080423
0.478694 -31.247242 11.080423
1.539354 -30.963039 11.080423
2.315811 -30.186582 11.080423
3.250333 -29.125921 10.107153
2.879003 -27.740102 10.107153
1.864513 -26.725612 10.107153
0.478694 -26.354283 10.107153
-0.907125 -26.725612 10.107153
-1.921616 -27.740102 10.107153
-2.292945 -29.125921 10.107153
-1.921616 -30.511741 10.107153
-0.907125 -31.526231 10.107153
0.478694 -31.897560 10.107153
1.864513 -31.526231 10.107153
2.879003 -30.511741 10.107153
3.478694 -29.125921 8.959102
3.076770 -27.625921 8.959102
1.978694 -26.527845 8.959102
0.478694 -26.125921 8.959102
-1.021306 -26.527845 8.959102
-2.119382 -27.625921 8.959102
-2.521306 -29.125921 8.959102
-2.119382 -30.625921 8.959102
-1.021306 -31.723998 8.959102
0.478694 -32.125921 8.959102
1.978694 -31.723998 8.959102
3.076770 -30.625921 8.959102
3.250333 -29.125921 7.811052
2.879003 -27.740102 7.811052
1.864513 -26.725612 7.811052
0.478694 -26.354283 7.811052
-0.907125 -26.725612 7.811052
-1.921616 -27.740102 7.811052
-2.292945 -29.125921 7.811052
-1.921616 -30.511741 7.811052
-0.907125 -31.526231 7.811052
0.478694 -31.897560 7.811052
1.864513 -31.526231 7.811052
2.879003 -30.511741 7.811052
2.600014 -29.125921 6.837782
2.315811 -28.065261 6.837782
1.539354 -27.288804 6.837782
0.478694 -27.004601 6.837782
-0.581966 -27.288804 6.837782
-1.358423 -28.065261 6.837782
-1.642626 -29.125921 6.837782
-1.358423 -30.186582 6.837782
-0.581966 -30.963039 6.837782
0.478694 -31.247242 6.837782
1.539354 -30.963039 6.837782
2.315811 -30.186582 6.837782
1.626744 -29.125921 6.187464
1.472935 -28.551896 6.187464
1.052719 -28.131681 6.187464
0.478694 -27.977871 6.187464
-0.095331 -28.131681 6.187464
-0.515547 -28.551896 6.187464
-0.669356 -29.125921 6.187464
-0.515547 -29.699947 6.187464
-0.095331 -30.120162 6.187464
0.478694 -30.273972 6.187464
1.052719 -30.120162 6.187464
1.472935 -29.699947 6.187464
0.478694 -29.125921 5.959102
11.137101 23.012594 18.273122
12.285152 23.012594 18.044761
12.131342 23.586619 18.044761
11.711127 24.006835 18.044761
11.137101 24.160644 18.044761
10.563076 24.006835 18.044761
10.142861 23.586619 18.044761
9.989051 23.012594 18.044761
10.142861 22.438569 18.044761
10.563076 22.018353 18.044761
11.137101 21.864544 18.044761
11.711127 22.018353 18.044761
12.131342 22.438569 18.044761
13.258422 23.012594 17.394443
12.974219 24.073254 17.394443
12.197762 24.849711 17.394443
11.137101 25.133914 17.394443
10.076441 24.849711 17.394443
9.299984 24.073254 17.394443
9.015781 23.012594 17.394443
9.299984 21.951934 17.394443
10.076441 21.175477 17.394443
11.137101 20.891274 17.394443
12.197762 21.175477 17.394443
12.974219 21.951934 17.394443
13.908740 23.012594 16.421173
13.537411 24.398413 16.421173
12.522921 25.412903 16.421173
11.137101 25.784233 16.421173
9.751282 25.412903 16.421173
8.736792 24.398413 16.421173
8.365463 23.012594 16.421173
8.736792 21.626775 16.421173
9.751282 20.612284 16.421173
11.137101 20.240955 16.421173
12.522921 20.612284 16.421173
13.537411 21.626775 16.421173
14.137101 23.012594 15.273122
13.735178 24.512594 15.273122
12.637101 25.610670 15.273122
11.137101 26.012594 15.273122
9.637101 25.610670 15.273122
8.539025 24.512594 15.273122
8.137101 23.012594 15.273122
8.539025 21.512594 15.273122
9.637101 20.414518 15.273122
11.137101 20.012594 15.273122
12.637101 20.414518 15.273122
13.735178 21.512594 15.273122
13.908740 23.012594 14.125072
13.537411 24.398413 14.125072
12.522921 25.412903 14.125072
11.137101 25.784233 14.125072
9.751282 25.412903 14.125072
8.736792 24.398413 14.125072
8.365463 23.012594 14.125072
8.736792 21.626775 14.125072
9.751282 20.612284 14.125072
11.137101 20.240955 14.125072
12.522921 20.612284 14.125072
13.537411 21.626775 14.125072
13.258422 23.012594 13.151802
12.974219 24.073254 13.151802
12.197762 24.849711 13.151802
11.137101 25.133914 13.151802
10.076441 24.849711 13.151802
9.299984 24.073254 13.151802
9.015781 23.012594 13.151802
9.299984 21.951934 13.151802
10.076441 21.175477 13.151802
11.137101 20.891274 13.151802
12.197762 21.175477 13.151802
12.974219 21.951934 13.151802
12.285152 23.012594 12.501484
12.131342 23.586619 12.501484
11.711127 24.006835 12.501484
11.137101 24.160644 12.501484
10.563076 24.006835 12.501484
10.142861 23.586619 12.501484
9.989051 23.012594 12.501484
10.142861 22.438569 12.501484
10.563076 22.018353 12.501484
11.137101 21.864544 12.501484
11.711127 22.018353 12.501484
12.131342 22.438569 12.501484
11.137101 23.012594 12.273122
13.016023 -14.824198 -3.143073
14.164073 -14.824198 -3.371435
14.010263 -14.250173 -3.371435
13.590048 -13.829957 -3.371435
13.016023 -13.676148 -3.371435
12.441998 -13.829957 -3.371435
12.021782 -14.250173 -3.371435
11.867972 -14.824198 -3.371435
12.021782 -15.398223 -3.371435
12.441998 -15.818439 -3.371435
13.016023 -15.972248 -3.371435
13.590048 -15.818439 -3.371435
14.010263 -15.398223 -3.371435
15.137343 -14.824198 -4.021753
14.853140 -13.763538 -4.021753
14.076683 -12.987081 -4.021753
13.016023 -12.702878 -4.021753
11.955363 -12.987081 -4.021753
11.178905 -13.763538 -4.021753
10.894702 -14.824198 -4.021753
11.178905 -15.884858 -4.021753
11.955363 -16.661315 -4.021753
13.016023 -16.945519 -4.021753
14.076683 -16.661315 -4.021753
14.853140 -15.884858 -4.021753
15.787661 -14.824198 -4.995023
15.416332 -13.438379 -4.995023
14.401842 -12.423889 -4.995023
13.016023 -12.052560 -4.995023
11.630203 -12.423889 -4.995023
10.615713 -13.438379 -4.995023
10.244384 -14.824198 -4.995023
10.615713 -16.210017 -4.995023
11.630203 -17.224508 -4.995023
13.016023 -17.595837 -4.995023
14.401842 -17.224508 -4.995023
15.416332 -16.210017 -4.995023
16.016023 -14.824198 -6.143073
15.614099 -13.324198 -6.143073
14.516023 -12.226122 -6.143073
13.016023 -11.824198 -6.143073
11.516023 -12.226122 -6.143073
10.417947 -13.324198 -6.143073
10.016023 -14.824198 -6.143073
10.417947 -16.324198 -6.143073
11.516023 -17.422274 -6.143073
13.016023 -17.824198 -6.143073
14.516023 -17.422274 -6.143073
15.614099 -16.324198 -6.143073
15.787661 -14.824198 -7.291123
15.416332 -13.438379 -7.291123
14.401842 -12.423889 -7.291123
13.016023 -12.052560 -7.291123
11.630203 -12.423889 -7.291123
10.615713 -13.438379 -7.291123
10.244384 -14.824198 -7.291123
10.615713 -16.210017 -7.291123
11.630203 -17.224508 -7.291123
13.016023 -17.595837 -7.291123
14.401842 -17.224508 -7.291123
15.416332 -16.210017 -7.291123
15.137343 -14.824198 -8.264393
14.853140 -13.763538 -8.264393
14.076683 -12.987081 -8.264393
13.016023 -12.702878 -8.264393
11.955363 -12.987081 -8.264393
11.178905 -13.763538 -8.264393
10.894702 -14.824198 -8.264393
11.178905 -15.884858 -8.264393
11.955363 -16.661315 -8.264393
13.016023 -16.945519 -8.264393
14.076683 -16.661315 -8.264393
14.853140 -15.884858 -8.264393
14.164073 -14.824198 -8.914712
14.010263 -14.250173 -8.914712
13.590048 -13.829957 -8.914712
13.016023 -13.676148 -8.914712
12.441998 -13.829957 -8.914712
12.021782 -14.250173 -8.914712
11.867972 -14.824198 -8.914712
12.021782 -15.398223 -8.914712
12.441998 -15.818439 -8.914712
13.016023 -15.972248 -8.914712
13.590048 -15.818439 -8.914712
14.010263 -15.398223 -8.914712
13.016023 -14.824198 -9.143073
17.971278 11.514966 4.042950
19.119329 11.514966 3.814589
18.965519 12.088991 3.814589
18.545303 12.509207 3.814589
17.971278 12.663016 3.814589
17.397253 12.509207 3.814589
16.977038 12.088991 3.814589
16.823228 11.514966 3.814589
16.977038 10.940941 3.814589
17.397253 10.520725 3.814589
17.971278 10.366916 3.814589
18.545303 10.520725 3.814589
18.965519 10.940941 3.814589
20.092599 11.514966 3.164270
19.808396 12.575626 3.164270
19.031938 13.352083 3.164270
17.971278 13.636286 3.164270
16.910618 13.352083 3.164270
16.134161 12.575626 3.164270
15.849958 11.514966 3.164270
16.134161 10.454306 3.164270
16.910618 9.677849 3.164270
17.971278 9.393646 3.164270
19.031938 9.677849 3.164270
19.808396 10.454306 3.164270
20.742917 11.514966 2.191000
20.371588 12.900785 2.191000
19.357098 13.915275 2.191000
17.971278 14.286605 2.191000
16.585459 13.915275 2.191000
15.570969 12.900785 2.191000
15.199640 11.514966 2.191000
15.570969 10.129147 2.191000
16.585459 9.114657 2.191000
17.971278 8.743327 2.191000
19.357098 9.114657 2.191000
20.371588 10.129147 2.191000
20.971278 11.514966 1.042950
20.569355 13.014966 1.042950
19.471278 14.113042 1.042950
17.971278 14.514966 1.042950
16.471278 14.113042 1.042950
15.373202 13.014966 1.042950
14.971278 11.514966 1.042950
15.373202 10.014966 1.042950
16.471278 8.916890 1.042950
17.971278 8.514966 1.042950
19.471278 8.916890 1.042950
20.569355 10.014966 1.042950
20.742917 11.514966 -0.105100
20.371588 12.900785 -0.105100
19.357098 13.915275 -0.105100
17.971278 14.286605 -0.105100
16.585459 13.915275 -0.105100
15.570969 12.900785 -0.105100
15.199640 11.514966 -0.105100
15.570969 10.129147 -0.105100
16.585459 9.114657 -0.105100
17.971278 8.743327 -0.105100
19.357098 9.114657 -0.105100
20.371588 10.129147 -0.105100
20.092599 11.514966 -1.078370
19.808396 12.575626 -1.078370
19.031938 13.352083 -1.078370
17.971278 13.636286 -1.078370
16.910618 13.352083 -1.078370
16.134161 12.575626 -1.078370
15.849958 11.514966 -1.078370
16.134161 10.454306 -1.078370
16.910618 9.677849 -1.078370
17.971278 9.393646 -1.078370
19.031938 9.677849 -1.078370
19.808396 10.454306 -1.078370
19.119329 11.514966 -1.728689
18.965519 12.088991 -1.728689
18.545303 12.509207 -1.728689
17.971278 12.663016 -1.728689
17.397253 12.509207 -1.728689
16.977038 12.088991 -1.728689
16.823228 11.514966 -1.728689
16.977038 10.940941 -1.728689
17.397253 10.520725 -1.728689
17.971278 10.366916 -1.728689
18.545303 10.520725 -1.728689
18.965519 10.940941 -1.728689
17.971278 11.514966 -1.957050
-9.961569 -11.991688 -4.009046
-8.813519 -11.991688 -4.237407
-8.967329 -11.417663 -4.237407
-9.387544 -10.997448 -4.237407
-9.961569 -10.843638 -4.237407
-10.535594 -10.997448 -4.237407
-10.955810 -11.417663 -4.237407
-11.109620 -11.991688 -4.237407
-10.955810 -12.565713 -4.237407
-10.535594 -12.985929 -4.237407
-9.961569 -13.139739 -4.237407
-9.387544 -12.985929 -4.237407
-8.967329 -12.565713 -4.237407
-7.840249 -11.991688 -4.887725
-8.124452 -10.931028 -4.887725
-8.900909 -10.154571 -4.887725
-9.961569 -9.870368 -4.887725
-11.022229 -10.154571 -4.887725
-11.798687 -10.931028 -4.887725
-12.082890 -11.991688 -4.887725
-11.798687 -13.052348 -4.887725
-11.022229 -13.828806 -4.887725
-9.961569 -14.113009 -4.887725
-8.900909 -13.828806 -4.887725
-8.124452 -13.052348 -4.887725
-7.189931 -11.991688 -5.860996
-7.561260 -10.605869 -5.860996
-8.575750 -9.591379 -5.860996
-9.961569 -9.220050 -5.860996
-11.347389 -9.591379 -5.860996
-12.361879 -10.605869 -5.860996
-12.733208 -11.991688 -5.860996
-12.361879 -13.377508 -5.860996
-11.347389 -14.391998 -5.860996
-9.961569 -14.763327 -5.860996
-8.575750 -14.391998 -5.860996
-7.561260 -13.377508 -5.860996
-6.961569 -11.991688 -7.009046
-7.363493 -10.491688 -7.009046
-8.461569 -9.393612 -7.009046
-9.961569 -8.991688 -7.009046
-11.461569 -9.393612 -7.009046
-12.559645 -10.491688 -7.009046
-12.961569 -11.991688 -7.009046
-12.559645 -13.491688 -7.009046
-11.461569 -14.589764 -7.009046
-9.961569 -14.991688 -7.009046
-8.461569 -14.589764 -7.009046
-7.363493 -13.491688 -7.009046
-7.189931 -11.991688 -8.157096
-7.561260 -10.605869 -8.157096
-8.575750 -9.591379 -8.157096
-9.961569 -9.220050 -8.157096
-11.347389 -9.591379 -8.157096
-12.361879 -10.605869 -8.157096
-12.733208 -11.991688 -8.157096
-12.361879 -13.377508 -8.157096
-11.347389 -14.391998 -8.157096
-9.961569 -14.763327 -8.157096
-8.575750 -14.391998 -8.157096
-7.561260 -13.377508 -8.157096
-7.840249 -11.991688 -9.130366
-8.124452 -10.931028 -9.130366
-8.900909 -10.154571 -9.130366
-9.961569 -9.870368 -9.130366
-11.022229 -10.154571 -9.130366
-11.798687 -10.931028 -9.130366
-12.082890 -11.991688 -9.130366
-11.798687 -13.052348 -9.130366
-11.022229 -13.828806 -9.130366
-9.961569 -14.113009 -9.130366
-8.900909 -13.828806 -9.130366
-8.124452 -13.052348 -9.130366
-8.813519 -11.991688 -9.780684
-8.967329 -11.417663 -9.780684
-9.387544 -10.997448 -9.780684
-9.961569 -10.843638 -9.780684
-10.535594 -10.997448 -9.780684
-10.955810 -11.417663 -9.780684
-11.109620 -11.991688 -9.780684
-10.955810 -12.565713 -9.780684
-10.535594 -12.985929 -9.780684
-9.961569 -13.139739 -9.780684
-9.387544 -12.985929 -9.780684
-8.967329 -12.565713 -9.780684
-9.961569 -11.991688 -10.009046
-1.924953 19.315647 1.775612
-0.776903 19.315647 1.547250
-0.930712 19.889673 1.547250
-1.350928 20.309888 1.547250
-1.924953 20.463698 1.547250
-2.498978 20.309888 1.547250
-2.919194 19.889673 1.547250
-3.073003 19.315647 1.547250
-2.919194 18.741622 1.547250
-2.498978 18.321407 1.547250
-1.924953 18.167597 1.547250
-1.350928 18.321407 1.547250
-0.930712 18.741622 1.547250
0.196367 19.315647 0.896932
-0.087836 20.376308 0.896932
-0.864293 21.152765 0.896932
-1.924953 21.436968 0.896932
-2.985613 21.152765 0.896932
-3.762070 20.376308 0.896932
-4.046273 19.315647 0.896932
-3.762070 18.254987 0.896932
-2.985613 17.478530 0.896932
-1.924953 17.194327 0.896932
-0.864293 17.478530 0.896932
-0.087836 18.254987 0.896932
0.846685 19.315647 -0.076338
0.475356 20.701467 -0.076338
-0.539134 21.715957 -0.076338
-1.924953 22.087286 -0.076338
-3.310772 21.715957 -0.076338
-4.325263 20.701467 -0.076338
-4.696592 19.315647 -0.076338
-4.325263 17.929828 -0.076338
-3.310772 16.915338 -0.076338
-1.924953 16.544009 -0.076338
-0.539134 16.915338 -0.076338
0.475356 17.929828 -0.076338
1.075047 19.315647 -1.224388
0.673123 20.815647 -1.224388
-0.424953 21.913724 -1.224388
-1.924953 22.315647 -1.224388
-3.424953 21.913724 -1.224388
-4.523029 20.815647 -1.224388
-4.924953 19.315647 -1.224388
-4.523029 17.815647 -1.224388
-3.424953 16.717571 -1.224388
-1.924953 16.315647 -1.224388
-0.424953 16.717571 -1.224388
0.673123 17.815647 -1.224388
0.846685 19.315647 -2.372439
0.475356 20.701467 -2.372439
-0.539134 21.715957 -2.372439
-1.924953 22.087286 -2.372439
-3.310772 21.715957 -2.372439
-4.325263 20.701467 -2.372439
-4.696592 19.315647 -2.372439
-4.325263 17.929828 -2.372439
-3.310772 16.915338 -2.372439
-1.924953 16.544009 -2.372439
-0.539134 16.915338 -2.372439
0.475356 17.929828 -2.372439
0.196367 19.315647 -3.345709
-0.087836 20.376308 -3.345709
-0.864293 21.152765 -3.345709
-1.924953 21.436968 -3.345709
-2.985613 21.152765 -3.345709
-3.762070 20.376308 -3.345709
-4.046273 19.315647 -3.345709
-3.762070 18.254987 -3.345709
-2.985613 17.478530 -3.345709
-1.924953 17.194327 -3.345709
-0.864293 17.478530 -3.345709
-0.087836 18.254987 -3.345709
-0.776903 19.315647 -3.996027
-0.930712 19.889673 -3.996027
-1.350928 20.309888 -3.996027
-1.924953 20.463698 -3.996027
-2.498978 20.309888 -3.996027
-2.919194 19.889673 -3.996027
-3.073003 19.315647 -3.996027
-2.919194 18.741622 -3.996027
-2.498978 18.321407 -3.996027
-1.924953 18.167597 -3.996027
-1.350928 18.321407 -3.996027
-0.930712 18.741622 -3.996027
-1.924953 19.315647 -4.224388
23.627917 -14.552738 20.492223
24.775968 -14.552738 20.263861
24.622158 -13.978712 20.263861
24.201942 -13.558497 20.263861
23.627917 -13.404687 20.263861
23.053892 -13.558497 20.263861
22.633677 -13.978712 20.263861
22.479867 -14.552738 20.263861
22.633677 -15.126763 20.263861
23.053892 -15.546978 20.263861
23.627917 -15.700788 20.263861
24.201942 -15.546978 20.263861
24.622158 -15.126763 20.263861
25.749238 -14.552738 19.613543
25.465035 -13.492077 19.613543
24.688577 -12.715620 19.613543
23.627917 -12.431417 19.613543
22.567257 -12.715620 19.613543
21.790800 -13.492077 19.613543
21.506597 -14.552738 19.613543
21.790800 -15.613398 19.613543
22.567257 -16.389855 19.613543
23.627917 -16.674058 19.613543
24.688577 -16.389855 19.613543
25.465035 -15.613398 19.613543
26.399556 -14.552738 18.640273
26.028227 -13.166918 18.640273
25.013737 -12.152428 18.640273
23.627917 -11.781099 18.640273
22.242098 -12.152428 18.640273
21.227608 -13.166918 18.640273
20.856279 -14.552738 18.640273
21.227608 -15.938557 18.640273
22.242098 -16.953047 18.640273
23.627917 -17.324376 18.640273
25.013737 -16.953047 18.640273
26.028227 -15.938557 18.640273
26.627917 -14.552738 17.492223
26.225994 -13.052738 17.492223
25.127917 -11.954661 17.492223
23.627917 -11.552738 17.492223
22.127917 -11.954661 17.492223
21.029841 -13.052738 17.492223
20.627917 -14.552738 17.492223
21.029841 -16.052738 17.492223
22.127917 -17.150814 17.492223
23.627917 -17.552738 17.492223
25.127917 -17.150814 17.492223
26.225994 -16.052738 17.492223
26.399556 -14.552738 16.344172
26.028227 -13.166918 16.344172
25.013737 -12.152428 16.344172
23.627917 -11.781099 16.344172
22.242098 -12.152428 16.344172
21.227608 -13.166918 16.344172
20.856279 -14.552738 16.344172
21.227608 -15.938557 16.344172
22.242098 -16.953047 16.344172
23.627917 -17.324376 16.344172
25.013737 -16.953047 16.344172
26.028227 -15.938557 16.344172
25.749238 -14.552738 15.370902
25.465035 -13.492077 15.370902
24.688577 -12.715620 15.370902
23.627917 -12.431417 15.370902
22.567257 -12.715620 15.370902
21.790800 -13.492077 15.370902
21.506597 -14.552738 15.370902
21.790800 -15.613398 15.370902
22.567257 -16.389855 15.370902
23.627917 -16.674058 15.370902
24.688577 -16.389855 15.370902
25.465035 -15.613398 15.370902
24.775968 -14.552738 14.720584
24.622158 -13.978712 14.720584
24.201942 -13.558497 14.720584
23.627917 -13.404687 14.720584
23.053892 -13.558497 14.720584
22.633677 -13.978712 14.720584
22.479867 -14.552738 14.720584
22.633677 -15.126763 14.720584
23.053892 -15.546978 14.720584
23.627917 -15.700788 14.720584
24.201942 -15.546978 14.720584
24.622158 -15.126763 14.720584
23.627917 -14.552738 14.492223
30.180396 8.028021 25.957653
31.328446 8.028021 25.729291
31.174637 8.602046 25.729291
30.754421 9.022261 25.729291
30.180396 9.176071 25.729291
29.606371 9.022261 25.729291
29.186155 8.602046 25.729291
29.032346 8.028021 25.729291
29.186155 7.453995 25.729291
29.606371 7.033780 25.729291
30.180396 6.879970 25.729291
30.754421 7.033780 25.729291
31.174637 7.453995 25.729291
32.301716 8.028021 25.078973
32.017513 9.088681 25.078973
31.241056 9.865138 25.078973
30.180396 10.149341 25.078973
29.119736 9.865138 25.078973
28.343279 9.088681 25.078973
28.059076 8.028021 25.078973
28.343279 6.967360 25.078973
29.119736 6.190903 25.078973
30.180396 5.906700 25.078973
31.241056 6.190903 25.078973
32.017513 6.967360 25.078973
32.952035 8.028021 24.105703
32.580706 9.413840 24.105703
31.566215 10.428330 24.105703
30.180396 10.799659 24.105703
28.794577 10.428330 24.105703
27.780087 9.413840 24.105703
27.408757 8.028021 24.105703
27.780087 6.642201 24.105703
28.794577 5.627711 24.105703
30.180396 5.256382 24.105703
31.566215 5.627711 24.105703
32.580706 6.642201 24.105703
33.180396 8.028021 22.957653
32.778472 9.528021 22.957653
31.680396 10.626097 22.957653
30.180396 11.028021 22.957653
28.680396 10.626097 22.957653
27.582320 9.528021 22.957653
27.180396 8.028021 22.957653
27.582320 6.528021 22.957653
28.680396 5.429944 22.957653
30.180396 5.028021 22.957653
31.680396 5.429944 22.957653
32.778472 6.528021 22.957653
32.952035 8.028021 21.809602
32.580706 9.413840 21.809602
31.566215 10.428330 21.809602
30.180396 10.799659 21.809602
28.794577 10.428330 21.809602
27.780087 9.413840 21.809602
27.408757 8.028021 21.809602
27.780087 6.642201 21.809602
28.794577 5.627711 21.809602
30.180396 5.256382 21.809602
31.566215 5.627711 21.809602
32.580706 6.642201 21.809602
32.301716 8.028021 20.836332
32.017513 9.088681 20.836332
31.241056 9.865138 20.836332
30.180396 10.149341 20.836332
29.119736 9.865138 20.836332
28.343279 9.088681 20.836332
28.059076 8.028021 20.836332
28.343279 6.967360 20.836332
29.119736 6.190903 20.836332
30.180396 5.906700 20.836332
31.241056 6.190903 20.836332
32.017513 6.967360 20.836332
31.328446 8.028021 20.186014
31.174637 8.602046 20.186014
30.754421 9.022261 20.186014
30.180396 9.176071 20.186014
29.606371 9.022261 20.186014
29.186155 8.602046 20.186014
29.032346 8.028021 20.186014
29.186155 7.453995 20.186014
29.606371 7.033780 20.186014
30.180396 6.879970 20.186014
30.754421 7.033780 20.186014
31.174637 7.453995 20.186014
30.180396 8.028021 19.957653
-14.234153 -14.816907 14.391214
-13.086102 -14.816907 14.162853
-13.239912 -14.242881 14.162853
-13.660128 -13.822666 14.162853
-14.234153 -13.668856 14.162853
-14.808178 -13.822666 14.162853
-15.228393 -14.242881 14.162853
-15.382203 -14.816907 14.162853
-15.228393 -15.390932 14.162853
-14.808178 -15.811147 14.162853
-14.234153 -15.964957 14.162853
-13.660128 -15.811147 14.162853
-13.239912 -15.390932 14.162853
-12.112832 -14.816907 13.512534
-12.397035 -13.756246 13.512534
-13.173493 -12.979789 13.512534
-14.234153 -12.695586 13.512534
-15.294813 -12.979789 13.512534
-16.071270 -13.756246 13.512534
-16.355473 -14.816907 13.512534
-16.071270 -15.877567 13.512534
-15.294813 -16.654024 13.512534
-14.234153 -16.938227 13.512534
-13.173493 -16.654024 13.512534
-12.397035 -15.877567 13.512534
-11.462514 -14.816907 12.539264
-11.833843 -13.431087 12.539264
-12.848333 -12.416597 12.539264
-14.234153 -12.045268 12.539264
-15.619972 -12.416597 12.539264
-16.634462 -13.431087 12.539264
-17.005791 -14.816907 12.539264
-16.634462 -16.202726 12.539264
-15.619972 -17.217216 12.539264
-14.234153 -17.588545 12.539264
-12.848333 -17.217216 12.539264
-11.833843 -16.202726 12.539264
-11.234153 -14.816907 11.391214
-11.636077 -13.316907 11.391214
-12.734153 -12.218830 11.391214
-14.234153 -11.816907 11.391214
-15.734153 -12.218830 11.391214
-16.832229 -13.316907 11.391214
-17.234153 -14.816907 11.391214
-16.832229 -16.316907 11.391214
-15.734153 -17.414983 11.391214
-14.234153 -17.816907 11.391214
-12.734153 -17.414983 11.391214
-11.636077 -16.316907 11.391214
-11.462514 -14.816907 10.243164
-11.833843 -13.431087 10.243164
-12.848333 -12.416597 10.243164
-14.234153 -12.045268 10.243164
-15.619972 -12.416597 10.243164
-16.634462 -13.431087 10.243164
-17.005791 -14.816907 10.243164
-16.634462 -16.202726 10.243164
-15.619972 -17.217216 10.243164
-14.234153 -17.588545 10.243164
-12.848333 -17.217216 10.243164
-11.833843 -16.202726 10.243164
-12.112832 -14.816907 9.269894
-12.397035 -13.756246 9.269894
-13.173493 -12.979789 9.269894
-14.234153 -12.695586 9.269894
-15.294813 -12.979789 9.269894
-16.071270 -13.756246 9.269894
-16.355473 -14.816907 9.269894
-16.071270 -15.877567 9.269894
-15.294813 -16.654024 9.269894
-14.234153 -16.938227 9.269894
-13.173493 -16.654024 9.269894
-12.397035 -15.877567 9.269894
-13.086102 -14.816907 8.619575
-13.239912 -14.242881 8.619575
-13.660128 -13.822666 8.619575
-14.234153 -13.668856 8.619575
-14.808178 -13.822666 8.619575
-15.228393 -14.242881 8.619575
-15.382203 -14.816907 8.619575
-15.228393 -15.390932 8.619575
-14.808178 -15.811147 8.619575
-14.234153 -15.964957 8.619575
-13.660128 -15.811147 8.619575
-13.239912 -15.390932 8.619575
-14.234153 -14.816907 8.391214
-8.835518 16.086843 17.659771
-7.687468 16.086843 17.431409
-7.841277 16.660868 17.431409
-8.261493 17.081083 17.431409
-8.835518 17.234893 17.431409
-9.409543 17.081083 17.431409
-9.829759 16.660868 17.431409
-9.983568 16.086843 17.431409
-9.829759 15.512817 17.431409
-9.409543 15.092602 17.431409
-8.835518 14.938792 17.431409
-8.261493 15.092602 17.431409
-7.841277 15.512817 17.431409
-6.714198 16.086843 16.781091
-6.998401 17.147503 16.781091
-7.774858 17.923960 16.781091
-8.835518 18.208163 16.781091
-9.896178 17.923960 16.781091
-10.672635 17.147503 16.781091
-10.956838 16.086843 16.781091
-10.672635 15.026182 16.781091
-9.896178 14.249725 16.781091
-8.835518 13.965522 16.781091
-7.774858 14.249725 16.781091
-6.998401 15.026182 16.781091
-6.063879 16.086843 15.807821
-6.435209 17.472662 15.807821
-7.449699 18.487152 15.807821
-8.835518 18.858481 15.807821
-10.221337 18.487152 15.807821
-11.235828 17.472662 15.807821
-11.607157 16.086843 15.807821
-11.235828 14.701023 15.807821
-10.221337 13.686533 15.807821
-8.835518 13.315204 15.807821
-7.449699 13.686533 15.807821
-6.435209 14.701023 15.807821
-5.835518 16.086843 14.659771
-6.237442 17.586843 14.659771
-7.335518 18.684919 14.659771
-8.835518 19.086843 14.659771
-10.335518 18.684919 14.659771
-11.433594 17.586843 14.659771
-11.835518 16.086843 14.659771
-11.433594 14.586843 14.659771
-10.335518 13.488766 14.659771
-8.835518 13.086843 14.659771
-7.335518 13.488766 14.659771
-6.237442 14.586843 14.659771
-6.063879 16.086843 13.511721
-6.435209 17.472662 13.511721
-7.449699 18.487152 13.511721
-8.835518 18.858481 13.511721
-10.221337 18.487152 13.511721
-11.235828 17.472662 13.511721
-11.607157 16.086843 13.511721
-11.235828 14.701023 13.511721
-10.221337 13.686533 13.511721
-8.835518 13.315204 13.511721
-7.449699 13.686533 13.511721
-6.435209 14.701023 13.511721
-6.714198 16.086843 12.538450
-6.998401 17.147503 12.538450
-7.774858 17.923960 12.538450
-8.835518 18.208163 12.538450
-9.896178 17.923960 12.538450
-10.672635 17.147503 12.538450
-10.956838 16.086843 12.538450
-10.672635 15.026182 12.538450
-9.896178 14.249725 12.538450
-8.835518 13.965522 12.538450
-7.774858 14.249725 12.538450
-6.998401 15.026182 12.538450
-7.687468 16.086843 11.888132
-7.841277 16.660868 11.888132
-8.261493 17.081083 11.888132
-8.835518 17.234893 11.888132
-9.409543 17.081083 11.888132
-9.829759 16.660868 11.888132
-9.983568 16.086843 11.888132
-9.829759 15.512817 11.888132
-9.409543 15.092602 11.888132
-8.835518 14.938792 11.888132
-8.261493 15.092602 11.888132
-7.841277 15.512817 11.888132
-8.835518 16.086843 11.659771
283.369667 nan nan
284.517718 nan nan
284.363908 nan nan
283.943693 nan nan
283.369667 nan nan
282.795642 nan nan
282.375427 nan nan
282.221617 nan nan
282.375427 nan nan
282.795642 nan nan
283.369667 nan nan
283.943693 nan nan
284.363908 nan nan
285.490988 nan nan
285.206785 nan nan
284.430328 nan nan
283.369667 nan nan
282.309007 nan nan
281.532550 nan nan
281.248347 nan nan
281.532550 nan nan
282.309007 nan nan
283.369667 nan nan
284.430328 nan nan
285.206785 nan nan
286.141306 nan nan
285.769977 nan nan
284.755487 nan nan
283.369667 nan nan
281.983848 nan nan
280.969358 nan nan
280.598029 nan nan
280.969358 nan nan
281.983848 nan nan
283.369667 nan nan
284.755487 nan nan
285.769977 nan nan
286.369667 nan nan
285.967744 nan nan
284.869667 nan nan
283.369667 nan nan
281.869667 nan nan
280.771591 nan nan
280.369667 nan nan
280.771591 nan nan
281.869667 nan nan
283.369667 nan nan
284.869667 nan nan
285.967744 nan nan
286.141306 nan nan
285.769977 nan nan
284.755487 nan nan
283.369667 nan nan
281.983848 nan nan
280.969358 nan nan
280.598029 nan nan
280.969358 nan nan
281.983848 nan nan
283.369667 nan nan
284.755487 nan nan
285.769977 nan nan
285.490988 nan nan
285.206785 nan nan
284.430328 nan nan
283.369667 nan nan
282.309007 nan nan
281.532550 nan nan
281.248347 nan nan
281.532550 nan nan
282.309007 nan nan
283.369667 nan nan
284.430328 nan nan
285.206785 nan nan
284.517718 nan nan
284.363908 nan nan
283.943693 nan nan
283.369667 nan nan
282.795642 nan nan
282.375427 nan nan
282.221617 nan nan
282.375427 nan nan
282.795642 nan nan
283.369667 nan nan
283.943693 nan nan
284.363908 nan nan
283.369667 nan nan
53.590048 nan nan
54.738099 nan nan
54.584289 nan nan
54.164074 nan nan
53.590048 nan nan
53.016023 nan nan
52.595808 nan nan
52.441998 nan nan
52.595808 nan nan
53.016023 nan nan
53.590048 nan nan
54.164074 nan nan
54.584289 nan nan
55.711369 nan nan
55.427166 nan nan
54.650709 nan nan
53.590048 nan nan
52.529388 nan nan
51.752931 nan nan
51.468728 nan nan
51.752931 nan nan
52.529388 nan nan
53.590048 nan nan
54.650709 nan nan
55.427166 nan nan
56.361687 nan nan
55.990358 nan nan
54.975868 nan nan
53.590048 nan nan
52.204229 nan nan
51.189739 nan nan
50.818410 nan nan
51.189739 nan nan
52.204229 nan nan
53.590048 nan nan
54.975868 nan nan
55.990358 nan nan
56.590048 nan nan
56.188125 nan nan
55.090048 nan nan
53.590048 nan nan
52.090048 nan nan
50.991972 nan nan
50.590048 nan nan
50.991972 nan nan
52.090048 nan nan
53.590048 nan nan
55.090048 nan nan
56.188125 nan nan
56.361687 nan nan
55.990358 nan nan
54.975868 nan nan
53.590048 nan nan
52.204229 nan nan
51.189739 nan nan
50.818410 nan nan
51.189739 nan nan
52.204229 nan nan
53.590048 nan nan
54.975868 nan nan
55.990358 nan nan
55.711369 nan nan
55.427166 nan nan
54.650709 nan nan
53.590048 nan nan
52.529388 nan nan
51.752931 nan nan
51.468728 nan nan
51.752931 nan nan
52.529388 nan nan
53.590048 nan nan
54.650709 nan nan
55.427166 nan nan
54.738099 nan nan
54.584289 nan nan
54.164074 nan nan
53.590048 nan nan
53.016023 nan nan
52.595808 nan nan
52.441998 nan nan
52.595808 nan nan
53.016023 nan nan
53.590048 nan nan
54.164074 nan nan
54.584289 nan nan
53.590048 nan nan
41.748474 nan nan
42.896524 nan nan
42.742715 nan nan
42.322499 nan nan
41.748474 nan nan
41.174449 nan nan
40.754233 nan nan
40.600424 nan nan
40.754233 nan nan
41.174449 nan nan
41.748474 nan nan
42.322499 nan nan
42.742715 nan nan
43.869794 nan nan
43.585591 nan nan
42.809134 nan nan
41.748474 nan nan
40.687814 nan nan
39.911357 nan nan
39.627153 nan nan
39.911357 nan nan
40.687814 nan nan
41.748474 nan nan
42.809134 nan nan
43.585591 nan nan
44.520112 nan nan
44.148783 nan nan
43.134293 nan nan
41.748474 nan nan
40.362655 nan nan
39.348164 nan nan
38.976835 nan nan
39.348164 nan nan
40.362655 nan nan
41.748474 nan nan
43.134293 nan nan
44.148783 nan nan
44.748474 nan nan
44.346550 nan nan
43.248474 nan nan
41.748474 nan nan
40.248474 nan nan
39.150398 nan nan
38.748474 nan nan
39.150398 nan nan
40.248474 nan nan
41.748474 nan nan
43.248474 nan nan
44.346550 nan nan
44.520112 nan nan
44.148783 nan nan
43.134293 nan nan
41.748474 nan nan
40.362655 nan nan
39.348164 nan nan
38.976835 nan nan
39.348164 nan nan
40.362655 nan nan
41.748474 nan nan
43.134293 nan nan
44.148783 nan nan
43.869794 nan nan
43.585591 nan nan
42.809134 nan nan
41.748474 nan nan
40.687814 nan nan
39.911357 nan nan
39.627153 nan nan
39.911357 nan nan
40.687814 nan nan
41.748474 nan nan
42.809134 nan nan
43.585591 nan nan
42.896524 nan nan
42.742715 nan nan
42.322499 nan nan
41.748474 nan nan
41.174449 nan nan
40.754233 nan nan
40.600424 nan nan
40.754233 nan nan
41.174449 nan nan
41.748474 nan nan
42.322499 nan nan
42.742715 nan nan
41.748474 nan nan
3 0 1 2
3 0 2 3
3 0 3 4
3 0 4 5
3 0 5 6
3 0 6 7
3 0 7 8
3 0 8 9
3 0 9 10
3 0 10 11
3 0 11 12
3 0 12 1
3 1 13 2
3 2 13 14
3 2 14 3
3 3 14 15
3 3 15 4
3 4 15 16
3 4 16 5
3 5 16 17
3 5 17 6
3 6 17 18
3 6 18 7
3 7 18 19
3 7 19 8
3 8 19 20
3 8 20 9
3 9 20 21
3 9 21 10
3 10 21 22
3 10 22 11
3 11 22 23
3 11 23 12
3 12 23 24
3 12 24 1
3 1 24 13
3 13 25 14
3 14 25 26
3 14 26 15
3 15 26 27
3 15 27 16
3 16 27 28
3 16 28 17
3 17 28 29
3 17 29 18
3 18 29 30
3 18 30 19
3 19 30 31
3 19 31 20
3 20 31 32
3 20 32 21
3 21 32 33
3 21 33 22
3 22 33 34
3 22 34 23
3 23 34 35
3 23 35 24
3 24 35 36
3 24 36 13
3 13 36 25
3 25 37 26
3 26 37 38
3 26 38 27
3 27 38 39
3 27 39 28
3 28 39 40
3 28 40 29
3 29 40 41
3 29 41 30
3 30 41 42
3 30 42 31
3 31 42 43
3 31 43 32
3 32 43 44
3 32 44 33
3 33 44 45
3 33 45 34
3 34 45 46
3 34 46 35
3 35 46 47
3 35 47 36
3 36 47 48
3 36 48 25
3 25 48 37
3 37 49 38
3 38 49 50
3 38 50 39
3 39 50 51
3 39 51 40
3 40 51 52
3 40 52 41
3 41 52 53
3 41 53 42
3 42 53 54
3 42 54 43
3 43 54 55
3 43 55 44
3 44 55 56
3 44 56 45
3 45 56 57
3 45 57 46
3 46 57 58
3 46 58 47
3 47 58 59
3 47 59 48
3 48 59 60
3 48 60 37
3 37 60 49
3 49 61 50
3 50 61 62
3 50 62 51
3 51 62 63
3 51 63 52
3 52 63 64
3 52 64 53
3 53 64 65
3 53 65 54
3 54 65 66
3 54 66 55
3 55 66 67
3 55 67 56
3 56 67 68
3 56 68 57
3 57 68 69
3 57 69 58
3 58 69 70
3 58 70 59
3 59 70 71
3 59 71 60
3 60 71 72
3 60 72 49
3 49 72 61
3 61 73 62
3 62 73 74
3 62 74 63
3 63 74 75
3 63 75 64
3 64 75 76
3 64 76 65
3 65 76 77
3 65 77 66
3 66 77 78
3 66 78 67
3 67 78 79
3 67 79 68
3 68 79 80
3 68 80 69
3 69 80 81
3 69 81 70
3 70 81 82
3 70 82 71
3 71 82 83
3 71 83 72
3 72 83 84
3 72 84 61
3 61 84 73
3 85 74 73
3 85 75 74
3 85 76 75
3 85 77 76
3 85 78 77
3 85 79 78
3 85 80 79
3 85 81 80
3 85 82 81
3 85 83 82
3 85 84 83
3 85 73 84
3 86 87 88
3 86 88 89
3 86 89 90
3 86 90 91
3 86 91 92
3 86 92 93
3 86 93 94
3 86 94 95
3 86 95 96
3 86 96 97
3 86 97 98
3 86 98 87
3 87 99 88
3 88 99 100
3 88 100 89
3 89 100 101
3 89 101 90
3 90 101 102
3 90 102 91
3 91 102 103
3 91 103 92
3 92 103 104
3 92 104 93
3 93 104 105
3 93 105 94
3 94 105 106
3 94 106 95
3 95 106 107
3 95 107 96
3 96 107 108
3 96 108 97
3 97 108 109
3 97 109 98
3 98 109 110
3 98 110 87
3 87 110 99
3 99 111 100
3 100 111 112
3 100 112 101
3 101 112 113
3 101 113 102
3 102 113 114
3 102 114 103
3 103 114 115
3 103 115 104
3 104 115 116
3 104 116 105
3 105 116 117
3 105 117 106
3 106 117 118
3 106 118 107
3 107 118 119
3 107 119 108
3 108 119 120
3 108 120 109
3 109 120 121
3 109 121 110
3 110 121 122
3 110 122 99
3 99 122 111
3 111 123 112
3 112 123 124
3 112 124 113
3 113 124 125
3 113 125 114
3 114 125 126
3 114 126 115
3 115 126 127
3 115 127 116
3 116 127 128
3 116 128 117
3 117 128 129
3 117 129 118
3 118 129 130
3 118 130 119
3 119 130 131
3 119 131 120
3 120 131 132
3 120 132 121
3 121 132 133
3 121 133 122
3 122 133 134
3 122 134 111
3 111 134 123
3 123 135 124
3 124 135 136
3 124 136 125
3 125 136 137
3 125 137 126
3 126 137 138
3 126 138 127
3 127 138 139
3 127 139 128
3 128 139 140
3 128 140 129
3 129 140 141
3 129 141 130
3 130 141 142
3 130 142 131
3 131 142 143
3 131 143 132
3 132 143 144
3 132 144 133
3 133 144 145
3 133 145 134
3 134 145 146
3 134 146 123
3 123 146 135
3 135 147 136
3 136 147 148
3 136 148 137
3 137 148 149
3 137 149 138
3 138 149 150
3 138 150 139
3 139 150 151
3 139 151 140
3 140 151 152
3 140 152 141
3 141 152 153
3 141 153 142
3 142 153 154
3 142 154 143
3 143 154 155
3 143 155 144
3 144 155 156
3 144 156 145
3 145 156 157
3 145 157 146
3 146 157 158
3 146 158 135
3 135 158 147
3 147 159 148
3 148 159 160
3 148 160 149
3 149 160 161
3 149 161 150
3 150 161 162
3 150 162 151
3 151 162 163
3 151 163 152
3 152 163 164
3 152 164 153
3 153 164 165
3 153 165 154
3 154 165 166
3 154 166 155
3 155 166 167
3 155 167 156
3 156 167 168
3 156 168 157
3 157 168 169
3 157 169 158
3 158 169 170
3 158 170 147
3 147 170 159
3 171 160 159
3 171 161 160
3 171 162 161
3 171 163 162
3 171 164 163
3 171 165 164
3 171 166 165
3 171 167 166
3 171 168 167
3 171 169 168
3 171 170 169
3 171 159 170
3 172 173 174
3 172 174 175
3 172 175 176
3 172 176 177
3 172 177 178
3 172 178 179
3 172 179 180
3 172 180 181
3 172 181 182
3 172 182 183
3 172 183 184
3 172 184 173
3 173 185 174
3 174 185 186
3 174 186 175
3 175 186 187
3 175 187 176
3 176 187 188
3 176 188 177
3 177 188 189
3 177 189 178
3 178 189 190
3 178 190 179
3 179 190 191
3 179 191 180
3 180 191 192
3 180 192 181
3 181 192 193
3 181 193 182
3 182 193 194
3 182 194 183
3 183 194 195
3 183 195 184
3 184 195 196
3 184 196 173
3 173 196 185
3 185 197 186
3 186 197 198
3 186 198 187
3 187 198 199
3 187 199 188
3 188 199 200
3 188 200 189
3 189 200 201
3 189 201 190
3 190 201 202
3 190 202 191
3 191 202 203
3 191 203 192
3 192 203 204
3 192 204 193
3 193 204 205
3 193 205 194
3 194 205 206
3 194 206 195
3 195 206 207
3 195 207 196
3 196 207 208
3 196 208 185
3 185 208 197
3 197 209 198
3 198 209 210
3 198 210 199
3 199 210 211
3 199 211 200
3 200 211 212
3 200 212 201
3 201 212 213
3 201 213 202
3 202 213 214
3 202 214 203
3 203 214 215
3 203 215 204
3 204 215 216
3 204 216 205
3 205 216 217
3 205 217 206
3 206 217 218
3 206 218 207
3 207 218 219
3 207 219 208
3 208 219 220
3 208 220 197
3 197 220 209
3 209 221 210
3 210 221 222
3 210 222 211
3 211 222 223
3 211 223 212
3 212 223 224
3 212 224 213
3 213 224 225
3 213 225 214
3 214 225 226
3 214 226 215
3 215 226 227
3 215 227 216
3 216 227 228
3 216 228 217
3 217 228 229
3 217 229 218
3 218 229 230
3 218 230 219
3 219 230 231
3 219 231 220
3 220 231 232
3 220 232 209
3 209 232 221
3 221 233 222
3 222 233 234
3 222 234 223
3 223 234 235
3 223 235 224
3 224 235 236
3 224 236 225
3 225 236 237
3 225 237 226
3 226 237 238
3 226 238 227
3 227 238 239
3 227 239 228
3 228 239 240
3 228 240 229
3 229 240 241
3 229 241 230
3 230 241 242
3 230 242 231
3 231 242 243
3 231 243 232
3 232 243 244
3 232 244 221
3 221 244 233
3 233 245 234
3 234 245 246
3 234 246 235
3 235 246 247
3 235 247 236
3 236 247 248
3 236 248 237
3 237 248 249
3 237 249 238
3 238 249 250
3 238 250 239
3 239 250 251
3 239 251 240
3 240 251 252
3 240 252 241
3 241 252 253
3 241 253 242
3 242 253 254
3 242 254 243
3 243 254 255
3 243 255 244
3 244 255 256
3 244 256 233
3 233 256 245
3 257 246 245
3 257 247 246
3 257 248 247
3 257 249 248
3 257 250 249
3 257 251 250
3 257 252 251
3 257 253 252
3 257 254 253
3 257 255 254
3 257 256 255
3 257 245 256
3 258 259 260
3 258 260 261
3 258 261 262
3 258 262 263
3 258 263 264
3 258 264 265
3 258 265 266
3 258 266 267
3 258 267 268
3 258 268 269
3 258 269 270
3 258 270 259
3 259 271 260
3 260 271 272
3 260 272 261
3 261 272 273
3 261 273 262
3 262 273 274
3 262 274 263
3 263 274 275
3 263 275 264
3 264 275 276
3 264 276 265
3 265 276 277
3 265 277 266
3 266 277 278
3 266 278 267
3 267 278 279
3 267 279 268
3 268 279 280
3 268 280 269
3 269 280 281
3 269 281 270
3 270 281 282
3 270 282 259
3 259 282 271
3 271 283 272
3 272 283 284
3 272 284 273
3 273 284 285
3 273 285 274
3 274 285 286
3 274 286 275
3 275 286 287
3 275 287 276
3 276 287 288
3 276 288 277
3 277 288 289
3 277 289 278
3 278 289 290
3 278 290 279
3 279 290 291
3 279 291 280
3 280 291 292
3 280 292 281
3 281 292 293
3 281 293 282
3 282 293 294
3 282 294 271
3 271 294 283
3 283 295 284
3 284 295 296
3 284 296 285
3 285 296 297
3 285 297 286
3 286 297 298
3 286 298 287
3 287 298 299
3 287 299 288
3 288 299 300
3 288 300 289
3 289 300 301
3 289 301 290
3 290 301 302
3 290 302 291
3 291 302 303
3 291 303 292
3 292 303 304
3 292 304 293
3 293 304 305
3 293 305 294
3 294 305 306
3 294 306 283
3 283 306 295
3 295 307 296
3 296 307 308
3 296 308 297
3 297 308 309
3 297 309 298
3 298 309 310
3 298 310 299
3 299 310 311
3 299 311 300
3 300 311 312
3 300 312 301
3 301 312 313
3 301 313 302
3 302 313 314
3 302 314 303
3 303 314 315
3 303 315 304
3 304 315 316
3 304 316 305
3 305 316 317
3 305 317 306
3 306 317 318
3 306 318 295
3 295 318 307
3 307 319 308
3 308 319 320
3 308 320 309
3 309 320 321
3 309 321 310
3 310 321 322
3 310 322 311
3 311 322 323
3 311 323 312
3 312 323 324
3 312 324 313
3 313 324 325
3 313 325 314
3 314 325 326
3 314 326 315
3 315 326 327
3 315 327 316
3 316 327 328
3 316 328 317
3 317 328 329
3 317 329 318
3 318 329 330
3 318 330 307
3 307 330 319
3 319 331 320
3 320 331 332
3 320 332 321
3 321 332 333
3 321 333 322
3 322 333 334
3 322 334 323
3 323 334 335
3 323 335 324
3 324 335 336
3 324 336 325
3 325 336 337
3 325 337 326
3 326 337 338
3 326 338 327
3 327 338 339
3 327 339 328
3 328 339 340
3 328 340 329
3 329 340 341
3 329 341 330
3 330 341 342
3 330 342 319
3 319 342 331
3 343 332 331
3 343 333 332
3 343 334 333
3 343 335 334
3 343 336 335
3 343 337 336
3 343 338 337
3 343 339 338
3 343 340 339
3 343 341 340
3 343 342 341
3 343 331 342
3 344 345 346
3 344 346 347
3 344 347 348
3 344 348 349
3 344 349 350
3 344 350 351
3 344 351 352
3 344 352 353
3 344 353 354
3 344 354 355
3 344 355 356
3 344 356 345
3 345 357 346
3 346 357 358
3 346 358 347
3 347 358 359
3 347 359 348
3 348 359 360
3 348 360 349
3 349 360 361
3 349 361 350
3 350 361 362
3 350 362 351
3 351 362 363
3 351 363 352
3 352 363 364
3 352 364 353
3 353 364 365
3 353 365 354
3 354 365 366
3 354 366 355
3 355 366 367
3 355 367 356
3 356 367 368
3 356 368 345
3 345 368 357
3 357 369 358
3 358 369 370
3 358 370 359
3 359 370 371
3 359 371 360
3 360 371 372
3 360 372 361
3 361 372 373
3 361 373 362
3 362 373 374
3 362 374 363
3 363 374 375
3 363 375 364
3 364 375 376
3 364 376 365
3 365 376 377
3 365 377 366
3 366 377 378
3 366 378 367
3 367 378 379
3 367 379 368
3 368 379 380
3 368 380 357
3 357 380 369
3 369 381 370
3 370 381 382
3 370 382 371
3 371 382 383
3 371 383 372
3 372 383 384
3 372 384 373
3 373 384 385
3 373 385 374
3 374 385 386
3 374 386 375
3 375 386 387
3 375 387 376
3 376 387 388
3 376 388 377
3 377 388 389
3 377 389 378
3 378 389 390
3 378 390 379
3 379 390 391
3 379 391 380
3 380 391 392
3 380 392 369
3 369 392 381
3 381 393 382
3 382 393 394
3 382 394 383
3 383 394 395
3 383 395 384
3 384 395 396
3 384 396 385
3 385 396 397
3 385 397 386
3 386 397 398
3 386 398 387
3 387 398 399
3 387 399 388
3 388 399 400
3 388 400 389
3 389 400 401
3 389 401 390
3 390 401 402
3 390 402 391
3 391 402 403
3 391 403 392
3 392 403 404
3 392 404 381
3 381 404 393
3 393 405 394
3 394 405 406
3 394 406 395
3 395 406 407
3 395 407 396
3 396 407 408
3 396 408 397
3 397 408 409
3 397 409 398
3 398 409 410
3 398 410 399
3 399 410 411
3 399 411 400
3 400 411 412
3 400 412 401
3 401 412 413
3 401 413 402
3 402 413 414
3 402 414 403
3 403 414 415
3 403 415 404
3 404 415 416
3 404 416 393
3 393 416 405
3 405 417 406
3 406 417 418
3 406 418 407
3 407 418 419
3 407 419 408
3 408 419 420
3 408 420 409
3 409 420 421
3 409 421 410
3 410 421 422
3 410 422 411
3 411 422 423
3 411 423 412
3 412 423 424
3 412 424 413
3 413 424 425
3 413 425 414
3 414 425 426
3 414 426 415
3 415 426 427
3 415 427 416
3 416 427 428
3 416 428 405
3 405 428 417
3 429 418 417
3 429 419 418
3 429 420 419
3 429 421 420
3 429 422 421
3 429 423 422
3 429 424 423
3 429 425 424
3 429 426 425
3 429 427 426
3 429 428 427
3 429 417 428
3 430 431 432
3 430 432 433
3 430 433 434
3 430 434 435
3 430 435 436
3 430 436 437
3 430 437 438
3 430 438 439
3 430 439 440
3 430 440 441
3 430 441 442
3 430 442 431
3 431 443 432
3 432 443 444
3 432 444 433
3 433 444 445
3 433 445 434
3 434 445 446
3 434 446 435
3 435 446 447
3 435 447 436
3 436 447 448
3 436 448 437
3 437 448 449
3 437 449 438
3 438 449 450
3 438 450 439
3 439 450 451
3 439 451 440
3 440 451 452
3 440 452 441
3 441 452 453
3 441 453 442
3 442 453 454
3 442 454 431
3 431 454 443
3 443 455 444
3 444 455 456
3 444 456 445
3 445 456 457
3 445 457 446
3 446 457 458
3 446 458 447
3 447 458 459
3 447 459 448
3 448 459 460
3 448 460 449
3 449 460 461
3 449 461 450
3 450 461 462
3 450 462 451
3 451 462 463
3 451 463 452
3 452 463 464
3 452 464 453
3 453 464 465
3 453 465 454
3 454 465 466
3 454 466 443
3 443 466 455
3 455 467 456
3 456 467 468
3 456 468 457
3 457 468 469
3 457 469 458
3 458 469 470
3 458 470 459
3 459 470 471
3 459 471 460
3 460 471 472
3 460 472 461
3 461 472 473
3 461 473 462
3 462 473 474
3 462 474 463
3 463 474 475
3 463 475 464
3 464 475 476
3 464 476 465
3 465 476 477
3 465 477 466
3 466 477 478
3 466 478 455
3 455 478 467
3 467 479 468
3 468 479 480
3 468 480 469
3 469 480 481
3 469 481 470
3 470 481 482
3 470 482 471
3 471 482 483
3 471 483 472
3 472 483 484
3 472 484 473
3 473 484 485
3 473 485 474
3 474 485 486
3 474 486 475
3 475 486 487
3 475 487 476
3 476 487 488
3 476 488 477
3 477 488 489
3 477 489 478
3 478 489 490
3 478 490 467
3 467 490 479
3 479 491 480
3 480 491 492
3 480 492 481
3 481 492 493
3 481 493 482
3 482 493 494
3 482 494 483
3 483 494 495
3 483 495 484
3 484 495 496
3 484 496 485
3 485 496 497
3 485 497 486
3 486 497 498
3 486 498 487
3 487 498 499
3 487 499 488
3 488 499 500
3 488 500 489
3 489 500 501
3 489 501 490
3 490 501 502
3 490 502 479
3 479 502 491
3 491 503 492
3 492 503 504
3 492 504 493
3 493 504 505
3 493 505 494
3 494 505 506
3 494 506 495
3 495 506 507
3 495 507 496
3 496 507 508
3 496 508 497
3 497 508 509
3 497 509 498
3 498 509 510
3 498 510 499
3 499 510 511
3 499 511 500
3 500 511 512
3 500 512 501
3 501 512 513
3 501 513 502
3 502 513 514
3 502 514 491
3 491 514 503
3 515 504 503
3 515 505 504
3 515 506 505
3 515 507 506
3 515 508 507
3 515 509 508
3 515 510 509
3 515 511 510
3 515 512 511
3 515 513 512
3 515 514 513
3 515 503 514
3 516 517 518
3 516 518 519
3 516 519 520
3 516 520 521
3 516 521 522
3 516 522 523
3 516 523 524
3 516 524 525
3 516 525 526
3 516 526 527
3 516 527 528
3 516 528 517
3 517 529 518
3 518 529 530
3 518 530 519
3 519 530 531
3 519 531 520
3 520 531 532
3 520 532 521
3 521 532 533
3 521 533 522
3 522 533 534
3 522 534 523
3 523 534 535
3 523 535 524
3 524 535 536
3 524 536 525
3 525 536 537
3 525 537 526
3 526 537 538
3 526 538 527
3 527 538 539
3 527 539 528
3 528 539 540
3 528 540 517
3 517 540 529
3 529 541 530
3 530 541 542
3 530 542 531
3 531 542 543
3 531 543 532
3 532 543 544
3 532 544 533
3 533 544 545
3 533 545 534
3 534 545 546
3 534 546 535
3 535 546 547
3 535 547 536
3 536 547 548
3 536 548 537
3 537 548 549
3 537 549 538
3 538 549 550
3 538 550 539
3 539 550 551
3 539 551 540
3 540 551 552
3 540 552 529
3 529 552 541
3 541 553 542
3 542 553 554
3 542 554 543
3 543 554 555
3 543 555 544
3 544 555 556
3 544 556 545
3 545 556 557
3 545 557 546
3 546 557 558
3 546 558 547
3 547 558 559
3 547 559 548
3 548 559 560
3 548 560 549
3 549 560 561
3 549 561 550
3 550 561 562
3 550 562 551
3 551 562 563
3 551 563 552
3 552 563 564
3 552 564 541
3 541 564 553
3 553 565 554
3 554 565 566
3 554 566 555
3 555 566 567
3 555 567 556
3 556 567 568
3 556 568 557
3 557 568 569
3 557 569 558
3 558 569 570
3 558 570 559
3 559 570 571
3 559 571 560
3 560 571 572
3 560 572 561
3 561 572 573
3 561 573 562
3 562 573 574
3 562 574 563
3 563 574 575
3 563 575 564
3 564 575 576
3 564 576 553
3 553 576 565
3 565 577 566
3 566 577 578
3 566 578 567
3 567 578 579
3 567 579 568
3 568 579 580
3 568 580 569
3 569 580 581
3 569 581 570
3 570 581 582
3 570 582 571
3 571 582 583
3 571 583 572
3 572 583 584
3 572 584 573
3 573 584 585
3 573 585 574
3 574 585 586
3 574 586 575
3 575 586 587
3 575 587 576
3 576 587 588
3 576 588 565
3 565 588 577
3 577 589 578
3 578 589 590
3 578 590 579
3 579 590 591
3 579 591 580
3 580 591 592
3 580 592 581
3 581 592 593
3 581 593 582
3 582 593 594
3 582 594 583
3 583 594 595
3 583 595 584
3 584 595 596
3 584 596 585
3 585 596 597
3 585 597 586
3 586 597 598
3 586 598 587
3 587 598 599
3 587 599 588
3 588 599 600
3 588 600 577
3 577 600 589
3 601 590 589
3 601 591 590
3 601 592 591
3 601 593 592
3 601 594 593
3 601 595 594
3 601 596 595
3 601 597 596
3 601 598 597
3 601 599 598
3 601 600 599
3 601 589 600
3 602 603 604
3 602 604 605
3 602 605 606
3 602 606 607
3 602 607 608
3 602 608 609
3 602 609 610
3 602 610 611
3 602 611 612
3 602 612 613
3 602 613 614
3 602 614 603
3 603 615 604
3 604 615 616
3 604 616 605
3 605 616 617
3 605 617 606
3 606 617 618
3 606 618 607
3 607 618 619
3 607 619 608
3 608 619 620
3 608 620 609
3 609 620 621
3 609 621 610
3 610 621 622
3 610 622 611
3 611 622 623
3 611 623 612
3 612 623 624
3 612 624 613
3 613 624 625
3 613 625 614
3 614 625 626
3 614 626 603
3 603 626 615
3 615 627 616
3 616 627 628
3 616 628 617
3 617 628 629
3 617 629 618
3 618 629 630
3 618 630 619
3 619 630 631
3 619 631 620
3 620 631 632
3 620 632 621
3 621 632 633
3 621 633 622
3 622 633 634
3 622 634 623
3 623 634 635
3 623 635 624
3 624 635 636
3 624 636 625
3 625 636 637
3 625 637 626
3 626 637 638
3 626 638 615
3 615 638 627
3 627 639 628
3 628 639 640
3 628 640 629
3 629 640 641
3 629 641 630
3 630 641 642
3 630 642 631
3 631 642 643
3 631 643 632
3 632 643 644
3 632 644 633
3 633 644 645
3 633 645 634
3 634 645 646
3 634 646 635
3 635 646 647
3 635 647 636
3 636 647 648
3 636 648 637
3 637 648 649
3 637 649 638
3 638 649 650
3 638 650 627
3 627 650 639
3 639 651 640
3 640 651 652
3 640 652 641
3 641 652 653
3 641 653 642
3 642 653 654
3 642 654 643
3 643 654 655
3 643 655 644
3 644 655 656
3 644 656 645
3 645 656 657
3 645 657 646
3 646 657 658
3 646 658 647
3 647 658 659
3 647 659 648
3 648 659 660
3 648 660 649
3 649 660 661
3 649 661 650
3 650 661 662
3 650 662 639
3 639 662 651
3 651 663 652
3 652 663 664
3 652 664 653
3 653 664 665
3 653 665 654
3 654 665 666
3 654 666 655
3 655 666 667
3 655 667 656
3 656 667 668
3 656 668 657
3 657 668 669
3 657 669 658
3 658 669 670
3 658 670 659
3 659 670 671
3 659 671 660
3 660 671 672
3 660 672 661
3 661 672 673
3 661 673 662
3 662 673 674
3 662 674 651
3 651 674 663
3 663 675 664
3 664 675 676
3 664 676 665
3 665 676 677
3 665 677 666
3 666 677 678
3 666 678 667
3 667 678 679
3 667 679 668
3 668 679 680
3 668 680 669
3 669 680 681
3 669 681 670
3 670 681 682
3 670 682 671
3 671 682 683
3 671 683 672
3 672 683 684
3 672 684 673
3 673 684 685
3 673 685 674
3 674 685 686
3 674 686 663
3 663 686 675
3 687 676 675
3 687 677 676
3 687 678 677
3 687 679 678
3 687 680 679
3 687 681 680
3 687 682 681
3 687 683 682
3 687 684 683
3 687 685 684
3 687 686 685
3 687 675 686
3 688 689 690
3 688 690 691
3 688 691 692
3 688 692 693
3 688 693 694
3 688 694 695
3 688 695 696
3 688 696 697
3 688 697 698
3 688 698 699
3 688 699 700
3 688 700 689
3 689 701 690
3 690 701 702
3 690 702 691
3 691 702 703
3 691 703 692
3 692 703 704
3 692 704 693
3 693 704 705
3 693 705 694
3 694 705 706
3 694 706 695
3 695 706 707
3 695 707 696
3 696 707 708
3 696 708 697
3 697 708 709
3 697 709 698
3 698 709 710
3 698 710 699
3 699 710 711
3 699 711 700
3 700 711 712
3 700 712 689
3 689 712 701
3 701 713 702
3 702 713 714
3 702 714 703
3 703 714 715
3 703 715 704
3 704 715 716
3 704 716 705
3 705 716 717
3 705 717 706
3 706 717 718
3 706 718 707
3 707 718 719
3 707 719 708
3 708 719 720
3 708 720 709
3 709 720 721
3 709 721 710
3 710 721 722
3 710 722 711
3 711 722 723
3 711 723 712
3 712 723 724
3 712 724 701
3 701 724 713
3 713 725 714
3 714 725 726
3 714 726 715
3 715 726 727
3 715 727 716
3 716 727 728
3 716 728 717
3 717 728 729
3 717 729 718
3 718 729 730
3 718 730 719
3 719 730 731
3 719 731 720
3 720 731 732
3 720 732 721
3 721 732 733
3 721 733 722
3 722 733 734
3 722 734 723
3 723 734 735
3 723 735 724
3 724 735 736
3 724 736 713
3 713 736 725
3 725 737 726
3 726 737 738
3 726 738 727
3 727 738 739
3 727 739 728
3 728 739 740
3 728 740 729
3 729 740 741
3 729 741 730
3 730 741 742
3 730 742 731
3 731 742 743
3 731 743 732
3 732 743 744
3 732 744 733
3 733 744 745
3 733 745 734
3 734 745 746
3 734 746 735
3 735 746 747
3 735 747 736
3 736 747 748
3 736 748 725
3 725 748 737
3 737 749 738
3 738 749 750
3 738 750 739
3 739 750 751
3 739 751 740
3 740 751 752
3 740 752 741
3 741 752 753
3 741 753 742
3 742 753 754
3 742 754 743
3 743 754 755
3 743 755 744
3 744 755 756
3 744 756 745
3 745 756 757
3 745 757 746
3 746 757 758
3 746 758 747
3 747 758 759
3 747 759 748
3 748 759 760
3 748 760 737
3 737 760 749
3 749 761 750
3 750 761 762
3 750 762 751
3 751 762 763
3 751 763 752
3 752 763 764
3 752 764 753
3 753 764 765
3 753 765 754
3 754 765 766
3 754 766 755
3 755 766 767
3 755 767 756
3 756 767 768
3 756 768 757
3 757 768 769
3 757 769 758
3 758 769 770
3 758 770 759
3 759 770 771
3 759 771 760
3 760 771 772
3 760 772 749
3 749 772 761
3 773 762 761
3 773 763 762
3 773 764 763
3 773 765 764
3 773 766 765
3 773 767 766
3 773 768 767
3 773 769 768
3 773 770 769
3 773 771 770
3 773 772 771
3 773 761 772
3 774 775 776
3 774 776 777
3 774 777 778
3 774 778 779
3 774 779 780
3 774 780 781
3 774 781 782
3 774 782 783
3 774 783 784
3 774 784 785
3 774 785 786
3 774 786 775
3 775 787 776
3 776 787 788
3 776 788 777
3 777 788 789
3 777 789 778
3 778 789 790
3 778 790 779
3 779 790 791
3 779 791 780
3 780 791 792
3 780 792 781
3 781 792 793
3 781 793 782
3 782 793 794
3 782 794 783
3 783 794 795
3 783 795 784
3 784 795 796
3 784 796 785
3 785 796 797
3 785 797 786
3 786 797 798
3 786 798 775
3 775 798 787
3 787 799 788
3 788 799 800
3 788 800 789
3 789 800 801
3 789 801 790
3 790 801 802
3 790 802 791
3 791 802 803
3 791 803 792
3 792 803 804
3 792 804 793
3 793 804 805
3 793 805 794
3 794 805 806
3 794 806 795
3 795 806 807
3 795 807 796
3 796 807 808
3 796 808 797
3 797 808 809
3 797 809 798
3 798 809 810
3 798 810 787
3 787 810 799
3 799 811 800
3 800 811 812
3 800 812 801
3 801 812 813
3 801 813 802
3 802 813 814
3 802 814 803
3 803 814 815
3 803 815 804
3 804 815 816
3 804 816 805
3 805 816 817
3 805 817 806
3 806 817 818
3 806 818 807
3 807 818 819
3 807 819 808
3 808 819 820
3 808 820 809
3 809 820 821
3 809 821 810
3 810 821 822
3 810 822 799
3 799 822 811
3 811 823 812
3 812 823 824
3 812 824 813
3 813 824 825
3 813 825 814
3 814 825 826
3 814 826 815
3 815 826 827
3 815 827 816
3 816 827 828
3 816 828 817
3 817 828 829
3 817 829 818
3 818 829 830
3 818 830 819
3 819 830 831
3 819 831 820
3 820 831 832
3 820 832 821
3 821 832 833
3 821 833 822
3 822 833 834
3 822 834 811
3 811 834 823
3 823 835 824
3 824 835 836
3 824 836 825
3 825 836 837
3 825 837 826
3 826 837 838
3 826 838 827
3 827 838 839
3 827 839 828
3 828 839 840
3 828 840 829
3 829 840 841
3 829 841 830
3 830 841 842
3 830 842 831
3 831 842 843
3 831 843 832
3 832 843 844
3 832 844 833
3 833 844 845
3 833 845 834
3 834 845 846
3 834 846 823
3 823 846 835
3 835 847 836
3 836 847 848
3 836 848 837
3 837 848 849
3 837 849 838
3 838 849 850
3 838 850 839
3 839 850 851
3 839 851 840
3 840 851 852
3 840 852 841
3 841 852 853
3 841 853 842
3 842 853 854
3 842 854 843
3 843 854 855
3 843 855 844
3 844 855 856
3 844 856 845
3 845 856 857
3 845 857 846
3 846 857 858
3 846 858 835
3 835 858 847
3 859 848 847
3 859 849 848
3 859 850 849
3 859 851 850
3 859 852 851
3 859 853 852
3 859 854 853
3 859 855 854
3 859 856 855
3 859 857 856
3 859 858 857
3 859 847 858
3 860 861 862
3 860 862 863
3 860 863 864
3 860 864 865
3 860 865 866
3 860 866 867
3 860 867 868
3 860 868 869
3 860 869 870
3 860 870 871
3 860 871 872
3 860 872 861
3 861 873 862
3 862 873 874
3 862 874 863
3 863 874 875
3 863 875 864
3 864 875 876
3 864 876 865
3 865 876 877
3 865 877 866
3 866 877 878
3 866 878 867
3 867 878 879
3 867 879 868
3 868 879 880
3 868 880 869
3 869 880 881
3 869 881 870
3 870 881 882
3 870 882 871
3 871 882 883
3 871 883 872
3 872 883 884
3 872 884 861
3 861 884 873
3 873 885 874
3 874 885 886
3 874 886 875
3 875 886 887
3 875 887 876
3 876 887 888
3 876 888 877
3 877 888 889
3 877 889 878
3 878 889 890
3 878 890 879
3 879 890 891
3 879 891 880
3 880 891 892
3 880 892 881
3 881 892 893
3 881 893 882
3 882 893 894
3 882 894 883
3 883 894 895
3 883 895 884
3 884 895 896
3 884 896 873
3 873 896 885
3 885 897 886
3 886 897 898
3 886 898 887
3 887 898 899
3 887 899 888
3 888 899 900
3 888 900 889
3 889 900 901
3 889 901 890
3 890 901 902
3 890 902 891
3 891 902 903
3 891 903 892
3 892 903 904
3 892 904 893
3 893 904 905
3 893 905 894
3 894 905 906
3 894 906 895
3 895 906 907
3 895 907 896
3 896 907 908
3 896 908 885
3 885 908 897
3 897 909 898
3 898 909 910
3 898 910 899
3 899 910 911
3 899 911 900
3 900 911 912
3 900 912 901
3 901 912 913
3 901 913 902
3 902 913 914
3 902 914 903
3 903 914 915
3 903 915 904
3 904 915 916
3 904 916 905
3 905 916 917
3 905 917 906
3 906 917 918
3 906 918 907
3 907 918 919
3 907 919 908
3 908 919 920
3 908 920 897
3 897 920 909
3 909 921 910
3 910 921 922
3 910 922 911
3 911 922 923
3 911 923 912
3 912 923 924
3 912 924 913
3 913 924 925
3 913 925 914
3 914 925 926
3 914 926 915
3 915 926 927
3 915 927 916
3 916 927 928
3 916 928 917
3 917 928 929
3 917 929 918
3 918 929 930
3 918 930 919
3 919 930 931
3 919 931 920
3 920 931 932
3 920 932 909
3 909 932 921
3 921 933 922
3 922 933 934
3 922 934 923
3 923 934 935
3 923 935 924
3 924 935 936
3 924 936 925
3 925 936 937
3 925 937 926
3 926 937 938
3 926 938 927
3 927 938 939
3 927 939 928
3 928 939 940
3 928 940 929
3 929 940 941
3 929 941 930
3 930 941 942
3 930 942 931
3 931 942 943
3 931 943 932
3 932 943 944
3 932 944 921
3 921 944 933
3 945 934 933
3 945 935 934
3 945 936 935
3 945 937 936
3 945 938 937
3 945 939 938
3 945 940 939
3 945 941 940
3 945 942 941
3 945 943 942
3 945 944 943
3 945 933 944
3 946 947 948
3 946 948 949
3 946 949 950
3 946 950 951
3 946 951 952
3 946 952 953
3 946 953 954
3 946 954 955
3 946 955 956
3 946 956 957
3 946 957 958
3 946 958 947
3 947 959 948
3 948 959 960
3 948 960 949
3 949 960 961
3 949 961 950
3 950 961 962
3 950 962 951
3 951 962 963
3 951 963 952
3 952 963 964
3 952 964 953
3 953 964 965
3 953 965 954
3 954 965 966
3 954 966 955
3 955 966 967
3 955 967 956
3 956 967 968
3 956 968 957
3 957 968 969
3 957 969 958
3 958 969 970
3 958 970 947
3 947 970 959
3 959 971 960
3 960 971 972
3 960 972 961
3 961 972 973
3 961 973 962
3 962 973 974
3 962 974 963
3 963 974 975
3 963 975 964
3 964 975 976
3 964 976 965
3 965 976 977
3 965 977 966
3 966 977 978
3 966 978 967
3 967 978 979
3 967 979 968
3 968 979 980
3 968 980 969
3 969 980 981
3 969 981 970
3 970 981 982
3 970 982 959
3 959 982 971
3 971 983 972
3 972 983 984
3 972 984 973
3 973 984 985
3 973 985 974
3 974 985 986
3 974 986 975
3 975 986 987
3 975 987 976
3 976 987 988
3 976 988 977
3 977 988 989
3 977 989 978
3 978 989 990
3 978 990 979
3 979 990 991
3 979 991 980
3 980 991 992
3 980 992 981
3 981 992 993
3 981 993 982
3 982 993 994
3 982 994 971
3 971 994 983
3 983 995 984
3 984 995 996
3 984 996 985
3 985 996 997
3 985 997 986
3 986 997 998
3 986 998 987
3 987 998 999
3 987 999 988
3 988 999 1000
3 988 1000 989
3 989 1000 1001
3 989 1001 990
3 990 1001 1002
3 990 1002 991
3 991 1002 1003
3 991 1003 992
3 992 1003 1004
3 992 1004 993
3 993 1004 1005
3 993 1005 994
3 994 1005 1006
3 994 1006 983
3 983 1006 995
3 995 1007 996
3 996 1007 1008
3 996 1008 997
3 997 1008 1009
3 997 1009 998
3 998 1009 1010
3 998 1010 999
3 999 1010 1011
3 999 1011 1000
3 1000 1011 1012
3 1000 1012 1001
3 1001 1012 1013
3 1001 1013 1002
3 1002 1013 1014
3 1002 1014 1003
3 1003 1014 1015
3 1003 1015 1004
3 1004 1015 1016
3 1004 1016 1005
3 1005 1016 1017
3 1005 1017 1006
3 1006 1017 1018
3 1006 1018 995
3 995 1018 1007
3 1007 1019 1008
3 1008 1019 1020
3 1008 1020 1009
3 1009 1020 1021
3 1009 1021 1010
3 1010 1021 1022
3 1010 1022 1011
3 1011 1022 1023
3 1011 1023 1012
3 1012 1023 1024
3 1012 1024 1013
3 1013 1024 1025
3 1013 1025 1014
3 1014 1025 1026
3 1014 1026 1015
3 1015 1026 1027
3 1015 1027 1016
3 1016 1027 1028
3 1016 1028 1017
3 1017 1028 1029
3 1017 1029 1018
3 1018 1029 1030
3 1018 1030 1007
3 1007 1030 1019
3 1031 1020 1019
3 1031 1021 1020
3 1031 1022 1021
3 1031 1023 1022
3 1031 1024 1023
3 1031 1025 1024
3 1031 1026 1025
3 1031 1027 1026
3 1031 1028 1027
3 1031 1029 1028
3 1031 1030 1029
3 1031 1019 1030
3 1032 1033 1034
3 1032 1034 1035
3 1032 1035 1036
3 1032 1036 1037
3 1032 1037 1038
3 1032 1038 1039
3 1032 1039 1040
3 1032 1040 1041
3 1032 1041 1042
3 1032 1042 1043
3 1032 1043 1044
3 1032 1044 1033
3 1033 1045 1034
3 1034 1045 1046
3 1034 1046 1035
3 1035 1046 1047
3 1035 1047 1036
3 1036 1047 1048
3 1036 1048 1037
3 1037 1048 1049
3 1037 1049 1038
3 1038 1049 1050
3 1038 1050 1039
3 1039 1050 1051
3 1039 1051 1040
3 1040 1051 1052
3 1040 1052 1041
3 1041 1052 1053
3 1041 1053 1042
3 1042 1053 1054
3 1042 1054 1043
3 1043 1054 1055
3 1043 1055 1044
3 1044 1055 1056
3 1044 1056 1033
3 1033 1056 1045
3 1045 1057 1046
3 1046 1057 1058
3 1046 1058 1047
3 1047 1058 1059
3 1047 1059 1048
3 1048 1059 1060
3 1048 1060 1049
3 1049 1060 1061
3 1049 1061 1050
3 1050 1061 1062
3 1050 1062 1051
3 1051 1062 1063
3 1051 1063 1052
3 1052 1063 1064
3 1052 1064 1053
3 1053 1064 1065
3 1053 1065 1054
3 1054 1065 1066
3 1054 1066 1055
3 1055 1066 1067
3 1055 1067 1056
3 1056 1067 1068
3 1056 1068 1045
3 1045 1068 1057
3 1057 1069 1058
3 1058 1069 1070
3 1058 1070 1059
3 1059 1070 1071
3 1059 1071 1060
3 1060 1071 1072
3 1060 1072 1061
3 1061 1072 1073
3 1061 1073 1062
3 1062 1073 1074
3 1062 1074 1063
3 1063 1074 1075
3 1063 1075 1064
3 1064 1075 1076
3 1064 1076 1065
3 1065 1076 1077
3 1065 1077 1066
3 1066 1077 1078
3 1066 1078 1067
3 1067 1078 1079
3 1067 1079 1068
3 1068 1079 1080
3 1068 1080 1057
3 1057 1080 1069
3 1069 1081 1070
3 1070 1081 1082
3 1070 1082 1071
3 1071 1082 1083
3 1071 1083 1072
3 1072 1083 1084
3 1072 1084 1073
3 1073 1084 1085
3 1073 1085 1074
3 1074 1085 1086
3 1074 1086 1075
3 1075 1086 1087
3 1075 1087 1076
3 1076 1087 1088
3 1076 1088 1077
3 1077 1088 1089
3 1077 1089 1078
3 1078 1089 1090
3 1078 1090 1079
3 1079 1090 1091
3 1079 1091 1080
3 1080 1091 1092
3 1080 1092 1069
3 1069 1092 1081
3 1081 1093 1082
3 1082 1093 1094
3 1082 1094 1083
3 1083 1094 1095
3 1083 1095 1084
3 1084 1095 1096
3 1084 1096 1085
3 1085 1096 1097
3 1085 1097 1086
3 1086 1097 1098
3 1086 1098 1087
3 1087 1098 1099
3 1087 1099 1088
3 1088 1099 1100
3 1088 1100 1089
3 1089 1100 1101
3 1089 1101 1090
3 1090 1101 1102
3 1090 1102 1091
3 1091 1102 1103
3 1091 1103 1092
3 1092 1103 1104
3 1092 1104 1081
3 1081 1104 1093
3 1093 1105 1094
3 1094 1105 1106
3 1094 1106 1095
3 1095 1106 1107
3 1095 1107 1096
3 1096 1107 1108
3 1096 1108 1097
3 1097 1108 1109
3 1097 1109 1098
3 1098 1109 1110
3 1098 1110 1099
3 1099 1110 1111
3 1099 1111 1100
3 1100 1111 1112
3 1100 1112 1101
3 1101 1112 1113
3 1101 1113 1102
3 1102 1113 1114
3 1102 1114 1103
3 1103 1114 1115
3 1103 1115 1104
3 1104 1115 1116
3 1104 1116 1093
3 1093 1116 1105
3 1117 1106 1105
3 1117 1107 1106
3 1117 1108 1107
3 1117 1109 1108
3 1117 1110 1109
3 1117 1111 1110
3 1117 1112 1111
3 1117 1113 1112
3 1117 1114 1113
3 1117 1115 1114
3 1117 1116 1115
3 1117 1105 1116
3 1118 1119 1120
3 1118 1120 1121
3 1118 1121 1122
3 1118 1122 1123
3 1118 1123 1124
3 1118 1124 1125
3 1118 1125 1126
3 1118 1126 1127
3 1118 1127 1128
3 1118 1128 1129
3 1118 1129 1130
3 1118 1130 1119
3 1119 1131 1120
3 1120 1131 1132
3 1120 1132 1121
3 1121 1132 1133
3 1121 1133 1122
3 1122 1133 1134
3 1122 1134 1123
3 1123 1134 1135
3 1123 1135 1124
3 1124 1135 1136
3 1124 1136 1125
3 1125 1136 1137
3 1125 1137 1126
3 1126 1137 1138
3 1126 1138 1127
3 1127 1138 1139
3 1127 1139 1128
3 1128 1139 1140
3 1128 1140 1129
3 1129 1140 1141
3 1129 1141 1130
3 1130 1141 1142
3 1130 1142 1119
3 1119 1142 1131
3 1131 1143 1132
3 1132 1143 1144
3 1132 1144 1133
3 1133 1144 1145
3 1133 1145 1134
3 1134 1145 1146
3 1134 1146 1135
3 1135 1146 1147
3 1135 1147 1136
3 1136 1147 1148
3 1136 1148 1137
3 1137 1148 1149
3 1137 1149 1138
3 1138 1149 1150
3 1138 1150 1139
3 1139 1150 1151
3 1139 1151 1140
3 1140 1151 1152
3 1140 1152 1141
3 1141 1152 1153
3 1141 1153 1142
3 1142 1153 1154
3 1142 1154 1131
3 1131 1154 1143
3 1143 1155 1144
3 1144 1155 1156
3 1144 1156 1145
3 1145 1156 1157
3 1145 1157 1146
3 1146 1157 1158
3 1146 1158 1147
3 1147 1158 1159
3 1147 1159 1148
3 1148 1159 1160
3 1148 1160 1149
3 1149 1160 1161
3 1149 1161 1150
3 1150 1161 1162
3 1150 1162 1151
3 1151 1162 1163
3 1151 1163 1152
3 1152 1163 1164
3 1152 1164 1153
3 1153 1164 1165
3 1153 1165 1154
3 1154 1165 1166
3 1154 1166 1143
3 1143 1166 1155
3 1155 1167 1156
3 1156 1167 1168
3 1156 1168 1157
3 1157 1168 1169
3 1157 1169 1158
3 1158 1169 1170
3 1158 1170 1159
3 1159 1170 1171
3 1159 1171 1160
3 1160 1171 1172
3 1160 1172 1161
3 1161 1172 1173
3 1161 1173 1162
3 1162 1173 1174
3 1162 1174 1163
3 1163 1174 1175
3 1163 1175 1164
3 1164 1175 1176
3 1164 1176 1165
3 1165 1176 1177
3 1165 1177 1166
3 1166 1177 1178
3 1166 1178 1155
3 1155 1178 1167
3 1167 1179 1168
3 1168 1179 1180
3 1168 1180 1169
3 1169 1180 1181
3 1169 1181 1170
3 1170 1181 1182
3 1170 1182 1171
3 1171 1182 1183
3 1171 1183 1172
3 1172 1183 1184
3 1172 1184 1173
3 1173 1184 1185
3 1173 1185 1174
3 1174 1185 1186
3 1174 1186 1175
3 1175 1186 1187
3 1175 1187 1176
3 1176 1187 1188
3 1176 1188 1177
3 1177 1188 1189
3 1177 1189 1178
3 1178 1189 1190
3 1178 1190 1167
3 1167 1190 1179
3 1179 1191 1180
3 1180 1191 1192
3 1180 1192 1181
3 1181 1192 1193
3 1181 1193 1182
3 1182 1193 1194
3 1182 1194 1183
3 1183 1194 1195
3 1183 1195 1184
3 1184 1195 1196
3 1184 1196 1185
3 1185 1196 1197
3 1185 1197 1186
3 1186 1197 1198
3 1186 1198 1187
3 1187 1198 1199
3 1187 1199 1188
3 1188 1199 1200
3 1188 1200 1189
3 1189 1200 1201
3 1189 1201 1190
3 1190 1201 1202
3 1190 1202 1179
3 1179 1202 1191
3 1203 1192 1191
3 1203 1193 1192
3 1203 1194 1193
3 1203 1195 1194
3 1203 1196 1195
3 1203 1197 1196
3 1203 1198 1197
3 1203 1199 1198
3 1203 1200 1199
3 1203 1201 1200
3 1203 1202 1201
3 1203 1191 1202
3 1204 1205 1206
3 1204 1206 1207
3 1204 1207 1208
3 1204 1208 1209
3 1204 1209 1210
3 1204 1210 1211
3 1204 1211 1212
3 1204 1212 1213
3 1204 1213 1214
3 1204 1214 1215
3 1204 1215 1216
3 1204 1216 1205
3 1205 1217 1206
3 1206 1217 1218
3 1206 1218 1207
3 1207 1218 1219
3 1207 1219 1208
3 1208 1219 1220
3 1208 1220 1209
3 1209 1220 1221
3 1209 1221 1210
3 1210 1221 1222
3 1210 1222 1211
3 1211 1222 1223
3 1211 1223 1212
3 1212 1223 1224
3 1212 1224 1213
3 1213 1224 1225
3 1213 1225 1214
3 1214 1225 1226
3 1214 1226 1215
3 1215 1226 1227
3 1215 1227 1216
3 1216 1227 1228
3 1216 1228 1205
3 1205 1228 1217
3 1217 1229 1218
3 1218 1229 1230
3 1218 1230 1219
3 1219 1230 1231
3 1219 1231 1220
3 1220 1231 1232
3 1220 1232 1221
3 1221 1232 1233
3 1221 1233 1222
3 1222 1233 1234
3 1222 1234 1223
3 1223 1234 1235
3 1223 1235 1224
3 1224 1235 1236
3 1224 1236 1225
3 1225 1236 1237
3 1225 1237 1226
3 1226 1237 1238
3 1226 1238 1227
3 1227 1238 1239
3 1227 1239 1228
3 1228 1239 1240
3 1228 1240 1217
3 1217 1240 1229
3 1229 1241 1230
3 1230 1241 1242
3 1230 1242 1231
3 1231 1242 1243
3 1231 1243 1232
3 1232 1243 1244
3 1232 1244 1233
3 1233 1244 1245
3 1233 1245 1234
3 1234 1245 1246
3 1234 1246 1235
3 1235 1246 1247
3 1235 1247 1236
3 1236 1247 1248
3 1236 1248 1237
3 1237 1248 1249
3 1237 1249 1238
3 1238 1249 1250
3 1238 1250 1239
3 1239 1250 1251
3 1239 1251 1240
3 1240 1251 1252
3 1240 1252 1229
3 1229 1252 1241
3 1241 1253 1242
3 1242 1253 1254
3 1242 1254 1243
3 1243 1254 1255
3 1243 1255 1244
3 1244 1255 1256
3 1244 1256 1245
3 1245 1256 1257
3 1245 1257 1246
3 1246 1257 1258
3 1246 1258 1247
3 1247 1258 1259
3 1247 1259 1248
3 1248 1259 1260
3 1248 1260 1249
3 1249 1260 1261
3 1249 1261 1250
3 1250 1261 1262
3 1250 1262 1251
3 1251 1262 1263
3 1251 1263 1252
3 1252 1263 1264
3 1252 1264 1241
3 1241 1264 1253
3 1253 1265 1254
3 1254 1265 1266
3 1254 1266 1255
3 1255 1266 1267
3 1255 1267 1256
3 1256 1267 1268
3 1256 1268 1257
3 1257 1268 1269
3 1257 1269 1258
3 1258 1269 1270
3 1258 1270 1259
3 1259 1270 1271
3 1259 1271 1260
3 1260 1271 1272
3 1260 1272 1261
3 1261 1272 1273
3 1261 1273 1262
3 1262 1273 1274
3 1262 1274 1263
3 1263 1274 1275
3 1263 1275 1264
3 1264 1275 1276
3 1264 1276 1253
3 1253 1276 1265
3 1265 1277 1266
3 1266 1277 1278
3 1266 1278 1267
3 1267 1278 1279
3 1267 1279 1268
3 1268 1279 1280
3 1268 1280 1269
3 1269 1280 1281
3 1269 1281 1270
3 1270 1281 1282
3 1270 1282 1271
3 1271 1282 1283
3 1271 1283 1272
3 1272 1283 1284
3 1272 1284 1273
3 1273 1284 1285
3 1273 1285 1274
3 1274 1285 1286
3 1274 1286 1275
3 1275 1286 1287
3 1275 1287 1276
3 1276 1287 1288
3 1276 1288 1265
3 1265 1288 1277
3 1289 1278 1277
3 1289 1279 1278
3 1289 1280 1279
3 1289 1281 1280
3 1289 1282 1281
3 1289 1283 1282
3 1289 1284 1283
3 1289 1285 1284
3 1289 1286 1285
3 1289 1287 1286
3 1289 1288 1287
3 1289 1277 1288
